<svg width="704" height="934" viewBox="0 0 704 934" fill="none" xmlns="http://www.w3.org/2000/svg">
<path d="M351.47 88.5303C351.763 88.8232 352.237 88.8232 352.53 88.5303L357.303 83.7574C357.596 83.4645 357.596 82.9896 357.303 82.6967C357.01 82.4038 356.536 82.4038 356.243 82.6967L352 86.9393L347.757 82.6967C347.464 82.4038 346.99 82.4038 346.697 82.6967C346.404 82.9896 346.404 83.4645 346.697 83.7574L351.47 88.5303ZM352.75 64L352.75 63.25L351.25 63.25L351.25 64L352 64L352.75 64ZM352 88L352.75 88L352.75 64L352 64L351.25 64L351.25 88L352 88Z" fill="#E60001"/>
<path d="M132.47 393.53C132.763 393.823 133.237 393.823 133.53 393.53L138.303 388.757C138.596 388.464 138.596 387.99 138.303 387.697C138.01 387.404 137.536 387.404 137.243 387.697L133 391.939L128.757 387.697C128.464 387.404 127.99 387.404 127.697 387.697C127.404 387.99 127.404 388.464 127.697 388.757L132.47 393.53ZM133.75 313L133.75 312.25L132.25 312.25L132.25 313L133 313L133.75 313ZM133 393L133.75 393L133.75 313L133 313L132.25 313L132.25 393L133 393Z" fill="#E60001"/>
<path d="M26 20C26 8.95431 34.9543 0 46 0H679V44C679 55.0457 670.046 64 659 64H26V20Z" fill="#FFC6C7"/>
<path d="M101.774 28.7356L101.752 28.6842C101.752 28.6842 97.6344 19.7942 97.0773 18.9134C96.2405 21.4522 87.7074 27.7207 77.4935 31.8336C71.3217 34.3201 65.5204 34.9993 64.2747 33.8555C61.8193 31.6026 69.3633 25.6955 77.9854 21.1012C83.4872 18.1688 88.546 16.5779 89.94 16.1476L89.8901 16C67.4661 21.1599 56.3286 32.3566 58.2032 36.0276C60.0081 39.5583 71.3773 38.308 82.3998 33.32C86.8382 31.3083 90.2464 29.4395 92.5217 27.9703C92.8975 27.7256 93.2755 27.6071 93.644 28.2457C94.1728 29.1528 95.2084 31.5664 95.2374 31.6325C96.2204 33.7804 92.4859 38.4734 84.0828 42.4212C76.323 46.0633 68.3939 47.3839 64.904 46.1134C64.3735 45.9216 63.8577 45.6945 63.2015 45.041C62.6414 44.4861 61.8099 43.0185 61.5432 42.5619L61.3606 42.6565C62.2748 44.5806 63.1517 46.1448 63.5185 46.5223C66.2652 49.3419 76.6383 47.9855 86.0467 43.6527C95.2125 39.428 103.486 32.3711 101.774 28.7356Z" fill="#E60001"/>
<path d="M126.088 23.6V28.28H129.712V30.68H126.088V35.6H130.648V38H123.448V21.2H130.648V23.6H126.088ZM140.492 38H137.804C137.66 37.568 137.564 37.304 137.564 35.936V33.296C137.564 31.736 137.036 31.16 135.836 31.16H134.924V38H132.284V21.2H136.268C139.004 21.2 140.18 22.472 140.18 25.064V26.384C140.18 28.112 139.628 29.24 138.452 29.792C139.772 30.344 140.204 31.616 140.204 33.368V35.96C140.204 36.776 140.228 37.376 140.492 38ZM136.196 23.6H134.924V28.76H135.956C136.94 28.76 137.54 28.328 137.54 26.984V25.328C137.54 24.128 137.132 23.6 136.196 23.6ZM141.604 25.232C141.604 22.544 142.924 21.008 145.492 21.008C148.06 21.008 149.38 22.544 149.38 25.232V25.76H146.884V25.064C146.884 23.864 146.404 23.408 145.564 23.408C144.724 23.408 144.244 23.864 144.244 25.064C144.244 28.52 149.404 29.168 149.404 33.968C149.404 36.656 148.06 38.192 145.468 38.192C142.876 38.192 141.532 36.656 141.532 33.968V32.936H144.028V34.136C144.028 35.336 144.556 35.768 145.396 35.768C146.236 35.768 146.764 35.336 146.764 34.136C146.764 30.68 141.604 30.032 141.604 25.232ZM150.149 23.6V21.2H158.309V23.6H155.549V38H152.909V23.6H150.149ZM165.496 38L162.928 31.304L162.112 32.84V38H159.472V21.2H162.112V28.52L165.568 21.2H168.208L164.536 28.688L168.208 38H165.496ZM171.669 25.064V34.136C171.669 35.336 172.197 35.792 173.037 35.792C173.877 35.792 174.405 35.336 174.405 34.136V25.064C174.405 23.864 173.877 23.408 173.037 23.408C172.197 23.408 171.669 23.864 171.669 25.064ZM169.029 33.968V25.232C169.029 22.544 170.445 21.008 173.037 21.008C175.629 21.008 177.045 22.544 177.045 25.232V33.968C177.045 36.656 175.629 38.192 173.037 38.192C170.445 38.192 169.029 36.656 169.029 33.968ZM184.401 38L181.113 25.832V38H178.737V21.2H182.049L184.761 31.256V21.2H187.113V38H184.401ZM188.235 23.6V21.2H196.395V23.6H193.635V38H190.995V23.6H188.235ZM202.5 21.2L205.188 38H202.524L202.068 34.952H198.828L198.372 38H195.948L198.636 21.2H202.5ZM200.436 24.176L199.164 32.672H201.708L200.436 24.176ZM212.441 38L209.873 31.304L209.057 32.84V38H206.417V21.2H209.057V28.52L212.513 21.2H215.153L211.481 28.688L215.153 38H212.441ZM215.587 23.6V21.2H223.747V23.6H220.987V38H218.347V23.6H215.587ZM230.976 21.2H238.464V23.552L233.448 35.6H238.464V38H230.736V35.648L235.752 23.6H230.976V21.2ZM239.906 21.2H242.546V34.16C242.546 35.36 243.074 35.792 243.914 35.792C244.754 35.792 245.282 35.36 245.282 34.16V21.2H247.778V33.992C247.778 36.68 246.434 38.216 243.842 38.216C241.25 38.216 239.906 36.68 239.906 33.992V21.2ZM253.237 21.2L255.181 33.128L256.981 21.2H260.653V38H258.157V25.952L256.333 38H253.837L251.869 26.12V38H249.565V21.2H253.237ZM268.94 23.6V28.28H272.564V30.68H268.94V35.6H273.5V38H266.3V21.2H273.5V23.6H268.94ZM275.136 38V21.2H277.776V38H275.136ZM279.37 25.232C279.37 22.544 280.69 21.008 283.258 21.008C285.826 21.008 287.146 22.544 287.146 25.232V25.76H284.65V25.064C284.65 23.864 284.17 23.408 283.33 23.408C282.49 23.408 282.01 23.864 282.01 25.064C282.01 28.52 287.17 29.168 287.17 33.968C287.17 36.656 285.826 38.192 283.234 38.192C280.642 38.192 279.298 36.656 279.298 33.968V32.936H281.794V34.136C281.794 35.336 282.322 35.768 283.162 35.768C284.002 35.768 284.53 35.336 284.53 34.136C284.53 30.68 279.37 30.032 279.37 25.232ZM291.569 38L298.193 21.2H300.473L293.849 38H291.569ZM310.424 23.6V28.28H314.048V30.68H310.424V35.6H314.984V38H307.784V21.2H314.984V23.6H310.424ZM316.62 38V21.2H319.26V38H316.62ZM320.854 25.232C320.854 22.544 322.174 21.008 324.742 21.008C327.31 21.008 328.63 22.544 328.63 25.232V25.76H326.134V25.064C326.134 23.864 325.654 23.408 324.814 23.408C323.974 23.408 323.494 23.864 323.494 25.064C323.494 28.52 328.654 29.168 328.654 33.968C328.654 36.656 327.31 38.192 324.718 38.192C322.126 38.192 320.782 36.656 320.782 33.968V32.936H323.278V34.136C323.278 35.336 323.806 35.768 324.646 35.768C325.486 35.768 326.014 35.336 326.014 34.136C326.014 30.68 320.854 30.032 320.854 25.232ZM332.807 30.8V38H330.167V21.2H332.807V28.4H335.807V21.2H338.495V38H335.807V30.8H332.807ZM342.833 25.064V34.136C342.833 35.336 343.361 35.792 344.201 35.792C345.041 35.792 345.569 35.336 345.569 34.136V25.064C345.569 23.864 345.041 23.408 344.201 23.408C343.361 23.408 342.833 23.864 342.833 25.064ZM340.193 33.968V25.232C340.193 22.544 341.609 21.008 344.201 21.008C346.793 21.008 348.209 22.544 348.209 25.232V33.968C348.209 36.656 346.793 38.192 344.201 38.192C341.609 38.192 340.193 36.656 340.193 33.968ZM355.085 31.736H357.581V33.968C357.581 36.656 356.237 38.192 353.645 38.192C351.053 38.192 349.709 36.656 349.709 33.968V25.232C349.709 22.544 351.053 21.008 353.645 21.008C356.237 21.008 357.581 22.544 357.581 25.232V26.864H355.085V25.064C355.085 23.864 354.557 23.408 353.717 23.408C352.877 23.408 352.349 23.864 352.349 25.064V34.136C352.349 35.336 352.877 35.768 353.717 35.768C354.557 35.768 355.085 35.336 355.085 34.136V31.736ZM365.207 38L362.639 31.304L361.823 32.84V38H359.183V21.2H361.823V28.52L365.279 21.2H367.919L364.247 28.688L367.919 38H365.207ZM371.76 23.6V28.28H375.384V30.68H371.76V35.6H376.32V38H369.12V21.2H376.32V23.6H371.76ZM380.428 38V32.432L377.092 21.2H379.852L381.868 28.856L383.884 21.2H386.404L383.068 32.432V38H380.428Z" fill="black"/>
<path d="M630.39 32H642.629M642.629 32L636.509 25.8804M642.629 32L636.509 38.1196" stroke="#E60001" stroke-width="2" stroke-linecap="round" stroke-linejoin="round"/>
<path d="M351.47 481.53C351.763 481.823 352.237 481.823 352.53 481.53L357.303 476.757C357.596 476.464 357.596 475.99 357.303 475.697C357.01 475.404 356.536 475.404 356.243 475.697L352 479.939L347.757 475.697C347.464 475.404 346.99 475.404 346.697 475.697C346.404 475.99 346.404 476.464 346.697 476.757L351.47 481.53ZM352.75 457L352.75 456.25L351.25 456.25L351.25 457L352 457L352.75 457ZM352 481L352.75 481L352.75 457L352 457L351.25 457L351.25 481L352 481Z" fill="#E60001"/>
<path d="M243.47 747.53C243.763 747.823 244.237 747.823 244.53 747.53L249.303 742.757C249.596 742.464 249.596 741.99 249.303 741.697C249.01 741.404 248.536 741.404 248.243 741.697L244 745.939L239.757 741.697C239.464 741.404 238.99 741.404 238.697 741.697C238.404 741.99 238.404 742.464 238.697 742.757L243.47 747.53ZM244.75 715L244.75 714.25L243.25 714.25L243.25 715L244 715L244.75 715ZM244 747L244.75 747L244.75 715L244 715L243.25 715L243.25 747L244 747Z" fill="#E60001"/>
<path d="M459.47 747.53C459.763 747.823 460.237 747.823 460.53 747.53L465.303 742.757C465.596 742.464 465.596 741.99 465.303 741.697C465.01 741.404 464.536 741.404 464.243 741.697L460 745.939L455.757 741.697C455.464 741.404 454.99 741.404 454.697 741.697C454.404 741.99 454.404 742.464 454.697 742.757L459.47 747.53ZM460.75 715L460.75 714.25L459.25 714.25L459.25 715L460 715L460.75 715ZM460 747L460.75 747L460.75 715L460 715L459.25 715L459.25 747L460 747Z" fill="#A5A5A5"/>
<path d="M351.47 553.53C351.763 553.823 352.237 553.823 352.53 553.53L357.303 548.757C357.596 548.464 357.596 547.99 357.303 547.697C357.01 547.404 356.536 547.404 356.243 547.697L352 551.939L347.757 547.697C347.464 547.404 346.99 547.404 346.697 547.697C346.404 547.99 346.404 548.464 346.697 548.757L351.47 553.53ZM352.75 529L352.75 528.25L351.25 528.25L351.25 529L352 529L352.75 529ZM352 553L352.75 553L352.75 529L352 529L351.25 529L351.25 553L352 553Z" fill="#E60001"/>
<path d="M351.47 649.53C351.763 649.823 352.237 649.823 352.53 649.53L357.303 644.757C357.596 644.464 357.596 643.99 357.303 643.697C357.01 643.404 356.536 643.404 356.243 643.697L352 647.939L347.757 643.697C347.464 643.404 346.99 643.404 346.697 643.697C346.404 643.99 346.404 644.464 346.697 644.757L351.47 649.53ZM352.75 625L352.75 624.25L351.25 624.25L351.25 625L352 625L352.75 625ZM352 649L352.75 649L352.75 625L352 625L351.25 625L351.25 649L352 649Z" fill="#E60001"/>
<path d="M26 413C26 401.954 34.9543 393 46 393H679V437C679 448.046 670.046 457 659 457H26V413Z" fill="#E60001"/>
<path d="M101.774 421.736L101.752 421.684C101.752 421.684 97.6344 412.794 97.0773 411.913C96.2405 414.452 87.7074 420.721 77.4935 424.834C71.3217 427.32 65.5204 427.999 64.2747 426.855C61.8193 424.603 69.3633 418.696 77.9854 414.101C83.4872 411.169 88.546 409.578 89.94 409.148L89.8901 409C67.4661 414.16 56.3286 425.357 58.2032 429.028C60.0081 432.558 71.3773 431.308 82.3998 426.32C86.8382 424.308 90.2464 422.439 92.5217 420.97C92.8975 420.726 93.2755 420.607 93.644 421.246C94.1728 422.153 95.2084 424.566 95.2374 424.633C96.2204 426.78 92.4859 431.473 84.0828 435.421C76.323 439.063 68.3939 440.384 64.904 439.113C64.3735 438.922 63.8577 438.695 63.2015 438.041C62.6414 437.486 61.8099 436.019 61.5432 435.562L61.3606 435.657C62.2748 437.581 63.1517 439.145 63.5185 439.522C66.2652 442.342 76.6383 440.986 86.0467 436.653C95.2125 432.428 103.486 425.371 101.774 421.736Z" fill="#FF8F8F"/>
<path d="M128.886 414.2L131.574 431H128.91L128.454 427.952H125.214L124.758 431H122.334L125.022 414.2H128.886ZM126.822 417.176L125.55 425.672H128.094L126.822 417.176ZM136.452 414.2L138.396 426.128L140.196 414.2H143.868V431H141.372V418.952L139.548 431H137.052L135.084 419.12V431H132.78V414.2H136.452ZM149.772 414.2C152.508 414.2 153.684 415.472 153.684 418.064V418.664C153.684 420.392 153.156 421.496 151.98 422.048C153.396 422.6 153.948 423.872 153.948 425.648V427.016C153.948 429.608 152.58 431 149.94 431H145.788V414.2H149.772ZM149.604 423.44H148.428V428.6H149.94C150.828 428.6 151.308 428.192 151.308 426.944V425.48C151.308 423.92 150.804 423.44 149.604 423.44ZM149.7 416.6H148.428V421.04H149.46C150.444 421.04 151.044 420.608 151.044 419.264V418.328C151.044 417.128 150.636 416.6 149.7 416.6ZM155.538 431V414.2H158.178V431H155.538ZM159.34 416.6V414.2H167.5V416.6H164.74V431H162.1V416.6H159.34ZM168.663 431V414.2H171.303V431H168.663ZM175.657 418.064V427.136C175.657 428.336 176.185 428.792 177.025 428.792C177.865 428.792 178.393 428.336 178.393 427.136V418.064C178.393 416.864 177.865 416.408 177.025 416.408C176.185 416.408 175.657 416.864 175.657 418.064ZM173.017 426.968V418.232C173.017 415.544 174.433 414.008 177.025 414.008C179.617 414.008 181.033 415.544 181.033 418.232V426.968C181.033 429.656 179.617 431.192 177.025 431.192C174.433 431.192 173.017 429.656 173.017 426.968ZM188.389 431L185.101 418.832V431H182.725V414.2H186.037L188.749 424.256V414.2H191.101V431H188.389ZM196.382 418.232C196.382 415.544 197.702 414.008 200.27 414.008C202.838 414.008 204.158 415.544 204.158 418.232V418.76H201.662V418.064C201.662 416.864 201.182 416.408 200.342 416.408C199.502 416.408 199.022 416.864 199.022 418.064C199.022 421.52 204.182 422.168 204.182 426.968C204.182 429.656 202.838 431.192 200.246 431.192C197.654 431.192 196.31 429.656 196.31 426.968V425.936H198.806V427.136C198.806 428.336 199.334 428.768 200.174 428.768C201.014 428.768 201.542 428.336 201.542 427.136C201.542 423.68 196.382 423.032 196.382 418.232ZM210.854 424.736H213.35V426.968C213.35 429.656 212.006 431.192 209.414 431.192C206.822 431.192 205.478 429.656 205.478 426.968V418.232C205.478 415.544 206.822 414.008 209.414 414.008C212.006 414.008 213.35 415.544 213.35 418.232V419.864H210.854V418.064C210.854 416.864 210.326 416.408 209.486 416.408C208.646 416.408 208.118 416.864 208.118 418.064V427.136C208.118 428.336 208.646 428.768 209.486 428.768C210.326 428.768 210.854 428.336 210.854 427.136V424.736ZM217.592 423.8V431H214.952V414.2H217.592V421.4H220.592V414.2H223.28V431H220.592V423.8H217.592ZM225.194 431V414.2H227.834V431H225.194ZM232.405 416.6V421.28H236.029V423.68H232.405V428.6H236.965V431H229.765V414.2H236.965V416.6H232.405ZM238.601 431V414.2H242.777C245.417 414.2 246.713 415.664 246.713 418.352V426.848C246.713 429.536 245.417 431 242.777 431H238.601ZM242.729 416.6H241.241V428.6H242.729C243.569 428.6 244.073 428.168 244.073 426.968V418.232C244.073 417.032 243.569 416.6 242.729 416.6ZM248.062 418.232C248.062 415.544 249.382 414.008 251.95 414.008C254.518 414.008 255.838 415.544 255.838 418.232V418.76H253.342V418.064C253.342 416.864 252.862 416.408 252.022 416.408C251.182 416.408 250.702 416.864 250.702 418.064C250.702 421.52 255.862 422.168 255.862 426.968C255.862 429.656 254.518 431.192 251.926 431.192C249.334 431.192 247.99 429.656 247.99 426.968V425.936H250.486V427.136C250.486 428.336 251.014 428.768 251.854 428.768C252.694 428.768 253.222 428.336 253.222 427.136C253.222 423.68 248.062 423.032 248.062 418.232ZM265.582 431H262.894C262.75 430.568 262.654 430.304 262.654 428.936V426.296C262.654 424.736 262.126 424.16 260.926 424.16H260.014V431H257.374V414.2H261.358C264.094 414.2 265.27 415.472 265.27 418.064V419.384C265.27 421.112 264.718 422.24 263.542 422.792C264.862 423.344 265.294 424.616 265.294 426.368V428.96C265.294 429.776 265.318 430.376 265.582 431ZM261.286 416.6H260.014V421.76H261.046C262.03 421.76 262.63 421.328 262.63 419.984V418.328C262.63 417.128 262.222 416.6 261.286 416.6ZM267.03 431V414.2H269.67V431H267.03ZM276.761 424.736H279.257V426.968C279.257 429.656 277.913 431.192 275.321 431.192C272.729 431.192 271.385 429.656 271.385 426.968V418.232C271.385 415.544 272.729 414.008 275.321 414.008C277.913 414.008 279.257 415.544 279.257 418.232V419.864H276.761V418.064C276.761 416.864 276.233 416.408 275.393 416.408C274.553 416.408 274.025 416.864 274.025 418.064V427.136C274.025 428.336 274.553 428.768 275.393 428.768C276.233 428.768 276.761 428.336 276.761 427.136V424.736ZM283.498 423.8V431H280.858V414.2H283.498V421.4H286.498V414.2H289.186V431H286.498V423.8H283.498ZM290.333 416.6V414.2H298.493V416.6H295.733V431H293.093V416.6H290.333ZM302.295 416.6V421.28H305.919V423.68H302.295V428.6H306.855V431H299.655V414.2H306.855V416.6H302.295ZM316.699 431H314.011C313.867 430.568 313.771 430.304 313.771 428.936V426.296C313.771 424.736 313.243 424.16 312.043 424.16H311.131V431H308.491V414.2H312.475C315.211 414.2 316.387 415.472 316.387 418.064V419.384C316.387 421.112 315.835 422.24 314.659 422.792C315.979 423.344 316.411 424.616 316.411 426.368V428.96C316.411 429.776 316.435 430.376 316.699 431ZM312.403 416.6H311.131V421.76H312.163C313.147 421.76 313.747 421.328 313.747 419.984V418.328C313.747 417.128 313.339 416.6 312.403 416.6ZM317.308 431L323.932 414.2H326.212L319.588 431H317.308ZM327.288 431V414.2H329.928V431H327.288ZM337.498 431L334.21 418.832V431H331.834V414.2H335.146L337.858 424.256V414.2H340.21V431H337.498ZM345.659 414.2H353.147V416.552L348.131 428.6H353.147V431H345.419V428.648L350.435 416.6H345.659V414.2ZM354.59 414.2H357.23V427.16C357.23 428.36 357.758 428.792 358.598 428.792C359.438 428.792 359.966 428.36 359.966 427.16V414.2H362.462V426.992C362.462 429.68 361.118 431.216 358.526 431.216C355.934 431.216 354.59 429.68 354.59 426.992V414.2ZM374.815 431L373.855 422.048L372.895 431H369.271L367.399 414.2H369.967L371.383 427.448L372.655 414.2H375.199L376.519 427.544L377.887 414.2H380.191L378.319 431H374.815ZM384.163 416.6V421.28H387.787V423.68H384.163V428.6H388.723V431H381.523V414.2H388.723V416.6H384.163ZM398.566 431H395.878C395.734 430.568 395.638 430.304 395.638 428.936V426.296C395.638 424.736 395.11 424.16 393.91 424.16H392.998V431H390.358V414.2H394.342C397.078 414.2 398.254 415.472 398.254 418.064V419.384C398.254 421.112 397.702 422.24 396.526 422.792C397.846 423.344 398.278 424.616 398.278 426.368V428.96C398.278 429.776 398.302 430.376 398.566 431ZM394.27 416.6H392.998V421.76H394.03C395.014 421.76 395.614 421.328 395.614 419.984V418.328C395.614 417.128 395.206 416.6 394.27 416.6ZM400.015 431V414.2H404.191C406.831 414.2 408.127 415.664 408.127 418.352V426.848C408.127 429.536 406.831 431 404.191 431H400.015ZM404.143 416.6H402.655V428.6H404.143C404.983 428.6 405.487 428.168 405.487 426.968V418.232C405.487 417.032 404.983 416.6 404.143 416.6ZM412.452 416.6V421.28H416.076V423.68H412.452V428.6H417.012V431H409.812V414.2H417.012V416.6H412.452ZM424.288 431L421 418.832V431H418.624V414.2H421.936L424.648 424.256V414.2H427V431H424.288Z" fill="white"/>
<path d="M630.39 425H642.629M642.629 425L636.509 418.88M642.629 425L636.509 431.12" stroke="#FF8F8F" stroke-width="2" stroke-linecap="round" stroke-linejoin="round"/>
<path d="M26 671C26 659.954 34.9543 651 46 651H679V695C679 706.046 670.046 715 659 715H26V671Z" fill="#E60001"/>
<path d="M101.774 679.736L101.752 679.684C101.752 679.684 97.6344 670.794 97.0773 669.913C96.2405 672.452 87.7074 678.721 77.4935 682.834C71.3217 685.32 65.5204 685.999 64.2747 684.855C61.8193 682.603 69.3633 676.696 77.9854 672.101C83.4872 669.169 88.546 667.578 89.94 667.148L89.8901 667C67.4661 672.16 56.3286 683.357 58.2032 687.028C60.0081 690.558 71.3773 689.308 82.3998 684.32C86.8382 682.308 90.2464 680.439 92.5217 678.97C92.8975 678.726 93.2755 678.607 93.644 679.246C94.1728 680.153 95.2084 682.566 95.2374 682.633C96.2204 684.78 92.4859 689.473 84.0828 693.421C76.323 697.063 68.3939 698.384 64.904 697.113C64.3735 696.922 63.8577 696.695 63.2015 696.041C62.6414 695.486 61.8099 694.019 61.5432 693.562L61.3606 693.657C62.2748 695.581 63.1517 697.145 63.5185 697.522C66.2652 700.342 76.6383 698.986 86.0467 694.653C95.2125 690.428 103.486 683.371 101.774 679.736Z" fill="#FF8F8F"/>
<path d="M129.073 689L125.785 676.832V689H123.409V672.2H126.721L129.433 682.256V672.2H131.785V689H129.073ZM139.531 672.2L142.219 689H139.555L139.099 685.952H135.859L135.403 689H132.979L135.667 672.2H139.531ZM137.467 675.176L136.195 683.672H138.739L137.467 675.176ZM148.585 682.736H151.081V684.968C151.081 687.656 149.737 689.192 147.145 689.192C144.553 689.192 143.209 687.656 143.209 684.968V676.232C143.209 673.544 144.553 672.008 147.145 672.008C149.737 672.008 151.081 673.544 151.081 676.232V677.864H148.585V676.064C148.585 674.864 148.057 674.408 147.217 674.408C146.377 674.408 145.849 674.864 145.849 676.064V685.136C145.849 686.336 146.377 686.768 147.217 686.768C148.057 686.768 148.585 686.336 148.585 685.136V682.736ZM155.323 681.8V689H152.683V672.2H155.323V679.4H158.323V672.2H161.011V689H158.323V681.8H155.323ZM169.741 689L168.781 680.048L167.821 689H164.197L162.325 672.2H164.893L166.309 685.448L167.581 672.2H170.125L171.445 685.544L172.813 672.2H175.117L173.245 689H169.741ZM176.328 672.2H178.968V685.16C178.968 686.36 179.496 686.792 180.336 686.792C181.176 686.792 181.704 686.36 181.704 685.16V672.2H184.2V684.992C184.2 687.68 182.856 689.216 180.264 689.216C177.672 689.216 176.328 687.68 176.328 684.992V672.2ZM191.171 682.736H193.667V684.968C193.667 687.656 192.323 689.192 189.731 689.192C187.139 689.192 185.795 687.656 185.795 684.968V676.232C185.795 673.544 187.139 672.008 189.731 672.008C192.323 672.008 193.667 673.544 193.667 676.232V677.864H191.171V676.064C191.171 674.864 190.643 674.408 189.803 674.408C188.963 674.408 188.435 674.864 188.435 676.064V685.136C188.435 686.336 188.963 686.768 189.803 686.768C190.643 686.768 191.171 686.336 191.171 685.136V682.736ZM197.909 681.8V689H195.269V672.2H197.909V679.4H200.909V672.2H203.597V689H200.909V681.8H197.909ZM205.175 676.232C205.175 673.544 206.495 672.008 209.063 672.008C211.631 672.008 212.951 673.544 212.951 676.232V676.76H210.455V676.064C210.455 674.864 209.975 674.408 209.135 674.408C208.295 674.408 207.815 674.864 207.815 676.064C207.815 679.52 212.975 680.168 212.975 684.968C212.975 687.656 211.631 689.192 209.039 689.192C206.447 689.192 205.103 687.656 205.103 684.968V683.936H207.599V685.136C207.599 686.336 208.127 686.768 208.967 686.768C209.807 686.768 210.335 686.336 210.335 685.136C210.335 681.68 205.175 681.032 205.175 676.232Z" fill="white"/>
<path d="M630.39 683H642.629M642.629 683L636.509 676.88M642.629 683L636.509 689.12" stroke="#FF8F8F" stroke-width="2" stroke-linecap="round" stroke-linejoin="round"/>
<path d="M230.567 345.8L232.359 357H230.583L230.279 354.968H228.119L227.815 357H226.199L227.991 345.8H230.567ZM229.191 347.784L228.343 353.448H230.039L229.191 347.784ZM236.939 357L234.747 348.888V357H233.163V345.8H235.371L237.179 352.504V345.8H238.747V357H236.939ZM241.767 347.4V350.776H244.039V352.376H241.767V357H240.007V345.8H244.663V347.4H241.767ZM250.979 357H249.187C249.091 356.712 249.027 356.536 249.027 355.624V353.864C249.027 352.824 248.675 352.44 247.875 352.44H247.267V357H245.507V345.8H248.163C249.987 345.8 250.771 346.648 250.771 348.376V349.256C250.771 350.408 250.403 351.16 249.619 351.528C250.499 351.896 250.787 352.744 250.787 353.912V355.64C250.787 356.184 250.803 356.584 250.979 357ZM248.115 347.4H247.267V350.84H247.955C248.611 350.84 249.011 350.552 249.011 349.656V348.552C249.011 347.752 248.739 347.4 248.115 347.4ZM255.849 345.8L257.641 357H255.865L255.561 354.968H253.401L253.097 357H251.481L253.273 345.8H255.849ZM254.473 347.784L253.625 353.448H255.321L254.473 347.784ZM261.085 352.36V350.76H263.549V354.312C263.549 356.104 262.653 357.128 260.925 357.128C259.197 357.128 258.301 356.104 258.301 354.312V348.488C258.301 346.696 259.197 345.672 260.925 345.672C262.653 345.672 263.549 346.696 263.549 348.488V349.576H261.885V348.376C261.885 347.576 261.533 347.272 260.973 347.272C260.413 347.272 260.061 347.576 260.061 348.376V354.424C260.061 355.224 260.413 355.512 260.973 355.512C261.533 355.512 261.885 355.224 261.885 354.424V352.36H261.085ZM266.439 347.4V350.52H268.855V352.12H266.439V355.4H269.479V357H264.679V345.8H269.479V347.4H266.439ZM273.054 357V345.8H275.838C277.598 345.8 278.462 346.776 278.462 348.568V354.232C278.462 356.024 277.598 357 275.838 357H273.054ZM275.806 347.4H274.814V355.4H275.806C276.366 355.4 276.702 355.112 276.702 354.312V348.488C276.702 347.688 276.366 347.4 275.806 347.4ZM279.505 345.8H281.265V354.44C281.265 355.24 281.617 355.528 282.177 355.528C282.737 355.528 283.089 355.24 283.089 354.44V345.8H284.753V354.328C284.753 356.12 283.857 357.144 282.129 357.144C280.401 357.144 279.505 356.12 279.505 354.328V345.8ZM291.432 357H289.64C289.544 356.712 289.48 356.536 289.48 355.624V353.864C289.48 352.824 289.128 352.44 288.328 352.44H287.72V357H285.96V345.8H288.616C290.44 345.8 291.224 346.648 291.224 348.376V349.256C291.224 350.408 290.856 351.16 290.072 351.528C290.952 351.896 291.24 352.744 291.24 353.912V355.64C291.24 356.184 291.256 356.584 291.432 357ZM288.568 347.4H287.72V350.84H288.408C289.064 350.84 289.464 350.552 289.464 349.656V348.552C289.464 347.752 289.192 347.4 288.568 347.4ZM295.838 352.824H297.502V354.312C297.502 356.104 296.606 357.128 294.878 357.128C293.15 357.128 292.254 356.104 292.254 354.312V348.488C292.254 346.696 293.15 345.672 294.878 345.672C296.606 345.672 297.502 346.696 297.502 348.488V349.576H295.838V348.376C295.838 347.576 295.486 347.272 294.926 347.272C294.366 347.272 294.014 347.576 294.014 348.376V354.424C294.014 355.224 294.366 355.512 294.926 355.512C295.486 355.512 295.838 355.224 295.838 354.424V352.824ZM300.33 352.2V357H298.57V345.8H300.33V350.6H302.33V345.8H304.122V357H302.33V352.2H300.33ZM307.658 348.488C307.658 346.696 308.538 345.672 310.25 345.672C311.962 345.672 312.842 346.696 312.842 348.488V348.84H311.178V348.376C311.178 347.576 310.858 347.272 310.298 347.272C309.738 347.272 309.418 347.576 309.418 348.376C309.418 350.68 312.858 351.112 312.858 354.312C312.858 356.104 311.962 357.128 310.234 357.128C308.506 357.128 307.61 356.104 307.61 354.312V353.624H309.274V354.424C309.274 355.224 309.626 355.512 310.186 355.512C310.746 355.512 311.098 355.224 311.098 354.424C311.098 352.12 307.658 351.688 307.658 348.488ZM319.339 357H317.547C317.451 356.712 317.387 356.536 317.387 355.624V353.864C317.387 352.824 317.035 352.44 316.235 352.44H315.627V357H313.867V345.8H316.523C318.347 345.8 319.131 346.648 319.131 348.376V349.256C319.131 350.408 318.763 351.16 317.979 351.528C318.859 351.896 319.147 352.744 319.147 353.912V355.64C319.147 356.184 319.163 356.584 319.339 357ZM316.475 347.4H315.627V350.84H316.315C316.971 350.84 317.371 350.552 317.371 349.656V348.552C317.371 347.752 317.099 347.4 316.475 347.4ZM320.224 352.2V350.6H323.424V352.2H320.224ZM325.772 345.8L327.116 354.936L328.46 345.8H330.076L328.348 357H325.724L323.996 345.8H325.772ZM332.658 347.4V350.52H335.074V352.12H332.658V355.4H335.698V357H330.898V345.8H335.698V347.4H332.658ZM342.26 357H340.468C340.372 356.712 340.308 356.536 340.308 355.624V353.864C340.308 352.824 339.956 352.44 339.156 352.44H338.548V357H336.788V345.8H339.444C341.268 345.8 342.052 346.648 342.052 348.376V349.256C342.052 350.408 341.684 351.16 340.9 351.528C341.78 351.896 342.068 352.744 342.068 353.912V355.64C342.068 356.184 342.084 356.584 342.26 357ZM339.396 347.4H338.548V350.84H339.236C339.892 350.84 340.292 350.552 340.292 349.656V348.552C340.292 347.752 340.02 347.4 339.396 347.4ZM347.13 345.8L348.922 357H347.146L346.842 354.968H344.682L344.378 357H342.762L344.554 345.8H347.13ZM345.754 347.784L344.906 353.448H346.602L345.754 347.784ZM353.502 357L351.31 348.888V357H349.726V345.8H351.934L353.742 352.504V345.8H355.31V357H353.502ZM356.058 347.4V345.8H361.498V347.4H359.658V357H357.898V347.4H356.058ZM366.817 357L366.177 351.032L365.537 357H363.121L361.873 345.8H363.585L364.529 354.632L365.377 345.8H367.073L367.953 354.696L368.865 345.8H370.401L369.153 357H366.817ZM372.904 348.376V354.424C372.904 355.224 373.256 355.528 373.816 355.528C374.376 355.528 374.728 355.224 374.728 354.424V348.376C374.728 347.576 374.376 347.272 373.816 347.272C373.256 347.272 372.904 347.576 372.904 348.376ZM371.144 354.312V348.488C371.144 346.696 372.088 345.672 373.816 345.672C375.544 345.672 376.488 346.696 376.488 348.488V354.312C376.488 356.104 375.544 357.128 373.816 357.128C372.088 357.128 371.144 356.104 371.144 354.312ZM383.104 357H381.312C381.216 356.712 381.152 356.536 381.152 355.624V353.864C381.152 352.824 380.8 352.44 380 352.44H379.392V357H377.632V345.8H380.288C382.112 345.8 382.896 346.648 382.896 348.376V349.256C382.896 350.408 382.528 351.16 381.744 351.528C382.624 351.896 382.912 352.744 382.912 353.912V355.64C382.912 356.184 382.928 356.584 383.104 357ZM380.24 347.4H379.392V350.84H380.08C380.736 350.84 381.136 350.552 381.136 349.656V348.552C381.136 347.752 380.864 347.4 380.24 347.4ZM383.558 347.4V345.8H388.998V347.4H387.158V357H385.398V347.4H383.558ZM389.773 357V345.8H391.533V355.4H394.429V357H389.773ZM395.195 357V345.8H396.955V357H395.195ZM401.682 352.824H403.346V354.312C403.346 356.104 402.45 357.128 400.722 357.128C398.994 357.128 398.098 356.104 398.098 354.312V348.488C398.098 346.696 398.994 345.672 400.722 345.672C402.45 345.672 403.346 346.696 403.346 348.488V349.576H401.682V348.376C401.682 347.576 401.33 347.272 400.77 347.272C400.21 347.272 399.858 347.576 399.858 348.376V354.424C399.858 355.224 400.21 355.512 400.77 355.512C401.33 355.512 401.682 355.224 401.682 354.424V352.824ZM406.173 352.2V357H404.413V345.8H406.173V350.6H408.173V345.8H409.965V357H408.173V352.2H406.173ZM413.002 347.4V350.52H415.418V352.12H413.002V355.4H416.042V357H411.242V345.8H416.042V347.4H413.002ZM416.572 357L420.988 345.8H422.508L418.092 357H416.572ZM428.698 357H426.906C426.81 356.712 426.746 356.536 426.746 355.624V353.864C426.746 352.824 426.394 352.44 425.594 352.44H424.986V357H423.226V345.8H425.882C427.706 345.8 428.49 346.648 428.49 348.376V349.256C428.49 350.408 428.122 351.16 427.338 351.528C428.218 351.896 428.506 352.744 428.506 353.912V355.64C428.506 356.184 428.522 356.584 428.698 357ZM425.834 347.4H424.986V350.84H425.674C426.33 350.84 426.73 350.552 426.73 349.656V348.552C426.73 347.752 426.458 347.4 425.834 347.4ZM435.588 352.824H437.252V354.312C437.252 356.104 436.356 357.128 434.628 357.128C432.9 357.128 432.004 356.104 432.004 354.312V348.488C432.004 346.696 432.9 345.672 434.628 345.672C436.356 345.672 437.252 346.696 437.252 348.488V349.576H435.588V348.376C435.588 347.576 435.236 347.272 434.676 347.272C434.116 347.272 433.764 347.576 433.764 348.376V354.424C433.764 355.224 434.116 355.512 434.676 355.512C435.236 355.512 435.588 355.224 435.588 354.424V352.824ZM438.32 357V345.8H440.08V355.4H442.976V357H438.32ZM443.662 345.8H445.422V354.44C445.422 355.24 445.774 355.528 446.334 355.528C446.894 355.528 447.246 355.24 447.246 354.44V345.8H448.91V354.328C448.91 356.12 448.014 357.144 446.286 357.144C444.558 357.144 443.662 356.12 443.662 354.328V345.8ZM452.773 345.8C454.597 345.8 455.381 346.648 455.381 348.376V348.776C455.381 349.928 455.029 350.664 454.245 351.032C455.189 351.4 455.557 352.248 455.557 353.432V354.344C455.557 356.072 454.645 357 452.885 357H450.117V345.8H452.773ZM452.661 351.96H451.877V355.4H452.885C453.477 355.4 453.797 355.128 453.797 354.296V353.32C453.797 352.28 453.461 351.96 452.661 351.96ZM452.725 347.4H451.877V350.36H452.565C453.221 350.36 453.621 350.072 453.621 349.176V348.552C453.621 347.752 453.349 347.4 452.725 347.4Z" fill="black"/>
<path d="M525.353 339.4V342.776H527.625V344.376H525.353V349H523.593V337.8H528.249V339.4H525.353ZM534.565 349H532.773C532.677 348.712 532.613 348.536 532.613 347.624V345.864C532.613 344.824 532.261 344.44 531.461 344.44H530.853V349H529.093V337.8H531.749C533.573 337.8 534.357 338.648 534.357 340.376V341.256C534.357 342.408 533.989 343.16 533.205 343.528C534.085 343.896 534.373 344.744 534.373 345.912V347.64C534.373 348.184 534.389 348.584 534.565 349ZM531.701 339.4H530.853V342.84H531.541C532.197 342.84 532.597 342.552 532.597 341.656V340.552C532.597 339.752 532.325 339.4 531.701 339.4ZM537.291 339.4V342.52H539.707V344.12H537.291V347.4H540.331V349H535.531V337.8H540.331V339.4H537.291ZM541.421 349V337.8H543.181V349H541.421ZM549.012 349L548.372 343.032L547.732 349H545.316L544.068 337.8H545.78L546.724 346.632L547.572 337.8H549.268L550.148 346.696L551.06 337.8H552.596L551.348 349H549.012ZM553.484 349V337.8H555.244V349H553.484ZM556.531 349V337.8H558.291V347.4H561.187V349H556.531ZM561.953 349V337.8H563.713V347.4H566.609V349H561.953ZM567.374 349V337.8H569.134V349H567.374ZM573.061 344.36V342.76H575.525V346.312C575.525 348.104 574.629 349.128 572.901 349.128C571.173 349.128 570.277 348.104 570.277 346.312V340.488C570.277 338.696 571.173 337.672 572.901 337.672C574.629 337.672 575.525 338.696 575.525 340.488V341.576H573.861V340.376C573.861 339.576 573.509 339.272 572.949 339.272C572.389 339.272 572.037 339.576 572.037 340.376V346.424C572.037 347.224 572.389 347.512 572.949 347.512C573.509 347.512 573.861 347.224 573.861 346.424V344.36H573.061ZM578.416 339.4V342.52H580.832V344.12H578.416V347.4H581.456V349H576.656V337.8H581.456V339.4H578.416ZM582.322 340.488C582.322 338.696 583.202 337.672 584.914 337.672C586.626 337.672 587.506 338.696 587.506 340.488V340.84H585.842V340.376C585.842 339.576 585.522 339.272 584.962 339.272C584.402 339.272 584.082 339.576 584.082 340.376C584.082 342.68 587.522 343.112 587.522 346.312C587.522 348.104 586.626 349.128 584.898 349.128C583.17 349.128 582.274 348.104 582.274 346.312V345.624H583.938V346.424C583.938 347.224 584.29 347.512 584.85 347.512C585.41 347.512 585.762 347.224 585.762 346.424C585.762 344.12 582.322 343.688 582.322 340.488ZM532.312 365V353.8H534.072V365H532.312ZM539.119 365L536.927 356.888V365H535.343V353.8H537.551L539.359 360.504V353.8H540.927V365H539.119ZM541.675 355.4V353.8H547.115V355.4H545.275V365H543.515V355.4H541.675ZM549.65 355.4V358.52H552.066V360.12H549.65V363.4H552.69V365H547.89V353.8H552.69V355.4H549.65ZM559.253 365H557.461C557.365 364.712 557.301 364.536 557.301 363.624V361.864C557.301 360.824 556.949 360.44 556.149 360.44H555.541V365H553.781V353.8H556.437C558.261 353.8 559.045 354.648 559.045 356.376V357.256C559.045 358.408 558.677 359.16 557.893 359.528C558.773 359.896 559.061 360.744 559.061 361.912V363.64C559.061 364.184 559.077 364.584 559.253 365ZM556.389 355.4H555.541V358.84H556.229C556.885 358.84 557.285 358.552 557.285 357.656V356.552C557.285 355.752 557.013 355.4 556.389 355.4ZM561.978 355.4V358.52H564.394V360.12H561.978V363.4H565.018V365H560.218V353.8H565.018V355.4H561.978ZM565.885 356.488C565.885 354.696 566.765 353.672 568.477 353.672C570.189 353.672 571.069 354.696 571.069 356.488V356.84H569.405V356.376C569.405 355.576 569.085 355.272 568.525 355.272C567.965 355.272 567.645 355.576 567.645 356.376C567.645 358.68 571.085 359.112 571.085 362.312C571.085 364.104 570.189 365.128 568.461 365.128C566.733 365.128 565.837 364.104 565.837 362.312V361.624H567.501V362.424C567.501 363.224 567.853 363.512 568.413 363.512C568.973 363.512 569.325 363.224 569.325 362.424C569.325 360.12 565.885 359.688 565.885 356.488ZM571.869 356.488C571.869 354.696 572.749 353.672 574.461 353.672C576.173 353.672 577.053 354.696 577.053 356.488V356.84H575.389V356.376C575.389 355.576 575.069 355.272 574.509 355.272C573.949 355.272 573.629 355.576 573.629 356.376C573.629 358.68 577.069 359.112 577.069 362.312C577.069 364.104 576.173 365.128 574.445 365.128C572.717 365.128 571.821 364.104 571.821 362.312V361.624H573.485V362.424C573.485 363.224 573.837 363.512 574.397 363.512C574.957 363.512 575.309 363.224 575.309 362.424C575.309 360.12 571.869 359.688 571.869 356.488ZM579.838 355.4V358.52H582.254V360.12H579.838V363.4H582.878V365H578.078V353.8H582.878V355.4H579.838Z" fill="black"/>
<path d="M677.507 88V88.5H678.5V89.5068H679V92.5215H678.5V95.5361H679V98.5518H678.5V101.566H679V104.581H678.5V107.596H679V110.61H678.5V113.625H679V116.64H678.5V119.654H679V122.669H678.5V125.684H679V128.698H678.5V131.713H679V134.728H678.5V137.742H679V140.757H678.5V143.771H679V146.787H678.5V149.802H679V152.816H678.5V155.831H679V158.846H678.5V161.86H679V164.875H678.5V167.89H679V170.904H678.5V173.919H679V176.934H678.5V179.948H679V182.963H678.5V185.978H679V188.992H678.5V192.007H679V195.022H678.5V198.037H679V201.052H678.5V204.066H679V207.081H678.5V210.096H679V213.11H678.5V216.125H679V219.14H678.5V222.154H679V225.169H678.5V228.184H679V231.198H678.5V234.213H679V237.228H678.5V240.242H679V243.258H678.5V246.272H679V249.287H678.5V252.302H679V255.316H678.5V258.331H679V261.346H678.5V264.36H679V267.375H678.5V270.39H679V273.404H678.5V276.419H679V279.434H678.5V282.448H679V285.463H678.5V288.478H679V291.492H678.5V293C678.5 293.516 678.48 294.027 678.44 294.532L678.938 294.569C678.856 295.628 678.691 296.664 678.45 297.67L677.966 297.555C677.726 298.557 677.408 299.529 677.021 300.464L677.481 300.654C677.078 301.627 676.6 302.562 676.055 303.45L675.629 303.189C675.093 304.062 674.49 304.889 673.828 305.664L674.207 305.988C673.526 306.784 672.784 307.526 671.988 308.207L671.664 307.828C670.889 308.49 670.062 309.093 669.189 309.629L669.45 310.055C668.562 310.6 667.627 311.078 666.654 311.481L666.464 311.021C665.529 311.408 664.557 311.726 663.555 311.966L663.67 312.45C662.664 312.691 661.628 312.856 660.569 312.938L660.532 312.44C660.027 312.48 659.516 312.5 659 312.5H657.506V313H654.521V312.5H651.534V313H648.549V312.5H645.562V313H642.577V312.5H639.591V313H636.605V312.5H633.619V313H630.634V312.5H627.647V313H624.662V312.5H621.676V313H618.69V312.5H615.704V313H612.719V312.5H609.732V313H606.747V312.5H603.761V313H600.775V312.5H597.789V313H594.804V312.5H591.817V313H588.832V312.5H585.846V313H582.86V312.5H579.874V313H576.889V312.5H573.902V313H570.917V312.5H567.931V313H564.945V312.5H561.959V313H558.974V312.5H555.987V313H553.002V312.5H550.016V313H547.03V312.5H544.044V313H541.059V312.5H538.072V313H535.087V312.5H532.101V313H529.115V312.5H526.129V313H523.144V312.5H520.157V313H517.172V312.5H514.186V313H511.2V312.5H508.214V313H505.229V312.5H502.242V313H499.257V312.5H496.271V313H493.285V312.5H490.299V313H487.313V312.5H484.327V313H481.342V312.5H478.355V313H475.37V312.5H472.384V313H469.398V312.5H466.412V313H463.427V312.5H460.44V313H457.455V312.5H454.469V313H451.483V312.5H448.497V313H445.512V312.5H442.525V313H439.54V312.5H436.554V313H433.568V312.5H430.582V313H427.597V312.5H424.61V313H421.625V312.5H418.639V313H415.653V312.5H412.667V313H409.682V312.5H406.695V313H403.71V312.5H400.724V313H397.738V312.5H394.752V313H391.767V312.5H388.78V313H385.795V312.5H382.809V313H379.823V312.5H376.837V313H373.852V312.5H370.865V313H367.88V312.5H364.894V313H361.908V312.5H358.922V313H355.937V312.5H352.95V313H349.965V312.5H346.979V313H343.993V312.5H341.007V313H338.021V312.5H335.035V313H332.05V312.5H329.063V313H326.078V312.5H323.092V313H320.106V312.5H317.12V313H314.135V312.5H311.148V313H308.163V312.5H305.177V313H302.191V312.5H299.205V313H296.22V312.5H293.233V313H290.248V312.5H287.262V313H284.276V312.5H281.29V313H278.305V312.5H275.318V313H272.333V312.5H269.347V313H266.361V312.5H263.375V313H260.39V312.5H257.403V313H254.418V312.5H251.432V313H248.446V312.5H245.46V313H242.475V312.5H239.488V313H236.503V312.5H233.517V313H230.531V312.5H227.545V313H224.559V312.5H221.573V313H218.587V312.5H215.602V313H212.615V312.5H209.63V313H206.644V312.5H203.658V313H200.672V312.5H197.687V313H194.7V312.5H191.715V313H188.729V312.5H185.743V313H182.757V312.5H179.771V313H176.785V312.5H173.8V313H170.813V312.5H167.828V313H164.842V312.5H161.856V313H158.87V312.5H155.885V313H152.898V312.5H149.913V313H146.927V312.5H143.941V313H140.955V312.5H137.97V313H134.983V312.5H131.998V313H129.012V312.5H126.026V313H123.04V312.5H120.055V313H117.068V312.5H114.083V313H111.097V312.5H108.11V313H105.125V312.5H102.139V313H99.1533V312.5H96.167V313H93.1816V312.5H90.1953V313H87.21V312.5H84.2236V313H81.2383V312.5H78.252V313H75.2666V312.5H72.2803V313H69.2949V312.5H66.3086V313H63.3232V312.5H60.3369V313H57.3516V312.5H54.3652V313H51.3799V312.5H48.3936V313H45.4082V312.5H42.4219V313H39.4365V312.5H36.4502V313H33.4648V312.5H30.4785V313H27.4932V312.5H26.5V311.493H26V308.479H26.5V305.464H26V302.448H26.5V299.434H26V296.419H26.5V293.404H26V290.39H26.5V287.375H26V284.36H26.5V281.346H26V278.331H26.5V275.316H26V272.302H26.5V269.287H26V266.272H26.5V263.258H26V260.243H26.5V257.229H26V254.213H26.5V251.198H26V248.184H26.5V245.169H26V242.154H26.5V239.14H26V236.125H26.5V233.11H26V230.096H26.5V227.081H26V224.066H26.5V221.052H26V218.037H26.5V215.022H26V212.008H26.5V208.993H26V205.978H26.5V202.963H26V199.948H26.5V196.934H26V193.919H26.5V190.904H26V187.89H26.5V184.875H26V181.86H26.5V178.846H26V175.831H26.5V172.816H26V169.802H26.5V166.787H26V163.772H26.5V160.758H26V157.742H26.5V154.728H26V151.713H26.5V148.698H26V145.684H26.5V142.669H26V139.654H26.5V136.64H26V133.625H26.5V130.61H26V127.596H26.5V124.581H26V121.566H26.5V118.552H26V115.537H26.5V112.522H26V109.508H26.5V108C26.5 107.484 26.5203 106.973 26.5596 106.468L26.0605 106.43C26.1428 105.371 26.3081 104.335 26.5488 103.329L27.0342 103.445C27.2739 102.443 27.5917 101.471 27.9795 100.536L27.5176 100.345C27.9211 99.3717 28.3988 98.4372 28.9443 97.5488L29.3711 97.8105C29.9069 96.938 30.5095 96.1107 31.1719 95.3359L30.792 95.0107C31.4726 94.2146 32.2146 93.4726 33.0107 92.792L33.3359 93.1719C34.1107 92.5095 34.938 91.9069 35.8105 91.3711L35.5488 90.9443C36.4372 90.3988 37.3717 89.9211 38.3447 89.5176L38.5361 89.9795C39.4714 89.5917 40.4433 89.2739 41.4453 89.0342L41.3291 88.5488C42.3353 88.3081 43.3709 88.1428 44.4297 88.0605L44.4678 88.5596C44.9732 88.5203 45.4843 88.5 46 88.5H47.4941V88H50.4795V88.5H53.4658V88H56.4512V88.5H59.4375V88H62.4229V88.5H65.4092V88H68.3945V88.5H71.3809V88H74.3662V88.5H77.3525V88H80.3379V88.5H83.3242V88H86.3096V88.5H89.2959V88H92.2812V88.5H95.2676V88H98.2529V88.5H101.239V88H104.225V88.5H107.211V88H110.196V88.5H113.183V88H116.168V88.5H119.154V88H122.14V88.5H125.126V88H128.111V88.5H131.098V88H134.083V88.5H137.069V88H140.055V88.5H143.041V88H146.026V88.5H149.013V88H151.998V88.5H154.984V88H157.97V88.5H160.956V88H163.941V88.5H166.928V88H169.913V88.5H172.899V88H175.885V88.5H178.871V88H181.856V88.5H184.843V88H187.828V88.5H190.814V88H193.8V88.5H196.786V88H199.771V88.5H202.758V88H205.743V88.5H208.729V88H211.715V88.5H214.701V88H217.687V88.5H220.673V88H223.658V88.5H226.645V88H229.63V88.5H232.616V88H235.602V88.5H238.588V88H241.573V88.5H244.56V88H247.545V88.5H250.531V88H253.517V88.5H256.503V88H259.488V88.5H262.475V88H265.46V88.5H268.446V88H271.432V88.5H274.418V88H277.403V88.5H280.39V88H283.375V88.5H286.361V88H289.347V88.5H292.333V88H295.318V88.5H298.305V88H301.29V88.5H304.276V88H307.262V88.5H310.248V88H313.233V88.5H316.22V88H319.205V88.5H322.191V88H325.177V88.5H328.163V88H331.148V88.5H334.135V88H337.12V88.5H340.106V88H343.092V88.5H346.078V88H349.063V88.5H352.05V88H355.035V88.5H358.021V88H361.007V88.5H363.993V88H366.979V88.5H369.965V88H372.95V88.5H375.937V88H378.922V88.5H381.908V88H384.894V88.5H387.88V88H390.865V88.5H393.852V88H396.837V88.5H399.823V88H402.809V88.5H405.795V88H408.78V88.5H411.767V88H414.752V88.5H417.738V88H420.724V88.5H423.71V88H426.695V88.5H429.682V88H432.667V88.5H435.653V88H438.639V88.5H441.625V88H444.61V88.5H447.597V88H450.582V88.5H453.568V88H456.554V88.5H459.54V88H462.525V88.5H465.512V88H468.497V88.5H471.483V88H474.469V88.5H477.455V88H480.441V88.5H483.427V88H486.413V88.5H489.398V88H492.385V88.5H495.37V88H498.356V88.5H501.342V88H504.328V88.5H507.313V88H510.3V88.5H513.285V88H516.271V88.5H519.257V88H522.243V88.5H525.229V88H528.215V88.5H531.2V88H534.187V88.5H537.172V88H540.158V88.5H543.144V88H546.13V88.5H549.115V88H552.102V88.5H555.087V88H558.073V88.5H561.059V88H564.045V88.5H567.03V88H570.017V88.5H573.002V88H575.988V88.5H578.974V88H581.96V88.5H584.945V88H587.932V88.5H590.917V88H593.903V88.5H596.89V88H599.875V88.5H602.861V88H605.847V88.5H608.833V88H611.818V88.5H614.805V88H617.79V88.5H620.776V88H623.762V88.5H626.748V88H629.733V88.5H632.72V88H635.705V88.5H638.691V88H641.677V88.5H644.663V88H647.648V88.5H650.635V88H653.62V88.5H656.606V88H659.592V88.5H662.578V88H665.563V88.5H668.55V88H671.535V88.5H674.521V88H677.507Z" stroke="#FF5756" stroke-dasharray="3 3"/>
<path d="M242 128C242 116.954 250.954 108 262 108H442V272.982C442 284.027 433.046 292.982 422 292.982H242V128Z" fill="#E60001"/>
<path d="M363.774 152.736L363.752 152.684C363.752 152.684 359.634 143.794 359.077 142.913C358.241 145.452 349.707 151.721 339.494 155.834C333.322 158.32 327.52 158.999 326.275 157.855C323.819 155.603 331.363 149.696 339.985 145.101C345.487 142.169 350.546 140.578 351.94 140.148L351.89 140C329.466 145.16 318.329 156.357 320.203 160.028C322.008 163.558 333.377 162.308 344.4 157.32C348.838 155.308 352.246 153.439 354.522 151.97C354.897 151.726 355.276 151.607 355.644 152.246C356.173 153.153 357.208 155.566 357.237 155.633C358.22 157.78 354.486 162.473 346.083 166.421C338.323 170.063 330.394 171.384 326.904 170.113C326.373 169.922 325.858 169.695 325.201 169.041C324.641 168.486 323.81 167.019 323.543 166.562L323.361 166.657C324.275 168.581 325.152 170.145 325.518 170.522C328.265 173.342 338.638 171.986 348.047 167.653C357.212 163.428 365.486 156.371 363.774 152.736Z" fill="#FF8F8F"/>
<path d="M303.073 210L299.785 197.832V210H297.409V193.2H300.721L303.433 203.256V193.2H305.785V210H303.073ZM313.531 193.2L316.219 210H313.555L313.099 206.952H309.859L309.403 210H306.979L309.667 193.2H313.531ZM311.467 196.176L310.195 204.672H312.739L311.467 196.176ZM322.585 203.736H325.081V205.968C325.081 208.656 323.737 210.192 321.145 210.192C318.553 210.192 317.209 208.656 317.209 205.968V197.232C317.209 194.544 318.553 193.008 321.145 193.008C323.737 193.008 325.081 194.544 325.081 197.232V198.864H322.585V197.064C322.585 195.864 322.057 195.408 321.217 195.408C320.377 195.408 319.849 195.864 319.849 197.064V206.136C319.849 207.336 320.377 207.768 321.217 207.768C322.057 207.768 322.585 207.336 322.585 206.136V203.736ZM329.323 202.8V210H326.683V193.2H329.323V200.4H332.323V193.2H335.011V210H332.323V202.8H329.323ZM343.741 210L342.781 201.048L341.821 210H338.197L336.325 193.2H338.893L340.309 206.448L341.581 193.2H344.125L345.445 206.544L346.813 193.2H349.117L347.245 210H343.741ZM350.328 193.2H352.968V206.16C352.968 207.36 353.496 207.792 354.336 207.792C355.176 207.792 355.704 207.36 355.704 206.16V193.2H358.2V205.992C358.2 208.68 356.856 210.216 354.264 210.216C351.672 210.216 350.328 208.68 350.328 205.992V193.2ZM365.171 203.736H367.667V205.968C367.667 208.656 366.323 210.192 363.731 210.192C361.139 210.192 359.795 208.656 359.795 205.968V197.232C359.795 194.544 361.139 193.008 363.731 193.008C366.323 193.008 367.667 194.544 367.667 197.232V198.864H365.171V197.064C365.171 195.864 364.643 195.408 363.803 195.408C362.963 195.408 362.435 195.864 362.435 197.064V206.136C362.435 207.336 362.963 207.768 363.803 207.768C364.643 207.768 365.171 207.336 365.171 206.136V203.736ZM371.909 202.8V210H369.269V193.2H371.909V200.4H374.909V193.2H377.597V210H374.909V202.8H371.909ZM379.175 197.232C379.175 194.544 380.495 193.008 383.063 193.008C385.631 193.008 386.951 194.544 386.951 197.232V197.76H384.455V197.064C384.455 195.864 383.975 195.408 383.135 195.408C382.295 195.408 381.815 195.864 381.815 197.064C381.815 200.52 386.975 201.168 386.975 205.968C386.975 208.656 385.631 210.192 383.039 210.192C380.447 210.192 379.103 208.656 379.103 205.968V204.936H381.599V206.136C381.599 207.336 382.127 207.768 382.967 207.768C383.807 207.768 384.335 207.336 384.335 206.136C384.335 202.68 379.175 202.032 379.175 197.232Z" fill="white"/>
<path d="M335.88 250.491H348.12M348.12 250.491L342 244.371M348.12 250.491L342 256.61" stroke="#FF8F8F" stroke-width="2" stroke-linecap="round" stroke-linejoin="round"/>
<path d="M458 128C458 116.954 466.954 108 478 108H658V272.982C658 284.027 649.046 292.982 638 292.982H458V128Z" fill="#D8D8D8"/>
<path d="M579.774 152.736L579.752 152.684C579.752 152.684 575.634 143.794 575.077 142.913C574.241 145.452 565.707 151.721 555.494 155.834C549.322 158.32 543.52 158.999 542.275 157.855C539.819 155.603 547.363 149.696 555.985 145.101C561.487 142.169 566.546 140.578 567.94 140.148L567.89 140C545.466 145.16 534.329 156.357 536.203 160.028C538.008 163.558 549.377 162.308 560.4 157.32C564.838 155.308 568.246 153.439 570.522 151.97C570.897 151.726 571.276 151.607 571.644 152.246C572.173 153.153 573.208 155.566 573.237 155.633C574.22 157.78 570.486 162.473 562.083 166.421C554.323 170.063 546.394 171.384 542.904 170.113C542.373 169.922 541.858 169.695 541.201 169.041C540.641 168.486 539.81 167.019 539.543 166.562L539.361 166.657C540.275 168.581 541.152 170.145 541.518 170.522C544.265 173.342 554.638 171.986 564.047 167.653C573.212 163.428 581.486 156.371 579.774 152.736Z" fill="#7F7F7F"/>
<path d="M509.846 193.2C512.582 193.2 513.758 194.472 513.758 197.064V197.664C513.758 199.392 513.23 200.496 512.054 201.048C513.47 201.6 514.022 202.872 514.022 204.648V206.016C514.022 208.608 512.654 210 510.014 210H505.862V193.2H509.846ZM509.678 202.44H508.502V207.6H510.014C510.902 207.6 511.382 207.192 511.382 205.944V204.48C511.382 202.92 510.878 202.44 509.678 202.44ZM509.774 195.6H508.502V200.04H509.534C510.518 200.04 511.118 199.608 511.118 198.264V197.328C511.118 196.128 510.71 195.6 509.774 195.6ZM523.82 210H521.132C520.988 209.568 520.892 209.304 520.892 207.936V205.296C520.892 203.736 520.364 203.16 519.164 203.16H518.252V210H515.612V193.2H519.596C522.332 193.2 523.508 194.472 523.508 197.064V198.384C523.508 200.112 522.956 201.24 521.78 201.792C523.1 202.344 523.532 203.616 523.532 205.368V207.96C523.532 208.776 523.556 209.376 523.82 210ZM519.524 195.6H518.252V200.76H519.284C520.268 200.76 520.868 200.328 520.868 198.984V197.328C520.868 196.128 520.46 195.6 519.524 195.6ZM527.909 195.6V200.28H531.533V202.68H527.909V207.6H532.469V210H525.269V193.2H532.469V195.6H527.909ZM534.105 210V193.2H536.745V210H534.105ZM537.907 195.6V193.2H546.067V195.6H543.307V210H540.667V195.6H537.907ZM549.87 195.6V200.28H553.494V202.68H549.87V207.6H554.43V210H547.23V193.2H554.43V195.6H549.87ZM561.705 210L558.417 197.832V210H556.041V193.2H559.353L562.065 203.256V193.2H564.417V210H561.705ZM565.972 197.232C565.972 194.544 567.292 193.008 569.86 193.008C572.428 193.008 573.748 194.544 573.748 197.232V197.76H571.252V197.064C571.252 195.864 570.772 195.408 569.932 195.408C569.092 195.408 568.612 195.864 568.612 197.064C568.612 200.52 573.772 201.168 573.772 205.968C573.772 208.656 572.428 210.192 569.836 210.192C567.244 210.192 565.9 208.656 565.9 205.968V204.936H568.396V206.136C568.396 207.336 568.924 207.768 569.764 207.768C570.604 207.768 571.132 207.336 571.132 206.136C571.132 202.68 565.972 202.032 565.972 197.232ZM579.172 193.2C581.812 193.2 583.108 194.664 583.108 197.352V199.536C583.108 202.224 581.812 203.688 579.172 203.688H577.924V210H575.284V193.2H579.172ZM579.172 195.6H577.924V201.288H579.172C580.012 201.288 580.468 200.904 580.468 199.704V197.184C580.468 195.984 580.012 195.6 579.172 195.6ZM586.755 197.064V206.136C586.755 207.336 587.283 207.792 588.123 207.792C588.963 207.792 589.491 207.336 589.491 206.136V197.064C589.491 195.864 588.963 195.408 588.123 195.408C587.283 195.408 586.755 195.864 586.755 197.064ZM584.115 205.968V197.232C584.115 194.544 585.531 193.008 588.123 193.008C590.715 193.008 592.131 194.544 592.131 197.232V205.968C592.131 208.656 590.715 210.192 588.123 210.192C585.531 210.192 584.115 208.656 584.115 205.968ZM602.055 210H599.367C599.223 209.568 599.127 209.304 599.127 207.936V205.296C599.127 203.736 598.599 203.16 597.399 203.16H596.487V210H593.847V193.2H597.831C600.567 193.2 601.743 194.472 601.743 197.064V198.384C601.743 200.112 601.191 201.24 600.015 201.792C601.335 202.344 601.767 203.616 601.767 205.368V207.96C601.767 208.776 601.791 209.376 602.055 210ZM597.759 195.6H596.487V200.76H597.519C598.503 200.76 599.103 200.328 599.103 198.984V197.328C599.103 196.128 598.695 195.6 597.759 195.6ZM602.735 195.6V193.2H610.895V195.6H608.135V210H605.495V195.6H602.735Z" fill="black"/>
<path d="M551.88 250.491H564.12M564.12 250.491L558 244.371M564.12 250.491L558 256.61" stroke="#A5A5A5" stroke-width="2" stroke-linecap="round" stroke-linejoin="round"/>
<path d="M52.816 113.2L55.504 130H52.84L52.384 126.952H49.144L48.688 130H46.264L48.952 113.2H52.816ZM50.752 116.176L49.48 124.672H52.024L50.752 116.176ZM62.7574 130L60.1894 123.304L59.3734 124.84V130H56.7334V113.2H59.3734V120.52L62.8294 113.2H65.4694L61.7974 120.688L65.4694 130H62.7574ZM65.9029 115.6V113.2H74.0629V115.6H71.3029V130H68.6629V115.6H65.9029ZM75.2256 130V113.2H77.8656V130H75.2256ZM81.7639 113.2L83.7799 126.904L85.7959 113.2H88.2199L85.6279 130H81.6919L79.0999 113.2H81.7639ZM89.0978 122.8V120.4H93.8978V122.8H89.0978ZM95.3506 117.232C95.3506 114.544 96.6706 113.008 99.2386 113.008C101.807 113.008 103.127 114.544 103.127 117.232V117.76H100.631V117.064C100.631 115.864 100.151 115.408 99.3106 115.408C98.4706 115.408 97.9906 115.864 97.9906 117.064C97.9906 120.52 103.151 121.168 103.151 125.968C103.151 128.656 101.807 130.192 99.2146 130.192C96.6226 130.192 95.2786 128.656 95.2786 125.968V124.936H97.7746V126.136C97.7746 127.336 98.3026 127.768 99.1426 127.768C99.9826 127.768 100.511 127.336 100.511 126.136C100.511 122.68 95.3506 122.032 95.3506 117.232ZM108.551 113.2C111.191 113.2 112.487 114.664 112.487 117.352V119.536C112.487 122.224 111.191 123.688 108.551 123.688H107.303V130H104.663V113.2H108.551ZM108.551 115.6H107.303V121.288H108.551C109.391 121.288 109.847 120.904 109.847 119.704V117.184C109.847 115.984 109.391 115.6 108.551 115.6ZM113.71 130V113.2H116.35V130H113.71ZM120.92 115.6V120.28H124.544V122.68H120.92V127.6H125.48V130H118.28V113.2H125.48V115.6H120.92ZM127.116 130V113.2H129.756V127.6H134.1V130H127.116ZM137.889 115.6V120.28H141.513V122.68H137.889V127.6H142.449V130H135.249V113.2H142.449V115.6H137.889ZM152.293 130H149.605C149.461 129.568 149.365 129.304 149.365 127.936V125.296C149.365 123.736 148.837 123.16 147.637 123.16H146.725V130H144.085V113.2H148.069C150.805 113.2 151.981 114.472 151.981 117.064V118.384C151.981 120.112 151.429 121.24 150.253 121.792C151.573 122.344 152.005 123.616 152.005 125.368V127.96C152.005 128.776 152.029 129.376 152.293 130ZM147.997 115.6H146.725V120.76H147.757C148.741 120.76 149.341 120.328 149.341 118.984V117.328C149.341 116.128 148.933 115.6 147.997 115.6ZM152.901 130L159.525 113.2H161.805L155.181 130H152.901ZM162.882 130V113.2H165.522V130H162.882ZM173.092 130L169.804 117.832V130H167.428V113.2H170.74L173.452 123.256V113.2H175.804V130H173.092ZM186.353 117.064V126.136C186.353 127.336 186.881 127.792 187.721 127.792C188.561 127.792 189.089 127.336 189.089 126.136V117.064C189.089 115.864 188.561 115.408 187.721 115.408C186.881 115.408 186.353 115.864 186.353 117.064ZM183.713 125.968V117.232C183.713 114.544 185.129 113.008 187.721 113.008C190.313 113.008 191.729 114.544 191.729 117.232V125.968C191.729 128.656 190.313 130.192 187.721 130.192C185.129 130.192 183.713 128.656 183.713 125.968ZM193.444 130V113.2H197.62C200.26 113.2 201.556 114.664 201.556 117.352V125.848C201.556 128.536 200.26 130 197.62 130H193.444ZM197.572 115.6H196.084V127.6H197.572C198.412 127.6 198.916 127.168 198.916 125.968V117.232C198.916 116.032 198.412 115.6 197.572 115.6ZM203.007 127.456H205.551V130H203.007V127.456ZM49.6 139.6V144.28H53.224V146.68H49.6V151.6H54.16V154H46.96V137.2H54.16V139.6H49.6ZM58.4359 146.8V154H55.7959V137.2H58.4359V144.4H61.4359V137.2H64.1239V154H61.4359V146.8H58.4359ZM68.6781 139.6V144.28H72.3021V146.68H68.6781V151.6H73.2381V154H66.0381V137.2H73.2381V139.6H68.6781ZM78.5221 137.2L80.4661 149.128L82.2661 137.2H85.9381V154H83.4421V141.952L81.6181 154H79.1221L77.1541 142.12V154H74.8501V137.2H78.5221ZM93.7144 137.2L96.4024 154H93.7384L93.2824 150.952H90.0424L89.5864 154H87.1624L89.8504 137.2H93.7144ZM91.6504 140.176L90.3784 148.672H92.9224L91.6504 140.176ZM97.6319 154V137.2H100.272V151.6H104.616V154H97.6319ZM105.765 154V137.2H108.405V154H105.765ZM114.295 147.04V144.64H117.991V149.968C117.991 152.656 116.647 154.192 114.055 154.192C111.463 154.192 110.119 152.656 110.119 149.968V141.232C110.119 138.544 111.463 137.008 114.055 137.008C116.647 137.008 117.991 138.544 117.991 141.232V142.864H115.495V141.064C115.495 139.864 114.967 139.408 114.127 139.408C113.287 139.408 112.759 139.864 112.759 141.064V150.136C112.759 151.336 113.287 151.768 114.127 151.768C114.967 151.768 115.495 151.336 115.495 150.136V147.04H114.295ZM122.327 139.6V144.28H125.951V146.68H122.327V151.6H126.887V154H119.687V137.2H126.887V139.6H122.327ZM127.683 154L134.307 137.2H136.587L129.963 154H127.683ZM145.871 154H143.183C143.039 153.568 142.943 153.304 142.943 151.936V149.296C142.943 147.736 142.415 147.16 141.215 147.16H140.303V154H137.663V137.2H141.647C144.383 137.2 145.559 138.472 145.559 141.064V142.384C145.559 144.112 145.007 145.24 143.831 145.792C145.151 146.344 145.583 147.616 145.583 149.368V151.96C145.583 152.776 145.607 153.376 145.871 154ZM141.575 139.6H140.303V144.76H141.335C142.319 144.76 142.919 144.328 142.919 142.984V141.328C142.919 140.128 142.511 139.6 141.575 139.6Z" fill="black"/>
<path d="M143 769C143 757.954 151.954 749 163 749H343V913.982C343 925.027 334.046 933.982 323 933.982H143V769Z" fill="#E60001"/>
<path d="M264.774 793.736L264.752 793.684C264.752 793.684 260.634 784.794 260.077 783.913C259.241 786.452 250.707 792.721 240.494 796.834C234.322 799.32 228.52 799.999 227.275 798.855C224.819 796.603 232.363 790.696 240.985 786.101C246.487 783.169 251.546 781.578 252.94 781.148L252.89 781C230.466 786.16 219.329 797.357 221.203 801.028C223.008 804.558 234.377 803.308 245.4 798.32C249.838 796.308 253.246 794.439 255.522 792.97C255.897 792.726 256.276 792.607 256.644 793.246C257.173 794.153 258.208 796.566 258.237 796.633C259.22 798.78 255.486 803.473 247.083 807.421C239.323 811.063 231.394 812.384 227.904 811.113C227.373 810.922 226.858 810.695 226.201 810.041C225.641 809.486 224.81 808.019 224.543 807.562L224.361 807.657C225.275 809.581 226.152 811.145 226.518 811.522C229.265 814.342 239.638 812.986 249.047 808.653C258.212 804.428 266.486 797.371 264.774 793.736Z" fill="#FF8F8F"/>
<path d="M182.483 851V834.2H185.123V848.6H189.467V851H182.483ZM193.256 836.6V841.28H196.88V843.68H193.256V848.6H197.816V851H190.616V834.2H197.816V836.6H193.256ZM199.452 851V834.2H202.092V851H199.452ZM203.687 838.232C203.687 835.544 205.007 834.008 207.575 834.008C210.143 834.008 211.463 835.544 211.463 838.232V838.76H208.967V838.064C208.967 836.864 208.487 836.408 207.647 836.408C206.807 836.408 206.327 836.864 206.327 838.064C206.327 841.52 211.487 842.168 211.487 846.968C211.487 849.656 210.143 851.192 207.551 851.192C204.959 851.192 203.615 849.656 203.615 846.968V845.936H206.111V847.136C206.111 848.336 206.639 848.768 207.479 848.768C208.319 848.768 208.847 848.336 208.847 847.136C208.847 843.68 203.687 843.032 203.687 838.232ZM212.231 836.6V834.2H220.391V836.6H217.631V851H214.991V836.6H212.231ZM221.434 834.2H224.074V847.16C224.074 848.36 224.602 848.792 225.442 848.792C226.282 848.792 226.81 848.36 226.81 847.16V834.2H229.306V846.992C229.306 849.68 227.962 851.216 225.37 851.216C222.778 851.216 221.434 849.68 221.434 846.992V834.2ZM236.756 851L233.468 838.832V851H231.092V834.2H234.404L237.116 844.256V834.2H239.468V851H236.756ZM245.318 844.04V841.64H249.014V846.968C249.014 849.656 247.67 851.192 245.078 851.192C242.486 851.192 241.142 849.656 241.142 846.968V838.232C241.142 835.544 242.486 834.008 245.078 834.008C247.67 834.008 249.014 835.544 249.014 838.232V839.864H246.518V838.064C246.518 836.864 245.99 836.408 245.15 836.408C244.31 836.408 243.782 836.864 243.782 838.064V847.136C243.782 848.336 244.31 848.768 245.15 848.768C245.99 848.768 246.518 848.336 246.518 847.136V844.04H245.318ZM250.374 838.232C250.374 835.544 251.694 834.008 254.262 834.008C256.83 834.008 258.15 835.544 258.15 838.232V838.76H255.654V838.064C255.654 836.864 255.174 836.408 254.334 836.408C253.494 836.408 253.014 836.864 253.014 838.064C253.014 841.52 258.174 842.168 258.174 846.968C258.174 849.656 256.83 851.192 254.238 851.192C251.646 851.192 250.302 849.656 250.302 846.968V845.936H252.798V847.136C252.798 848.336 253.326 848.768 254.166 848.768C255.006 848.768 255.534 848.336 255.534 847.136C255.534 843.68 250.374 843.032 250.374 838.232ZM259.351 838.232C259.351 835.544 260.671 834.008 263.239 834.008C265.807 834.008 267.127 835.544 267.127 838.232V838.76H264.631V838.064C264.631 836.864 264.151 836.408 263.311 836.408C262.471 836.408 261.991 836.864 261.991 838.064C261.991 841.52 267.151 842.168 267.151 846.968C267.151 849.656 265.807 851.192 263.215 851.192C260.623 851.192 259.279 849.656 259.279 846.968V845.936H261.775V847.136C261.775 848.336 262.303 848.768 263.143 848.768C263.983 848.768 264.511 848.336 264.511 847.136C264.511 843.68 259.351 843.032 259.351 838.232ZM272.551 834.2C275.191 834.2 276.487 835.664 276.487 838.352V840.536C276.487 843.224 275.191 844.688 272.551 844.688H271.303V851H268.663V834.2H272.551ZM272.551 836.6H271.303V842.288H272.551C273.391 842.288 273.847 841.904 273.847 840.704V838.184C273.847 836.984 273.391 836.6 272.551 836.6ZM280.134 838.064V847.136C280.134 848.336 280.662 848.792 281.502 848.792C282.342 848.792 282.87 848.336 282.87 847.136V838.064C282.87 836.864 282.342 836.408 281.502 836.408C280.662 836.408 280.134 836.864 280.134 838.064ZM277.494 846.968V838.232C277.494 835.544 278.91 834.008 281.502 834.008C284.094 834.008 285.51 835.544 285.51 838.232V846.968C285.51 849.656 284.094 851.192 281.502 851.192C278.91 851.192 277.494 849.656 277.494 846.968ZM295.434 851H292.746C292.602 850.568 292.506 850.304 292.506 848.936V846.296C292.506 844.736 291.978 844.16 290.778 844.16H289.866V851H287.226V834.2H291.21C293.946 834.2 295.122 835.472 295.122 838.064V839.384C295.122 841.112 294.57 842.24 293.394 842.792C294.714 843.344 295.146 844.616 295.146 846.368V848.96C295.146 849.776 295.17 850.376 295.434 851ZM291.138 836.6H289.866V841.76H290.898C291.882 841.76 292.482 841.328 292.482 839.984V838.328C292.482 837.128 292.074 836.6 291.138 836.6ZM296.114 836.6V834.2H304.274V836.6H301.514V851H298.874V836.6H296.114Z" fill="white"/>
<path d="M236.88 891.491H249.12M249.12 891.491L243 885.371M249.12 891.491L243 897.61" stroke="#FF8F8F" stroke-width="2" stroke-linecap="round" stroke-linejoin="round"/>
<path d="M359 769C359 757.954 367.954 749 379 749H559V913.982C559 925.027 550.046 933.982 539 933.982H359V769Z" fill="#D8D8D8"/>
<path d="M480.774 793.736L480.752 793.684C480.752 793.684 476.634 784.794 476.077 783.913C475.241 786.452 466.707 792.721 456.494 796.834C450.322 799.32 444.52 799.999 443.275 798.855C440.819 796.603 448.363 790.696 456.985 786.101C462.487 783.169 467.546 781.578 468.94 781.148L468.89 781C446.466 786.16 435.329 797.357 437.203 801.028C439.008 804.558 450.377 803.308 461.4 798.32C465.838 796.308 469.246 794.439 471.522 792.97C471.897 792.726 472.276 792.607 472.644 793.246C473.173 794.153 474.208 796.566 474.237 796.633C475.22 798.78 471.486 803.473 463.083 807.421C455.323 811.063 447.394 812.384 443.904 811.113C443.373 810.922 442.858 810.695 442.201 810.041C441.641 809.486 440.81 808.019 440.543 807.562L440.361 807.657C441.275 809.581 442.152 811.145 442.518 811.522C445.265 814.342 455.638 812.986 465.047 808.653C474.212 804.428 482.486 797.371 480.774 793.736Z" fill="#7F7F7F"/>
<path d="M410.846 834.2C413.582 834.2 414.758 835.472 414.758 838.064V838.664C414.758 840.392 414.23 841.496 413.054 842.048C414.47 842.6 415.022 843.872 415.022 845.648V847.016C415.022 849.608 413.654 851 411.014 851H406.862V834.2H410.846ZM410.678 843.44H409.502V848.6H411.014C411.902 848.6 412.382 848.192 412.382 846.944V845.48C412.382 843.92 411.878 843.44 410.678 843.44ZM410.774 836.6H409.502V841.04H410.534C411.518 841.04 412.118 840.608 412.118 839.264V838.328C412.118 837.128 411.71 836.6 410.774 836.6ZM424.82 851H422.132C421.988 850.568 421.892 850.304 421.892 848.936V846.296C421.892 844.736 421.364 844.16 420.164 844.16H419.252V851H416.612V834.2H420.596C423.332 834.2 424.508 835.472 424.508 838.064V839.384C424.508 841.112 423.956 842.24 422.78 842.792C424.1 843.344 424.532 844.616 424.532 846.368V848.96C424.532 849.776 424.556 850.376 424.82 851ZM420.524 836.6H419.252V841.76H420.284C421.268 841.76 421.868 841.328 421.868 839.984V838.328C421.868 837.128 421.46 836.6 420.524 836.6ZM428.909 836.6V841.28H432.533V843.68H428.909V848.6H433.469V851H426.269V834.2H433.469V836.6H428.909ZM435.105 851V834.2H437.745V851H435.105ZM438.907 836.6V834.2H447.067V836.6H444.307V851H441.667V836.6H438.907ZM450.87 836.6V841.28H454.494V843.68H450.87V848.6H455.43V851H448.23V834.2H455.43V836.6H450.87ZM462.705 851L459.417 838.832V851H457.041V834.2H460.353L463.065 844.256V834.2H465.417V851H462.705ZM466.972 838.232C466.972 835.544 468.292 834.008 470.86 834.008C473.428 834.008 474.748 835.544 474.748 838.232V838.76H472.252V838.064C472.252 836.864 471.772 836.408 470.932 836.408C470.092 836.408 469.612 836.864 469.612 838.064C469.612 841.52 474.772 842.168 474.772 846.968C474.772 849.656 473.428 851.192 470.836 851.192C468.244 851.192 466.9 849.656 466.9 846.968V845.936H469.396V847.136C469.396 848.336 469.924 848.768 470.764 848.768C471.604 848.768 472.132 848.336 472.132 847.136C472.132 843.68 466.972 843.032 466.972 838.232ZM480.172 834.2C482.812 834.2 484.108 835.664 484.108 838.352V840.536C484.108 843.224 482.812 844.688 480.172 844.688H478.924V851H476.284V834.2H480.172ZM480.172 836.6H478.924V842.288H480.172C481.012 842.288 481.468 841.904 481.468 840.704V838.184C481.468 836.984 481.012 836.6 480.172 836.6ZM487.755 838.064V847.136C487.755 848.336 488.283 848.792 489.123 848.792C489.963 848.792 490.491 848.336 490.491 847.136V838.064C490.491 836.864 489.963 836.408 489.123 836.408C488.283 836.408 487.755 836.864 487.755 838.064ZM485.115 846.968V838.232C485.115 835.544 486.531 834.008 489.123 834.008C491.715 834.008 493.131 835.544 493.131 838.232V846.968C493.131 849.656 491.715 851.192 489.123 851.192C486.531 851.192 485.115 849.656 485.115 846.968ZM503.055 851H500.367C500.223 850.568 500.127 850.304 500.127 848.936V846.296C500.127 844.736 499.599 844.16 498.399 844.16H497.487V851H494.847V834.2H498.831C501.567 834.2 502.743 835.472 502.743 838.064V839.384C502.743 841.112 502.191 842.24 501.015 842.792C502.335 843.344 502.767 844.616 502.767 846.368V848.96C502.767 849.776 502.791 850.376 503.055 851ZM498.759 836.6H497.487V841.76H498.519C499.503 841.76 500.103 841.328 500.103 839.984V838.328C500.103 837.128 499.695 836.6 498.759 836.6ZM503.735 836.6V834.2H511.895V836.6H509.135V851H506.495V836.6H503.735Z" fill="black"/>
<path d="M452.88 891.491H465.12M465.12 891.491L459 885.371M465.12 891.491L459 897.61" stroke="#A5A5A5" stroke-width="2" stroke-linecap="round" stroke-linejoin="round"/>
<path d="M199.182 576.04V573.64H202.878V578.968C202.878 581.656 201.534 583.192 198.942 583.192C196.35 583.192 195.006 581.656 195.006 578.968V570.232C195.006 567.544 196.35 566.008 198.942 566.008C201.534 566.008 202.878 567.544 202.878 570.232V571.864H200.382V570.064C200.382 568.864 199.854 568.408 199.014 568.408C198.174 568.408 197.646 568.864 197.646 570.064V579.136C197.646 580.336 198.174 580.768 199.014 580.768C199.854 580.768 200.382 580.336 200.382 579.136V576.04H199.182ZM207.213 568.6V573.28H210.837V575.68H207.213V580.6H211.773V583H204.573V566.2H211.773V568.6H207.213ZM213.073 570.232C213.073 567.544 214.393 566.008 216.961 566.008C219.529 566.008 220.849 567.544 220.849 570.232V570.76H218.353V570.064C218.353 568.864 217.873 568.408 217.033 568.408C216.193 568.408 215.713 568.864 215.713 570.064C215.713 573.52 220.873 574.168 220.873 578.968C220.873 581.656 219.529 583.192 216.937 583.192C214.345 583.192 213.001 581.656 213.001 578.968V577.936H215.497V579.136C215.497 580.336 216.025 580.768 216.865 580.768C217.705 580.768 218.233 580.336 218.233 579.136C218.233 575.68 213.073 575.032 213.073 570.232ZM228.242 566.2L230.93 583H228.266L227.81 579.952H224.57L224.114 583H221.69L224.378 566.2H228.242ZM226.178 569.176L224.906 577.672H227.45L226.178 569.176ZM235.807 566.2L237.751 578.128L239.551 566.2H243.223V583H240.727V570.952L238.903 583H236.407L234.439 571.12V583H232.135V566.2H235.807ZM244.376 568.6V566.2H252.536V568.6H249.776V583H247.136V568.6H244.376ZM256.338 575.8V583H253.698V566.2H256.338V573.4H259.338V566.2H262.026V583H259.338V575.8H256.338ZM266.58 568.6V573.28H270.204V575.68H266.58V580.6H271.14V583H263.94V566.2H271.14V568.6H266.58ZM272.776 583V566.2H275.416V583H272.776ZM276.579 568.6V566.2H284.739V568.6H281.979V583H279.339V568.6H276.579ZM285.901 583V566.2H288.541V580.6H292.885V583H285.901ZM294.034 583V566.2H296.674V583H294.034ZM303.765 576.736H306.261V578.968C306.261 581.656 304.917 583.192 302.325 583.192C299.733 583.192 298.389 581.656 298.389 578.968V570.232C298.389 567.544 299.733 566.008 302.325 566.008C304.917 566.008 306.261 567.544 306.261 570.232V571.864H303.765V570.064C303.765 568.864 303.237 568.408 302.397 568.408C301.557 568.408 301.029 568.864 301.029 570.064V579.136C301.029 580.336 301.557 580.768 302.397 580.768C303.237 580.768 303.765 580.336 303.765 579.136V576.736ZM310.502 575.8V583H307.862V566.2H310.502V573.4H313.502V566.2H316.19V583H313.502V575.8H310.502ZM320.745 568.6V573.28H324.369V575.68H320.745V580.6H325.305V583H318.105V566.2H325.305V568.6H320.745ZM326.604 570.232C326.604 567.544 327.924 566.008 330.492 566.008C333.06 566.008 334.38 567.544 334.38 570.232V570.76H331.884V570.064C331.884 568.864 331.404 568.408 330.564 568.408C329.724 568.408 329.244 568.864 329.244 570.064C329.244 573.52 334.404 574.168 334.404 578.968C334.404 581.656 333.06 583.192 330.468 583.192C327.876 583.192 326.532 581.656 326.532 578.968V577.936H329.028V579.136C329.028 580.336 329.556 580.768 330.396 580.768C331.236 580.768 331.764 580.336 331.764 579.136C331.764 575.68 326.604 575.032 326.604 570.232ZM348.007 566.2L350.695 583H348.031L347.575 579.952H344.335L343.879 583H341.455L344.143 566.2H348.007ZM345.943 569.176L344.671 577.672H347.215L345.943 569.176ZM351.805 566.2H354.445V579.16C354.445 580.36 354.973 580.792 355.813 580.792C356.653 580.792 357.181 580.36 357.181 579.16V566.2H359.677V578.992C359.677 581.68 358.333 583.216 355.741 583.216C353.149 583.216 351.805 581.68 351.805 578.992V566.2ZM361.151 570.232C361.151 567.544 362.471 566.008 365.039 566.008C367.607 566.008 368.927 567.544 368.927 570.232V570.76H366.431V570.064C366.431 568.864 365.951 568.408 365.111 568.408C364.271 568.408 363.791 568.864 363.791 570.064C363.791 573.52 368.951 574.168 368.951 578.968C368.951 581.656 367.607 583.192 365.015 583.192C362.423 583.192 361.079 581.656 361.079 578.968V577.936H363.575V579.136C363.575 580.336 364.103 580.768 364.943 580.768C365.783 580.768 366.311 580.336 366.311 579.136C366.311 575.68 361.151 575.032 361.151 570.232ZM374.448 566.2C377.184 566.2 378.36 567.472 378.36 570.064V570.664C378.36 572.392 377.832 573.496 376.656 574.048C378.072 574.6 378.624 575.872 378.624 577.648V579.016C378.624 581.608 377.256 583 374.616 583H370.464V566.2H374.448ZM374.28 575.44H373.104V580.6H374.616C375.504 580.6 375.984 580.192 375.984 578.944V577.48C375.984 575.92 375.48 575.44 374.28 575.44ZM374.376 568.6H373.104V573.04H374.136C375.12 573.04 375.72 572.608 375.72 571.264V570.328C375.72 569.128 375.312 568.6 374.376 568.6ZM380.214 583V566.2H382.854V583H380.214ZM384.784 583V566.2H387.424V580.6H391.768V583H384.784ZM392.917 583V566.2H397.093C399.733 566.2 401.029 567.664 401.029 570.352V578.848C401.029 581.536 399.733 583 397.093 583H392.917ZM397.045 568.6H395.557V580.6H397.045C397.885 580.6 398.389 580.168 398.389 578.968V570.232C398.389 569.032 397.885 568.6 397.045 568.6ZM402.594 566.2H405.234V579.16C405.234 580.36 405.762 580.792 406.602 580.792C407.442 580.792 407.97 580.36 407.97 579.16V566.2H410.466V578.992C410.466 581.68 409.122 583.216 406.53 583.216C403.938 583.216 402.594 581.68 402.594 578.992V566.2ZM417.916 583L414.628 570.832V583H412.252V566.2H415.564L418.276 576.256V566.2H420.628V583H417.916ZM426.479 576.04V573.64H430.175V578.968C430.175 581.656 428.831 583.192 426.239 583.192C423.647 583.192 422.303 581.656 422.303 578.968V570.232C422.303 567.544 423.647 566.008 426.239 566.008C428.831 566.008 430.175 567.544 430.175 570.232V571.864H427.679V570.064C427.679 568.864 427.151 568.408 426.311 568.408C425.471 568.408 424.943 568.864 424.943 570.064V579.136C424.943 580.336 425.471 580.768 426.311 580.768C427.151 580.768 427.679 580.336 427.679 579.136V576.04H426.479ZM431.534 570.232C431.534 567.544 432.854 566.008 435.422 566.008C437.99 566.008 439.31 567.544 439.31 570.232V570.76H436.814V570.064C436.814 568.864 436.334 568.408 435.494 568.408C434.654 568.408 434.174 568.864 434.174 570.064C434.174 573.52 439.334 574.168 439.334 578.968C439.334 581.656 437.99 583.192 435.398 583.192C432.806 583.192 431.462 581.656 431.462 578.968V577.936H433.958V579.136C433.958 580.336 434.486 580.768 435.326 580.768C436.166 580.768 436.694 580.336 436.694 579.136C436.694 575.68 431.534 575.032 431.534 570.232ZM446.871 583L444.303 576.304L443.487 577.84V583H440.847V566.2H443.487V573.52L446.943 566.2H449.583L445.911 573.688L449.583 583H446.871ZM453.044 570.064V579.136C453.044 580.336 453.572 580.792 454.412 580.792C455.252 580.792 455.78 580.336 455.78 579.136V570.064C455.78 568.864 455.252 568.408 454.412 568.408C453.572 568.408 453.044 568.864 453.044 570.064ZM450.404 578.968V570.232C450.404 567.544 451.82 566.008 454.412 566.008C457.004 566.008 458.42 567.544 458.42 570.232V578.968C458.42 581.656 457.004 583.192 454.412 583.192C451.82 583.192 450.404 581.656 450.404 578.968ZM465.776 583L462.488 570.832V583H460.112V566.2H463.424L466.136 576.256V566.2H468.488V583H465.776ZM470.21 566.2H477.698V568.552L472.682 580.6H477.698V583H469.97V580.648L474.986 568.6H470.21V566.2ZM481.901 568.6V573.28H485.525V575.68H481.901V580.6H486.461V583H479.261V566.2H486.461V568.6H481.901ZM491.985 566.2C494.625 566.2 495.921 567.664 495.921 570.352V572.536C495.921 575.224 494.625 576.688 491.985 576.688H490.737V583H488.097V566.2H491.985ZM491.985 568.6H490.737V574.288H491.985C492.825 574.288 493.281 573.904 493.281 572.704V570.184C493.281 568.984 492.825 568.6 491.985 568.6ZM496.376 568.6V566.2H504.536V568.6H501.776V583H499.136V568.6H496.376Z" fill="black"/>
<path d="M304.437 590.2H305.253V592.36H304.605C303.765 592.36 303.381 592.672 303.381 593.872V603.328C303.381 604.528 303.765 604.84 304.605 604.84H305.253V607H304.437C301.797 607 300.741 606.016 300.741 603.328V593.872C300.741 591.184 301.797 590.2 304.437 590.2ZM313.483 607L312.523 598.048L311.563 607H307.939L306.067 590.2H308.635L310.051 603.448L311.323 590.2H313.867L315.187 603.544L316.555 590.2H318.859L316.987 607H313.483ZM323.838 590.2L325.782 602.128L327.582 590.2H331.254V607H328.758V594.952L326.934 607H324.438L322.47 595.12V607H320.166V590.2H323.838ZM333.055 599.8V597.4H337.855V599.8H333.055ZM339.644 607V590.2H342.284V604.6H346.628V607H339.644ZM350.416 592.6V597.28H354.04V599.68H350.416V604.6H354.976V607H347.776V590.2H354.976V592.6H350.416ZM360.572 600.04V597.64H364.268V602.968C364.268 605.656 362.924 607.192 360.332 607.192C357.74 607.192 356.396 605.656 356.396 602.968V594.232C356.396 591.544 357.74 590.008 360.332 590.008C362.924 590.008 364.268 591.544 364.268 594.232V595.864H361.772V594.064C361.772 592.864 361.244 592.408 360.404 592.408C359.564 592.408 359.036 592.864 359.036 594.064V603.136C359.036 604.336 359.564 604.768 360.404 604.768C361.244 604.768 361.772 604.336 361.772 603.136V600.04H360.572ZM371.796 590.2L374.484 607H371.82L371.364 603.952H368.124L367.668 607H365.244L367.932 590.2H371.796ZM369.732 593.176L368.46 601.672H371.004L369.732 593.176ZM380.85 600.736H383.346V602.968C383.346 605.656 382.002 607.192 379.41 607.192C376.818 607.192 375.474 605.656 375.474 602.968V594.232C375.474 591.544 376.818 590.008 379.41 590.008C382.002 590.008 383.346 591.544 383.346 594.232V595.864H380.85V594.064C380.85 592.864 380.322 592.408 379.482 592.408C378.642 592.408 378.114 592.864 378.114 594.064V603.136C378.114 604.336 378.642 604.768 379.482 604.768C380.322 604.768 380.85 604.336 380.85 603.136V600.736ZM387.162 607V601.432L383.826 590.2H386.586L388.602 597.856L390.618 590.2H393.138L389.802 601.432V607H387.162ZM393.747 590.2H394.563C397.203 590.2 398.259 591.184 398.259 593.872V603.328C398.259 606.016 397.203 607 394.563 607H393.747V604.84H394.395C395.235 604.84 395.619 604.528 395.619 603.328V593.872C395.619 592.672 395.235 592.36 394.395 592.36H393.747V590.2Z" fill="#E60001"/>
<path d="M275.488 511H272.8C272.656 510.568 272.56 510.304 272.56 508.936V506.296C272.56 504.736 272.032 504.16 270.832 504.16H269.92V511H267.28V494.2H271.264C274 494.2 275.176 495.472 275.176 498.064V499.384C275.176 501.112 274.624 502.24 273.448 502.792C274.768 503.344 275.2 504.616 275.2 506.368V508.96C275.2 509.776 275.224 510.376 275.488 511ZM271.192 496.6H269.92V501.76H270.952C271.936 501.76 272.536 501.328 272.536 499.984V498.328C272.536 497.128 272.128 496.6 271.192 496.6ZM279.577 496.6V501.28H283.201V503.68H279.577V508.6H284.137V511H276.937V494.2H284.137V496.6H279.577ZM289.733 504.04V501.64H293.429V506.968C293.429 509.656 292.085 511.192 289.493 511.192C286.901 511.192 285.557 509.656 285.557 506.968V498.232C285.557 495.544 286.901 494.008 289.493 494.008C292.085 494.008 293.429 495.544 293.429 498.232V499.864H290.933V498.064C290.933 496.864 290.405 496.408 289.565 496.408C288.725 496.408 288.197 496.864 288.197 498.064V507.136C288.197 508.336 288.725 508.768 289.565 508.768C290.405 508.768 290.933 508.336 290.933 507.136V504.04H289.733ZM295.124 511V494.2H297.764V511H295.124ZM302.118 498.064V507.136C302.118 508.336 302.646 508.792 303.486 508.792C304.326 508.792 304.854 508.336 304.854 507.136V498.064C304.854 496.864 304.326 496.408 303.486 496.408C302.646 496.408 302.118 496.864 302.118 498.064ZM299.478 506.968V498.232C299.478 495.544 300.894 494.008 303.486 494.008C306.078 494.008 307.494 495.544 307.494 498.232V506.968C307.494 509.656 306.078 511.192 303.486 511.192C300.894 511.192 299.478 509.656 299.478 506.968ZM314.85 511L311.562 498.832V511H309.186V494.2H312.498L315.21 504.256V494.2H317.562V511H314.85ZM325.308 494.2L327.996 511H325.332L324.876 507.952H321.636L321.18 511H318.756L321.444 494.2H325.308ZM323.244 497.176L321.972 505.672H324.516L323.244 497.176ZM329.226 511V494.2H331.866V508.6H336.21V511H329.226ZM339.998 496.6V501.28H343.622V503.68H339.998V508.6H344.558V511H337.358V494.2H344.558V496.6H339.998ZM355.777 494.2L358.465 511H355.801L355.345 507.952H352.105L351.649 511H349.225L351.913 494.2H355.777ZM353.713 497.176L352.441 505.672H354.985L353.713 497.176ZM359.574 494.2H362.214V507.16C362.214 508.36 362.742 508.792 363.582 508.792C364.422 508.792 364.95 508.36 364.95 507.16V494.2H367.446V506.992C367.446 509.68 366.102 511.216 363.51 511.216C360.918 511.216 359.574 509.68 359.574 506.992V494.2ZM368.921 498.232C368.921 495.544 370.241 494.008 372.809 494.008C375.377 494.008 376.697 495.544 376.697 498.232V498.76H374.201V498.064C374.201 496.864 373.721 496.408 372.881 496.408C372.041 496.408 371.561 496.864 371.561 498.064C371.561 501.52 376.721 502.168 376.721 506.968C376.721 509.656 375.377 511.192 372.785 511.192C370.193 511.192 368.849 509.656 368.849 506.968V505.936H371.345V507.136C371.345 508.336 371.873 508.768 372.713 508.768C373.553 508.768 374.081 508.336 374.081 507.136C374.081 503.68 368.921 503.032 368.921 498.232ZM382.217 494.2C384.953 494.2 386.129 495.472 386.129 498.064V498.664C386.129 500.392 385.601 501.496 384.425 502.048C385.841 502.6 386.393 503.872 386.393 505.648V507.016C386.393 509.608 385.025 511 382.385 511H378.233V494.2H382.217ZM382.049 503.44H380.873V508.6H382.385C383.273 508.6 383.753 508.192 383.753 506.944V505.48C383.753 503.92 383.249 503.44 382.049 503.44ZM382.145 496.6H380.873V501.04H381.905C382.889 501.04 383.489 500.608 383.489 499.264V498.328C383.489 497.128 383.081 496.6 382.145 496.6ZM387.983 511V494.2H390.623V511H387.983ZM392.554 511V494.2H395.194V508.6H399.538V511H392.554ZM400.687 511V494.2H404.863C407.503 494.2 408.799 495.664 408.799 498.352V506.848C408.799 509.536 407.503 511 404.863 511H400.687ZM404.815 496.6H403.327V508.6H404.815C405.655 508.6 406.159 508.168 406.159 506.968V498.232C406.159 497.032 405.655 496.6 404.815 496.6ZM410.363 494.2H413.003V507.16C413.003 508.36 413.531 508.792 414.371 508.792C415.211 508.792 415.739 508.36 415.739 507.16V494.2H418.235V506.992C418.235 509.68 416.891 511.216 414.299 511.216C411.707 511.216 410.363 509.68 410.363 506.992V494.2ZM425.686 511L422.398 498.832V511H420.022V494.2H423.334L426.046 504.256V494.2H428.398V511H425.686ZM434.248 504.04V501.64H437.944V506.968C437.944 509.656 436.6 511.192 434.008 511.192C431.416 511.192 430.072 509.656 430.072 506.968V498.232C430.072 495.544 431.416 494.008 434.008 494.008C436.6 494.008 437.944 495.544 437.944 498.232V499.864H435.448V498.064C435.448 496.864 434.92 496.408 434.08 496.408C433.24 496.408 432.712 496.864 432.712 498.064V507.136C432.712 508.336 433.24 508.768 434.08 508.768C434.92 508.768 435.448 508.336 435.448 507.136V504.04H434.248Z" fill="black"/>
<path d="M134 642.833C132.527 642.833 131.333 644.027 131.333 645.5C131.333 646.973 132.527 648.167 134 648.167C135.473 648.167 136.667 646.973 136.667 645.5C136.667 644.027 135.473 642.833 134 642.833ZM134 460.333C132.527 460.333 131.333 461.527 131.333 463C131.333 464.473 132.527 465.667 134 465.667C135.473 465.667 136.667 464.473 136.667 463C136.667 461.527 135.473 460.333 134 460.333ZM133.5 464.521L133.5 465.021L134.5 465.021L134.5 464.521L134 464.521L133.5 464.521ZM134.5 467.562L134.5 467.062L133.5 467.063L133.5 467.563L134 467.562L134.5 467.562ZM133.5 470.604L133.5 471.104L134.5 471.104L134.5 470.604L134 470.604L133.5 470.604ZM134.5 473.646L134.5 473.146L133.5 473.146L133.5 473.646L134 473.646L134.5 473.646ZM133.5 476.688L133.5 477.188L134.5 477.188L134.5 476.688L134 476.688L133.5 476.688ZM134.5 479.729L134.5 479.229L133.5 479.229L133.5 479.729L134 479.729L134.5 479.729ZM133.5 482.771L133.5 483.271L134.5 483.271L134.5 482.771L134 482.771L133.5 482.771ZM134.5 485.812L134.5 485.312L133.5 485.313L133.5 485.813L134 485.813L134.5 485.812ZM133.5 488.854L133.5 489.354L134.5 489.354L134.5 488.854L134 488.854L133.5 488.854ZM134.5 491.896L134.5 491.396L133.5 491.396L133.5 491.896L134 491.896L134.5 491.896ZM133.5 494.937L133.5 495.437L134.5 495.437L134.5 494.937L134 494.937L133.5 494.937ZM134.5 497.979L134.5 497.479L133.5 497.479L133.5 497.979L134 497.979L134.5 497.979ZM133.5 501.021L133.5 501.521L134.5 501.521L134.5 501.021L134 501.021L133.5 501.021ZM134.5 504.062L134.5 503.562L133.5 503.563L133.5 504.063L134 504.063L134.5 504.062ZM133.5 507.104L133.5 507.604L134.5 507.604L134.5 507.104L134 507.104L133.5 507.104ZM134.5 510.146L134.5 509.646L133.5 509.646L133.5 510.146L134 510.146L134.5 510.146ZM133.5 513.188L133.5 513.688L134.5 513.688L134.5 513.188L134 513.188L133.5 513.188ZM134.5 516.229L134.5 515.729L133.5 515.729L133.5 516.229L134 516.229L134.5 516.229ZM133.5 519.271L133.5 519.771L134.5 519.771L134.5 519.271L134 519.271L133.5 519.271ZM134.5 522.313L134.5 521.813L133.5 521.813L133.5 522.313L134 522.313L134.5 522.313ZM133.5 525.354L133.5 525.854L134.5 525.854L134.5 525.354L134 525.354L133.5 525.354ZM134.5 528.396L134.5 527.896L133.5 527.896L133.5 528.396L134 528.396L134.5 528.396ZM133.5 531.438L133.5 531.938L134.5 531.938L134.5 531.438L134 531.438L133.5 531.438ZM134.5 534.479L134.5 533.979L133.5 533.979L133.5 534.479L134 534.479L134.5 534.479ZM133.5 537.521L133.5 538.021L134.5 538.021L134.5 537.521L134 537.521L133.5 537.521ZM134.5 540.562L134.5 540.062L133.5 540.063L133.5 540.563L134 540.563L134.5 540.562ZM133.5 543.604L133.5 544.104L134.5 544.104L134.5 543.604L134 543.604L133.5 543.604ZM134.5 546.646L134.5 546.146L133.5 546.146L133.5 546.646L134 546.646L134.5 546.646ZM133.5 549.687L133.5 550.187L134.5 550.187L134.5 549.687L134 549.687L133.5 549.687ZM134.5 552.729L134.5 552.229L133.5 552.229L133.5 552.729L134 552.729L134.5 552.729ZM133.5 555.771L133.5 556.271L134.5 556.271L134.5 555.771L134 555.771L133.5 555.771ZM134.5 558.812L134.5 558.312L133.5 558.312L133.5 558.812L134 558.812L134.5 558.812ZM133.5 561.854L133.5 562.354L134.5 562.354L134.5 561.854L134 561.854L133.5 561.854ZM134.5 564.896L134.5 564.396L133.5 564.396L133.5 564.896L134 564.896L134.5 564.896ZM133.5 567.937L133.5 568.437L134.5 568.437L134.5 567.937L134 567.937L133.5 567.937ZM134.5 570.979L134.5 570.479L133.5 570.479L133.5 570.979L134 570.979L134.5 570.979ZM133.5 574.021L133.5 574.521L134.5 574.521L134.5 574.021L134 574.021L133.5 574.021ZM134.5 577.062L134.5 576.562L133.5 576.562L133.5 577.062L134 577.062L134.5 577.062ZM133.5 580.104L133.5 580.604L134.5 580.604L134.5 580.104L134 580.104L133.5 580.104ZM134.5 583.146L134.5 582.646L133.5 582.646L133.5 583.146L134 583.146L134.5 583.146ZM133.5 586.187L133.5 586.687L134.5 586.687L134.5 586.187L134 586.187L133.5 586.187ZM134.5 589.229L134.5 588.729L133.5 588.729L133.5 589.229L134 589.229L134.5 589.229ZM133.5 592.271L133.5 592.771L134.5 592.771L134.5 592.271L134 592.271L133.5 592.271ZM134.5 595.312L134.5 594.812L133.5 594.812L133.5 595.312L134 595.312L134.5 595.312ZM133.5 598.354L133.5 598.854L134.5 598.854L134.5 598.354L134 598.354L133.5 598.354ZM134.5 601.396L134.5 600.896L133.5 600.896L133.5 601.396L134 601.396L134.5 601.396ZM133.5 604.437L133.5 604.937L134.5 604.937L134.5 604.437L134 604.437L133.5 604.437ZM134.5 607.479L134.5 606.979L133.5 606.979L133.5 607.479L134 607.479L134.5 607.479ZM133.5 610.521L133.5 611.021L134.5 611.021L134.5 610.521L134 610.521L133.5 610.521ZM134.5 613.562L134.5 613.062L133.5 613.063L133.5 613.563L134 613.563L134.5 613.562ZM133.5 616.604L133.5 617.104L134.5 617.104L134.5 616.604L134 616.604L133.5 616.604ZM134.5 619.646L134.5 619.146L133.5 619.146L133.5 619.646L134 619.646L134.5 619.646ZM133.5 622.688L133.5 623.188L134.5 623.188L134.5 622.688L134 622.688L133.5 622.688ZM134.5 625.729L134.5 625.229L133.5 625.229L133.5 625.729L134 625.729L134.5 625.729ZM133.5 628.771L133.5 629.271L134.5 629.271L134.5 628.771L134 628.771L133.5 628.771ZM134.5 631.813L134.5 631.313L133.5 631.313L133.5 631.813L134 631.813L134.5 631.813ZM133.5 634.854L133.5 635.354L134.5 635.354L134.5 634.854L134 634.854L133.5 634.854ZM134.5 637.896L134.5 637.396L133.5 637.396L133.5 637.896L134 637.896L134.5 637.896ZM133.5 640.938L133.5 641.438L134.5 641.438L134.5 640.938L134 640.938L133.5 640.938ZM134.5 643.979L134.5 643.479L133.5 643.479L133.5 643.979L134 643.979L134.5 643.979ZM134 463H133.5L133.5 464.521L134 464.521L134.5 464.521L134.5 463H134ZM134 467.562L133.5 467.563L133.5 470.604L134 470.604L134.5 470.604L134.5 467.562L134 467.562ZM134 473.646L133.5 473.646L133.5 476.688L134 476.688L134.5 476.688L134.5 473.646L134 473.646ZM134 479.729L133.5 479.729L133.5 482.771L134 482.771L134.5 482.771L134.5 479.729L134 479.729ZM134 485.813L133.5 485.813L133.5 488.854L134 488.854L134.5 488.854L134.5 485.812L134 485.813ZM134 491.896L133.5 491.896L133.5 494.937L134 494.937L134.5 494.937L134.5 491.896L134 491.896ZM134 497.979L133.5 497.979L133.5 501.021L134 501.021L134.5 501.021L134.5 497.979L134 497.979ZM134 504.063L133.5 504.063L133.5 507.104L134 507.104L134.5 507.104L134.5 504.062L134 504.063ZM134 510.146L133.5 510.146L133.5 513.188L134 513.188L134.5 513.188L134.5 510.146L134 510.146ZM134 516.229L133.5 516.229L133.5 519.271L134 519.271L134.5 519.271L134.5 516.229L134 516.229ZM134 522.313L133.5 522.313L133.5 525.354L134 525.354L134.5 525.354L134.5 522.313L134 522.313ZM134 528.396L133.5 528.396L133.5 531.438L134 531.438L134.5 531.438L134.5 528.396L134 528.396ZM134 534.479L133.5 534.479L133.5 537.521L134 537.521L134.5 537.521L134.5 534.479L134 534.479ZM134 540.563L133.5 540.563L133.5 543.604L134 543.604L134.5 543.604L134.5 540.562L134 540.563ZM134 546.646L133.5 546.646L133.5 549.687L134 549.687L134.5 549.687L134.5 546.646L134 546.646ZM134 552.729L133.5 552.729L133.5 555.771L134 555.771L134.5 555.771L134.5 552.729L134 552.729ZM134 558.812L133.5 558.812L133.5 561.854L134 561.854L134.5 561.854L134.5 558.812L134 558.812ZM134 564.896L133.5 564.896L133.5 567.937L134 567.937L134.5 567.937L134.5 564.896L134 564.896ZM134 570.979L133.5 570.979L133.5 574.021L134 574.021L134.5 574.021L134.5 570.979L134 570.979ZM134 577.062L133.5 577.062L133.5 580.104L134 580.104L134.5 580.104L134.5 577.062L134 577.062ZM134 583.146L133.5 583.146L133.5 586.187L134 586.187L134.5 586.187L134.5 583.146L134 583.146ZM134 589.229L133.5 589.229L133.5 592.271L134 592.271L134.5 592.271L134.5 589.229L134 589.229ZM134 595.312L133.5 595.312L133.5 598.354L134 598.354L134.5 598.354L134.5 595.312L134 595.312ZM134 601.396L133.5 601.396L133.5 604.437L134 604.437L134.5 604.437L134.5 601.396L134 601.396ZM134 607.479L133.5 607.479L133.5 610.521L134 610.521L134.5 610.521L134.5 607.479L134 607.479ZM134 613.563L133.5 613.563L133.5 616.604L134 616.604L134.5 616.604L134.5 613.562L134 613.563ZM134 619.646L133.5 619.646L133.5 622.688L134 622.688L134.5 622.688L134.5 619.646L134 619.646ZM134 625.729L133.5 625.729L133.5 628.771L134 628.771L134.5 628.771L134.5 625.729L134 625.729ZM134 631.813L133.5 631.813L133.5 634.854L134 634.854L134.5 634.854L134.5 631.813L134 631.813ZM134 637.896L133.5 637.896L133.5 640.938L134 640.938L134.5 640.938L134.5 637.896L134 637.896ZM134 643.979L133.5 643.979L133.5 645.5L134 645.5L134.5 645.5L134.5 643.979L134 643.979Z" fill="#FF5756"/>
<path d="M107.232 582.235C104.544 582.235 103.008 580.915 103.008 578.347C103.008 575.779 104.544 574.459 107.232 574.459H107.76V576.955H107.064C105.864 576.955 105.408 577.435 105.408 578.275C105.408 579.115 105.864 579.595 107.064 579.595C110.52 579.595 111.168 574.435 115.968 574.435C118.656 574.435 120.192 575.779 120.192 578.371C120.192 580.963 118.656 582.307 115.968 582.307H114.936V579.811H116.136C117.336 579.811 117.768 579.283 117.768 578.443C117.768 577.603 117.336 577.075 116.136 577.075C112.68 577.075 112.032 582.235 107.232 582.235ZM120 564.715V567.403C119.568 567.547 119.304 567.643 117.936 567.643H115.296C113.736 567.643 113.16 568.171 113.16 569.371V570.283H120V572.923H103.2V568.939C103.2 566.203 104.472 565.027 107.064 565.027H108.384C110.112 565.027 111.24 565.579 111.792 566.755C112.344 565.435 113.616 565.003 115.368 565.003H117.96C118.776 565.003 119.376 564.979 120 564.715ZM105.6 569.011V570.283H110.76V569.251C110.76 568.267 110.328 567.667 108.984 567.667H107.328C106.128 567.667 105.6 568.075 105.6 569.011ZM112.8 563.387H110.4V558.587H112.8V563.387ZM120 550.076L111.048 551.036L120 551.996V555.62L103.2 557.492V554.924L116.448 553.508L103.2 552.236V549.692L116.544 548.372L103.2 547.004V544.7L120 546.572V550.076ZM105.6 540.728H110.28V537.104H112.68V540.728H117.6V536.168H120V543.368H103.2V536.168H105.6V540.728ZM113.04 530.572H110.64V526.876H115.968C118.656 526.876 120.192 528.22 120.192 530.812C120.192 533.404 118.656 534.748 115.968 534.748H107.232C104.544 534.748 103.008 533.404 103.008 530.812C103.008 528.22 104.544 526.876 107.232 526.876H108.864V529.372H107.064C105.864 529.372 105.408 529.9 105.408 530.74C105.408 531.58 105.864 532.108 107.064 532.108H116.136C117.336 532.108 117.768 531.58 117.768 530.74C117.768 529.9 117.336 529.372 116.136 529.372H113.04V530.572Z" fill="black"/>
</svg>
