<svg width="256" height="32" viewBox="0 0 256 32" fill="none" xmlns="http://www.w3.org/2000/svg">
<g clip-path="url(#clip0_3014_668)">
<path d="M68.5349 18.3132C68.5349 18.9903 68.403 19.5919 68.139 20.1216C67.8759 20.6492 67.5098 21.0971 67.0437 21.4627C66.575 21.8273 66.0202 22.1101 65.377 22.3054C64.7363 22.5018 64.0349 22.6007 63.277 22.6007C62.5322 22.6007 61.8265 22.5122 61.1557 22.3367C60.4854 22.1596 59.7849 21.9903 59.0557 21.8273V17.4799H59.3197L60.1921 19.5111C60.5177 19.769 60.9202 20.0304 61.3994 20.2934C61.8797 20.558 62.5193 20.6971 63.3187 20.7101C63.6573 20.7101 63.9655 20.6528 64.2521 20.5382C64.5359 20.4226 64.7859 20.2716 65.0035 20.0799C65.2197 19.8914 65.389 19.6736 65.5098 19.4304C65.6322 19.1856 65.6921 18.9434 65.6921 18.6997C65.6921 18.2518 65.5713 17.8653 65.3275 17.5408C65.0843 17.2153 64.7901 16.934 64.4447 16.6981C64.0983 16.4621 63.7275 16.2575 63.3291 16.0888C62.9281 15.9189 62.5802 15.7533 62.2833 15.5919C61.8499 15.3741 61.4437 15.1388 61.0635 14.8799C60.6869 14.6236 60.3483 14.3315 60.0489 14.006C59.751 13.6815 59.5193 13.3085 59.3499 12.8893C59.1806 12.4679 59.0947 11.9945 59.0947 11.4653C59.0947 10.9241 59.2171 10.4189 59.4619 9.95227C59.7041 9.48507 60.0333 9.082 60.4463 8.74293C60.8587 8.4044 61.3395 8.14133 61.8863 7.95027C62.4343 7.7616 63.0073 7.66586 63.6026 7.66586C64.0087 7.66586 64.3734 7.6836 64.6989 7.71786C65.0245 7.75066 65.3379 7.8028 65.6426 7.86947C65.9463 7.9372 66.2587 8.01587 66.575 8.1028C66.8942 8.19133 67.2363 8.28973 67.601 8.3976V12.4007H67.3369L66.4254 10.3888C66.1401 10.1039 65.7614 9.86533 65.2859 9.66786C64.8135 9.47213 64.2171 9.40693 63.5021 9.47467C63.2702 9.50227 63.0505 9.5632 62.8406 9.65747C62.6311 9.75227 62.4437 9.87413 62.2833 10.0236C62.1207 10.1731 61.9931 10.3449 61.8969 10.5424C61.8015 10.7383 61.7546 10.9445 61.7546 11.1612C61.7546 11.3913 61.8187 11.6085 61.9473 11.8121C62.0775 12.0148 62.2379 12.1971 62.4343 12.3601C62.6311 12.5227 62.8431 12.6716 63.075 12.8075C63.3041 12.9435 63.5218 13.0585 63.7223 13.1523C64.2781 13.4512 64.8447 13.7419 65.4187 14.0268C65.9942 14.3112 66.5114 14.6455 66.9723 15.032C67.4317 15.4184 67.8067 15.8716 68.0973 16.3935C68.389 16.9148 68.5349 17.5539 68.5349 18.3132Z" fill="#ED1D24"/>
<path d="M88.3741 9.00746L85.1673 22.2752H82.4876L79.9693 12.8893L77.0475 22.2752H74.3679L71.6684 9.00746L69.8193 8.21533V7.97213H76.296V8.21533L74.7532 9.00746L75.9704 18.3325L79.0356 7.97213H81.2075L83.9887 18.3742L85.6933 9.00746L84.11 8.21533V7.97213H90.2012V8.21533L88.3741 9.00746Z" fill="#ED1D24"/>
<path d="M92.0166 22.2752V22.0111L93.8015 21.2387V9.00746L92.0166 8.21533V7.97213H98.4317V8.21533L96.6453 9.00746V21.2387L98.4317 22.0111V22.2752H92.0166Z" fill="#ED1D24"/>
<path d="M109.916 18.3132C109.916 18.9903 109.784 19.5919 109.519 20.1216C109.256 20.6492 108.891 21.0971 108.424 21.4627C107.957 21.8273 107.403 22.1101 106.759 22.3054C106.116 22.5018 105.416 22.6007 104.659 22.6007C103.915 22.6007 103.207 22.5122 102.537 22.3367C101.868 22.1596 101.167 21.9903 100.436 21.8273V17.4799H100.7L101.572 19.5111C101.896 19.769 102.3 20.0304 102.779 20.2934C103.261 20.558 103.899 20.6971 104.698 20.7101C105.037 20.7101 105.348 20.6528 105.632 20.5382C105.917 20.4226 106.167 20.2716 106.384 20.0799C106.6 19.8914 106.769 19.6736 106.891 19.4304C107.014 19.1856 107.075 18.9434 107.075 18.6997C107.075 18.2518 106.951 17.8653 106.707 17.5408C106.465 17.2153 106.171 16.934 105.825 16.6981C105.481 16.4621 105.108 16.2575 104.709 16.0888C104.309 15.9189 103.96 15.7533 103.665 15.5919C103.23 15.3741 102.825 15.1388 102.447 14.8799C102.066 14.6236 101.727 14.3315 101.431 14.006C101.133 13.6815 100.9 13.3085 100.731 12.8893C100.56 12.4679 100.477 11.9945 100.477 11.4653C100.477 10.9241 100.6 10.4189 100.843 9.95227C101.085 9.48507 101.412 9.082 101.826 8.74293C102.239 8.4044 102.718 8.14133 103.269 7.95027C103.817 7.7616 104.386 7.66586 104.985 7.66586C105.387 7.66586 105.754 7.6836 106.079 7.71786C106.404 7.75066 106.718 7.8028 107.022 7.86947C107.329 7.9372 107.64 8.01587 107.957 8.1028C108.274 8.19133 108.616 8.28973 108.982 8.3976V12.4007H108.719L107.805 10.3888C107.521 10.1039 107.141 9.86533 106.667 9.66786C106.194 9.47213 105.598 9.40693 104.881 9.47467C104.652 9.50227 104.431 9.5632 104.222 9.65747C104.011 9.75227 103.827 9.87413 103.665 10.0236C103.502 10.1731 103.371 10.3449 103.278 10.5424C103.184 10.7383 103.136 10.9445 103.136 11.1612C103.136 11.3913 103.2 11.6085 103.33 11.8121C103.456 12.0148 103.62 12.1971 103.817 12.3601C104.011 12.5227 104.225 12.6716 104.455 12.8075C104.686 12.9435 104.903 13.0585 105.106 13.1523C105.659 13.4512 106.225 13.7419 106.8 14.0268C107.376 14.3112 107.894 14.6455 108.352 15.032C108.813 15.4184 109.188 15.8716 109.48 16.3935C109.771 16.9148 109.916 17.5539 109.916 18.3132Z" fill="#ED1D24"/>
<path d="M121.364 18.3132C121.364 18.9903 121.234 19.5919 120.97 20.1216C120.707 20.6492 120.34 21.0971 119.875 21.4627C119.406 21.8273 118.85 22.1101 118.21 22.3054C117.566 22.5018 116.866 22.6007 116.107 22.6007C115.363 22.6007 114.656 22.5122 113.988 22.3367C113.315 22.1596 112.616 21.9903 111.887 21.8273V17.4799H112.15L113.023 19.5111C113.348 19.769 113.75 20.0304 114.231 20.2934C114.71 20.558 115.35 20.6971 116.148 20.7101C116.487 20.7101 116.798 20.6528 117.083 20.5382C117.366 20.4226 117.616 20.2716 117.833 20.0799C118.051 19.8914 118.22 19.6736 118.341 19.4304C118.463 19.1856 118.523 18.9434 118.523 18.6997C118.523 18.2518 118.402 17.8653 118.159 17.5408C117.915 17.2153 117.62 16.934 117.275 16.6981C116.93 16.4621 116.559 16.2575 116.159 16.0888C115.759 15.9189 115.411 15.7533 115.113 15.5919C114.68 15.3741 114.275 15.1388 113.895 14.8799C113.517 14.6236 113.18 14.3315 112.88 14.006C112.583 13.6815 112.349 13.3085 112.18 12.8893C112.01 12.4679 111.926 11.9945 111.926 11.4653C111.926 10.9241 112.047 10.4189 112.292 9.95227C112.535 9.48507 112.864 9.082 113.277 8.74293C113.689 8.4044 114.171 8.14133 114.716 7.95027C115.265 7.7616 115.838 7.66586 116.432 7.66586C116.84 7.66586 117.204 7.6836 117.528 7.71786C117.854 7.75066 118.169 7.8028 118.474 7.86947C118.776 7.9372 119.088 8.01587 119.406 8.1028C119.725 8.19133 120.066 8.28973 120.431 8.3976V12.4007H120.166L119.255 10.3888C118.97 10.1039 118.592 9.86533 118.119 9.66786C117.643 9.47213 117.049 9.40693 116.332 9.47467C116.1 9.50227 115.882 9.5632 115.672 9.65747C115.462 9.75227 115.275 9.87413 115.113 10.0236C114.95 10.1731 114.823 10.3449 114.726 10.5424C114.632 10.7383 114.586 10.9445 114.586 11.1612C114.586 11.3913 114.65 11.6085 114.777 11.8121C114.908 12.0148 115.069 12.1971 115.265 12.3601C115.462 12.5227 115.674 12.6716 115.906 12.8075C116.135 12.9435 116.351 13.0585 116.554 13.1523C117.109 13.4512 117.674 13.7419 118.25 14.0268C118.824 14.3112 119.342 14.6455 119.803 15.032C120.262 15.4184 120.638 15.8716 120.928 16.3935C121.22 16.9148 121.364 17.5539 121.364 18.3132Z" fill="#ED1D24"/>
<path d="M129.892 22.2752V22.0111L131.679 21.2387V9.00746L129.892 8.21533V7.97213H136.307V8.21533L134.52 9.00746V21.2387L136.307 22.0111V22.2752H129.892Z" fill="#ED1D24"/>
<path d="M148.492 21.8273C148.449 21.8559 148.409 21.8716 148.369 21.8783C148.328 21.8861 148.293 21.895 148.267 21.9096C147.537 22.1658 146.863 22.3601 146.248 22.4877C145.631 22.6164 145.001 22.6814 144.349 22.6814C143.361 22.6814 142.453 22.5294 141.62 22.2247C140.788 21.92 140.073 21.4523 139.479 20.8221C138.881 20.1934 138.416 19.394 138.076 18.4236C137.737 17.4564 137.569 16.3017 137.569 14.9612C137.569 13.8227 137.765 12.8007 138.157 11.8929C138.552 10.9856 139.079 10.2101 139.743 9.56586C140.403 8.92306 141.171 8.42826 142.035 8.08253C142.901 7.73773 143.816 7.56426 144.776 7.56426C145.291 7.56426 145.823 7.6336 146.369 7.76786C146.919 7.90279 147.477 8.06586 148.047 8.2564V12.0356H147.781L146.969 10.1039C146.873 10.0512 146.745 9.98973 146.584 9.9216C146.42 9.85386 146.237 9.78973 146.033 9.72826C145.833 9.66786 145.616 9.61373 145.387 9.56586C145.157 9.51946 144.932 9.496 144.715 9.496C144.228 9.496 143.744 9.58306 143.264 9.75906C142.783 9.93453 142.352 10.2299 141.965 10.6424C141.579 11.0564 141.269 11.6085 141.031 12.2987C140.795 12.9897 140.676 13.8445 140.676 14.8601C140.676 15.9159 140.777 16.8205 140.98 17.5711C141.184 18.3221 141.457 18.9356 141.801 19.4096C142.148 19.8846 142.548 20.2325 143 20.4564C143.455 20.6804 143.925 20.7924 144.411 20.7924C144.696 20.7924 144.953 20.782 145.183 20.7611C145.412 20.7403 145.633 20.7075 145.851 20.6596C146.069 20.6127 146.292 20.545 146.523 20.4564C146.753 20.369 147.016 20.2559 147.313 20.1216L148.248 18.0684H148.492V21.8273Z" fill="#ED1D24"/>
<path d="M160.412 22.2752H150.528V22.0111L152.314 21.2387V9.00746L150.528 8.21533V7.97213H160.454V11.5476H160.19L159.459 9.80026H155.156V14.006H157.836L158.546 12.5831H158.808V17.1945H158.546L157.836 15.8351H155.156V20.4054H159.642L160.839 18.821L161.103 18.9226L160.412 22.2752Z" fill="#ED1D24"/>
<path d="M178.296 22.2752V22.0111L179.901 21.2387V15.956H174.805V21.2387L176.388 22.0111V22.2752H170.177V22.0111L171.964 21.2387V9.00746L170.056 8.21533V7.97213H176.409V8.21533L174.805 9.00746V14.1075H179.901V9.00746L178.296 8.21533V7.97213H184.529V8.21533L182.742 9.00746V21.2387L184.529 22.0111V22.2752H178.296Z" fill="#ED1D24"/>
<path d="M194.997 15.8159C195.011 15.4616 195.013 15.0669 195.008 14.6263C195 14.1856 194.964 13.732 194.904 13.2648C194.845 12.7976 194.755 12.3397 194.632 11.8929C194.512 11.446 194.331 11.0503 194.093 10.7039C193.857 10.3585 193.563 10.0779 193.211 9.8612C192.859 9.644 192.433 9.5356 191.931 9.5356C191.363 9.5356 190.888 9.67826 190.501 9.96266C190.115 10.2476 189.8 10.6164 189.559 11.07C189.315 11.5241 189.135 12.0293 189.017 12.5831C188.904 13.1393 188.839 13.6883 188.825 14.2288C188.812 14.5825 188.812 14.9851 188.825 15.4383C188.839 15.894 188.875 16.3596 188.939 16.8397C189 17.3211 189.092 17.7949 189.223 18.2611C189.351 18.7299 189.528 19.1424 189.76 19.5007C189.991 19.8611 190.276 20.1554 190.624 20.3861C190.968 20.6164 191.384 20.7309 191.871 20.7309C192.547 20.7309 193.088 20.5643 193.496 20.2325C193.9 19.9018 194.212 19.4877 194.429 18.9929C194.645 18.4992 194.791 17.9643 194.865 17.3888C194.939 16.8137 194.983 16.2877 194.997 15.8159ZM198.02 15.1231C198.02 16.2216 197.869 17.2325 197.568 18.1606C197.26 19.0877 196.837 19.8872 196.297 20.558C195.756 21.2283 195.111 21.7492 194.368 22.1231C193.624 22.494 192.811 22.6814 191.931 22.6814C190.877 22.6814 189.967 22.4705 189.2 22.0512C188.436 21.632 187.808 21.0721 187.313 20.3757C186.82 19.6778 186.455 18.8716 186.216 17.9575C185.98 17.0435 185.861 16.0992 185.861 15.1231C185.861 14.0268 186.011 13.0137 186.308 12.0856C186.608 11.1585 187.024 10.3585 187.568 9.6872C188.109 9.01786 188.751 8.49653 189.497 8.12413C190.239 7.75066 191.051 7.56426 191.931 7.56426C192.988 7.56426 193.897 7.77213 194.661 8.18453C195.425 8.5976 196.06 9.1528 196.559 9.85026C197.063 10.5487 197.429 11.3549 197.667 12.2689C197.901 13.1831 198.02 14.1351 198.02 15.1231Z" fill="#ED1D24"/>
<path d="M210.859 21.8273C210.82 21.8559 210.777 21.8716 210.737 21.8783C210.697 21.8861 210.664 21.895 210.637 21.9096C209.904 22.1658 209.232 22.3601 208.617 22.4877C208.003 22.6164 207.367 22.6814 206.717 22.6814C205.731 22.6814 204.819 22.5294 203.99 22.2247C203.156 21.92 202.444 21.4523 201.845 20.8221C201.251 20.1934 200.783 19.394 200.444 18.4236C200.107 17.4564 199.938 16.3017 199.938 14.9612C199.938 13.8227 200.136 12.8007 200.525 11.8929C200.92 10.9856 201.448 10.2101 202.111 9.56586C202.775 8.92306 203.537 8.42826 204.403 8.08253C205.272 7.73773 206.183 7.56426 207.144 7.56426C207.659 7.56426 208.19 7.6336 208.739 7.76786C209.287 7.90279 209.844 8.06586 210.412 8.2564V12.0356H210.148L209.337 10.1039C209.241 10.0512 209.115 9.98973 208.951 9.9216C208.789 9.85386 208.607 9.78973 208.403 9.72826C208.2 9.66786 207.984 9.61373 207.753 9.56586C207.523 9.51946 207.3 9.496 207.084 9.496C206.596 9.496 206.112 9.58306 205.633 9.75906C205.152 9.93453 204.719 10.2299 204.332 10.6424C203.948 11.0564 203.635 11.6085 203.4 12.2987C203.161 12.9897 203.043 13.8445 203.043 14.8601C203.043 15.9159 203.145 16.8205 203.349 17.5711C203.551 18.3221 203.826 18.9356 204.174 19.4096C204.515 19.8846 204.913 20.2325 205.369 20.4564C205.82 20.6804 206.291 20.7924 206.781 20.7924C207.063 20.7924 207.32 20.782 207.549 20.7611C207.78 20.7403 208.005 20.7075 208.222 20.6596C208.438 20.6127 208.66 20.545 208.891 20.4564C209.12 20.369 209.385 20.2559 209.683 20.1216L210.616 18.0684H210.859V21.8273Z" fill="#ED1D24"/>
<path d="M222.538 22.2752L217.584 15.3888V21.2387L219.17 22.0111V22.2752H212.956V22.0111L214.742 21.2387V9.00746L212.915 8.21533V7.97213H219.067V8.21533L217.584 9.00746V14.0465L222.071 8.86479L220.691 8.21533V7.97213H226.983V8.21533L225.179 9.00746L220.164 14.4331L225.34 21.2585L227.39 22.0111V22.2752H222.538Z" fill="#ED1D24"/>
<path d="M239.191 22.2752H229.307V22.0111L231.092 21.2387V9.00746L229.307 8.21533V7.97213H239.232V11.5476H238.969L238.237 9.80026H233.935V14.006H236.615L237.324 12.5831H237.588V17.1945H237.324L236.615 15.8351H233.935V20.4054H238.42L239.617 18.821L239.883 18.9226L239.191 22.2752Z" fill="#ED1D24"/>
<path d="M253.825 9.00746L250.028 16.444V21.2387L251.816 22.0111V22.2752H245.401V22.0111L247.205 21.2387V16.484L243.248 9.00746L241.441 8.21533V7.97213H248.081V8.21533L246.456 9.00746L248.791 14.4523L250.963 9.00746L249.379 8.21533V7.97213H255.591V8.21533L253.825 9.00746Z" fill="#ED1D24"/>
<path d="M42.3016 12.4159L42.2807 12.3659C42.2807 12.3659 38.3005 3.7028 37.7625 2.84493C36.9541 5.31893 28.7079 11.4268 18.8375 15.4345C12.8734 17.8575 7.26719 18.519 6.06355 17.4044C3.69114 15.2096 10.9807 9.45386 19.3131 4.97626C24.6297 2.11893 29.5193 0.56893 30.8656 0.149729L30.8172 0.0059948C9.1474 5.0336 -1.61511 15.944 0.196353 19.5216C1.94062 22.9617 12.9276 21.7429 23.5792 16.8831C27.8683 14.9227 31.1625 13.1012 33.3604 11.67C33.7235 11.4315 34.0896 11.3164 34.4448 11.9388C34.9568 12.8221 35.9568 15.1741 35.9855 15.2388C36.9344 17.3315 33.3265 21.9044 25.2052 25.7507C17.7068 29.3002 10.0437 30.5867 6.67136 29.3481C6.15937 29.1622 5.66041 28.9408 5.02656 28.3039C4.48541 27.7637 3.68177 26.3325 3.42396 25.8887L3.24792 25.9799C4.13125 27.8549 4.97812 29.3794 5.33281 29.7466C7.98751 32.494 18.0115 31.1726 27.1027 26.9513C35.9604 22.8341 43.9568 15.958 42.3016 12.4159Z" fill="#ED1D24"/>
</g>
<defs>
<clipPath id="clip0_3014_668">
<rect width="255.587" height="31.1867" fill="white"/>
</clipPath>
</defs>
</svg>
