<svg width="21" height="21" viewBox="0 0 21 21" fill="none" xmlns="http://www.w3.org/2000/svg">
<path d="M18.3592 7.86806L18.3592 2.62269M18.3592 2.62269H13.1138M18.3592 2.62269L10.4911 10.4907M8.74265 2.62268H6.81935C5.3505 2.62268 4.61608 2.62268 4.05506 2.90854C3.56157 3.15998 3.16035 3.5612 2.9089 4.05469C2.62305 4.61572 2.62305 5.35014 2.62305 6.81898V14.1625C2.62305 15.6314 2.62305 16.3658 2.9089 16.9268C3.16035 17.4203 3.56157 17.8215 4.05506 18.073C4.61608 18.3588 5.3505 18.3588 6.81935 18.3588H14.1629C15.6317 18.3588 16.3661 18.3588 16.9272 18.073C17.4207 17.8215 17.8219 17.4203 18.0733 16.9268C18.3592 16.3658 18.3592 15.6314 18.3592 14.1625V12.2392" stroke="#FF8F8F" stroke-width="2" stroke-linecap="round" stroke-linejoin="round"/>
</svg>
