<svg width="88" height="132" viewBox="0 0 88 132" fill="none" xmlns="http://www.w3.org/2000/svg">
<path d="M87.9996 123.2C87.9996 128.061 84.0604 132 79.1996 132H8.80002C3.93952 132 0 128.061 0 123.2V8.79974C0 3.94008 3.93952 0 8.80002 0H79.1996C84.0604 0 87.9996 3.94008 87.9996 8.79974V123.2Z" fill="white"/>
<path d="M85.0675 123.2C85.0675 126.44 82.441 129.067 79.2012 129.067H8.80046C5.56003 129.067 2.93359 126.44 2.93359 123.2V8.79945C2.93359 5.55901 5.56003 2.93258 8.80046 2.93258H79.2012C82.441 2.93258 85.0675 5.55901 85.0675 8.79945V123.2Z" fill="#E60001"/>
<path d="M76.6604 30.9959L76.6282 30.9182C76.6282 30.9182 70.4515 17.472 69.6159 16.1397C68.3607 19.9797 55.561 29.461 40.2403 35.6817C30.9826 39.4426 22.2807 40.4699 20.4121 38.7398C16.729 35.3323 28.0449 26.3978 40.9781 19.4488C49.2308 15.0134 56.819 12.6072 58.91 11.9565L58.8351 11.7331C25.1991 19.5375 8.49292 36.4727 11.3048 42.0252C14.0121 47.3654 31.066 45.4743 47.5997 37.9299C54.2573 34.8871 59.3696 32.0605 62.7825 29.8383C63.3462 29.4683 63.9132 29.2891 64.4659 30.255C65.2591 31.6269 66.8125 35.2775 66.856 35.3776C68.3305 38.6262 62.7288 45.7245 50.1241 51.6956C38.4845 57.2043 26.5908 59.2018 21.356 57.2801C20.5602 56.9901 19.7865 56.6466 18.8022 55.658C17.9621 54.8187 16.7148 52.5991 16.3148 51.9085L16.0409 52.0515C17.4122 54.9618 18.7276 57.3276 19.2777 57.8986C23.3978 62.1632 38.9574 60.1118 53.07 53.5582C66.8187 47.1684 79.2292 36.4947 76.6604 30.9959Z" fill="white"/>
<path d="M48.4005 107.985L76.2677 108.349L76.2668 108.719L48.4005 109.082H39.6004L11.7344 108.719V108.349L39.6004 107.984L48.4005 107.985Z" fill="white"/>
<path d="M23.5901 84.9947C23.5901 85.6446 23.4655 86.2204 23.2161 86.7259C22.9696 87.2311 22.6256 87.6585 22.1849 88.0101C21.7459 88.3609 21.2235 88.6298 20.6183 88.8166C20.0133 89.0046 19.3544 89.1007 18.6403 89.1007C17.9395 89.1007 17.2735 89.0148 16.6434 88.846C16.0136 88.6761 15.3535 88.5144 14.666 88.3609V84.1973H14.9151L15.7365 86.1407C16.0418 86.3892 16.4206 86.638 16.8724 86.8904C17.3252 87.1443 17.9265 87.2785 18.6787 87.2907C18.9968 87.2907 19.2913 87.2342 19.5571 87.1259C19.8248 87.0159 20.0608 86.8684 20.2649 86.6843C20.469 86.5034 20.6276 86.2962 20.7424 86.0638C20.8577 85.8303 20.9154 85.5968 20.9154 85.3645C20.9154 84.9359 20.7995 84.5673 20.5716 84.2561C20.3418 83.9437 20.0633 83.676 19.7394 83.4465C19.4151 83.22 19.0638 83.0272 18.6884 82.8644C18.3124 82.7019 17.9839 82.5441 17.704 82.3864C17.297 82.1803 16.9139 81.9519 16.5578 81.7054C16.2004 81.4628 15.8821 81.1819 15.6023 80.8698C15.3218 80.5594 15.1014 80.2015 14.9428 79.7995C14.783 79.3981 14.7039 78.9444 14.7039 78.4381C14.7039 77.9199 14.8187 77.4368 15.0479 76.9899C15.2772 76.5413 15.5862 76.1563 15.9751 75.832C16.363 75.5066 16.8158 75.2559 17.3323 75.073C17.8465 74.8901 18.3856 74.8002 18.947 74.8002C19.3286 74.8002 19.6721 74.8155 19.9785 74.8486C20.2847 74.8799 20.5807 74.9305 20.8673 74.9941C21.1537 75.06 21.4468 75.1338 21.7459 75.2206C22.045 75.3034 22.3675 75.3964 22.711 75.5004V79.3345H22.4619L21.6023 77.4063C21.3346 77.1335 20.9784 76.9062 20.532 76.7171C20.086 76.5271 19.5251 76.4666 18.8512 76.5334C18.6332 76.5585 18.4272 76.617 18.2296 76.7081C18.032 76.798 17.8567 76.9153 17.704 77.0558C17.5517 77.2002 17.4298 77.3639 17.3414 77.553C17.2515 77.741 17.2071 77.9389 17.2071 78.1461C17.2071 78.3686 17.2676 78.5735 17.3888 78.7677C17.5107 78.9636 17.6628 79.1375 17.8465 79.2941C18.032 79.4507 18.2332 79.5934 18.4495 79.7235C18.6663 79.8529 18.871 79.9621 19.0609 80.0542C19.5833 80.338 20.1148 80.6179 20.6564 80.8887C21.1986 81.1618 21.6857 81.484 22.1182 81.8518C22.5524 82.2227 22.9055 82.6552 23.1794 83.1575C23.4533 83.6568 23.5901 84.2691 23.5901 84.9947Z" fill="white"/>
<path d="M41.6307 76.0836L38.6113 88.7873H36.0883L33.7191 79.7995L30.9672 88.7873H28.4445L25.9029 76.0836L24.1641 75.3246V75.0931H30.2605V75.3246L28.8077 76.0836L29.954 85.012L32.8397 75.0931H34.8841L37.5026 85.0513L39.1077 76.0836L37.6177 75.3246V75.0931H43.3497V75.3246L41.6307 76.0836Z" fill="white"/>
<path d="M44.8223 88.7873V88.5346L46.5059 87.7948V76.0837L44.8223 75.3247V75.0932H50.8624V75.3247L49.1787 76.0837V87.7948L50.8624 88.5346V88.7873H44.8223Z" fill="white"/>
<path d="M62.1733 84.9947C62.1733 85.6446 62.0481 86.2204 61.7985 86.7259C61.5517 87.2311 61.2071 87.6585 60.7675 88.0101C60.3291 88.3609 59.8055 88.6298 59.2011 88.8166C58.5968 89.0046 57.9361 89.1007 57.2226 89.1007C56.5232 89.1007 55.8572 89.0148 55.2277 88.846C54.5942 88.6761 53.9361 88.5144 53.248 88.3609V84.1973H53.4965L54.3183 86.1407C54.6233 86.3892 55.0032 86.638 55.4541 86.8904C55.909 87.1443 56.508 87.2785 57.2611 87.2907C57.5794 87.2907 57.8722 87.2342 58.1402 87.1259C58.4079 87.0159 58.6442 86.8684 58.8475 86.6843C59.0516 86.5034 59.2102 86.2962 59.3235 86.0638C59.4397 85.8303 59.4963 85.5968 59.4963 85.3645C59.4963 84.9359 59.3832 84.5673 59.1517 84.2561C58.9252 83.9437 58.6485 83.676 58.322 83.4465C57.9986 83.22 57.6469 83.0272 57.2721 82.8644C56.895 82.7019 56.5668 82.5441 56.2878 82.3864C55.8796 82.1803 55.4954 81.9519 55.1409 81.7054C54.783 81.4628 54.4647 81.1819 54.1857 80.8698C53.905 80.5594 53.6856 80.2015 53.5248 79.7995C53.3642 79.3981 53.2873 78.9444 53.2873 78.4381C53.2873 77.9199 53.4015 77.4368 53.63 76.9899C53.8595 76.5413 54.1696 76.1563 54.5558 75.832C54.9467 75.5066 55.3973 75.2559 55.9138 75.073C56.4314 74.8901 56.9679 74.8002 57.5276 74.8002C57.9118 74.8002 58.2544 74.8155 58.5625 74.8486C58.8667 74.8799 59.1627 74.9305 59.4499 74.9941C59.7368 75.06 60.0308 75.1338 60.3291 75.2206C60.6273 75.3034 60.9476 75.3964 61.2922 75.5004V79.3345H61.0457L60.1846 77.4063C59.9158 77.1335 59.561 76.9062 59.1163 76.7171C58.6686 76.5271 58.1088 76.4666 57.4338 76.5334C57.2164 76.5585 57.0095 76.617 56.8122 76.7081C56.6151 76.798 56.4384 76.9153 56.2878 77.0558C56.1343 77.2002 56.0107 77.3639 55.924 77.553C55.8341 77.741 55.7905 77.9389 55.7905 78.1461C55.7905 78.3686 55.8513 78.5735 55.9706 78.7677C56.0916 78.9636 56.2442 79.1375 56.4314 79.2941C56.6151 79.4507 56.8144 79.5934 57.0326 79.7235C57.2489 79.8529 57.453 79.9621 57.643 80.0542C58.1654 80.338 58.6968 80.6179 59.2387 80.8887C59.7804 81.1618 60.2674 81.484 60.6999 81.8518C61.1344 82.2227 61.4872 82.6552 61.76 83.1575C62.037 83.6568 62.1733 84.2691 62.1733 84.9947Z" fill="white"/>
<path d="M73.3343 84.9947C73.3343 85.6446 73.2099 86.2204 72.9603 86.7259C72.7138 87.2311 72.3681 87.6585 71.9296 88.0101C71.4909 88.3609 70.9676 88.6298 70.3632 88.8166C69.7577 89.0046 69.0991 89.1007 68.3844 89.1007C67.6854 89.1007 67.0182 89.0148 66.3887 88.846C65.7572 88.6761 65.0982 88.5144 64.4102 88.3609V84.1973H64.6586L65.4813 86.1407C65.7854 86.3892 66.1654 86.638 66.6151 86.8904C67.0688 87.1443 67.6701 87.2785 68.4229 87.2907C68.7403 87.2907 69.0343 87.2342 69.302 87.1259C69.57 87.0159 69.8052 86.8684 70.0073 86.6843C70.2137 86.5034 70.3712 86.2962 70.4876 86.0638C70.6007 85.8303 70.6572 85.5968 70.6572 85.3645C70.6572 84.9359 70.5442 84.5673 70.3146 84.2561C70.0854 83.9437 69.8083 83.676 69.4841 83.4465C69.1596 83.22 68.809 83.0272 68.4331 82.8644C68.0551 82.7019 67.7266 82.5441 67.4499 82.3864C67.0394 82.1803 66.6564 81.9519 66.3027 81.7054C65.9451 81.4628 65.6257 81.1819 65.3467 80.8698C65.0649 80.5594 64.8466 80.2015 64.6878 79.7995C64.5252 79.3981 64.4483 78.9444 64.4483 78.4381C64.4483 77.9199 64.5625 77.4368 64.7921 76.9899C65.0205 76.5413 65.3317 76.1563 65.7176 75.832C66.1077 75.5066 66.5583 75.2559 67.0748 75.073C67.5921 74.8901 68.1309 74.8002 68.6886 74.8002C69.0736 74.8002 69.4182 74.8155 69.7224 74.8486C70.0285 74.8799 70.3248 74.9305 70.6109 74.9941C70.8978 75.06 71.1918 75.1338 71.4909 75.2206C71.788 75.3034 72.1094 75.3964 72.4571 75.5004V79.3345H72.2064L71.3464 77.4063C71.0799 77.1335 70.722 76.9062 70.2762 76.7171C69.8287 76.5271 69.2698 76.4666 68.5948 76.5334C68.3785 76.5585 68.1713 76.617 67.9743 76.7081C67.7781 76.798 67.6003 76.9153 67.4499 77.0558C67.295 77.2002 67.174 77.3639 67.0861 77.553C66.995 77.741 66.9504 77.9389 66.9504 78.1461C66.9504 78.3686 67.0123 78.5735 67.1336 78.7677C67.2548 78.9636 67.4072 79.1375 67.5921 79.2941C67.7781 79.4507 67.9754 79.5934 68.1925 79.7235C68.4119 79.8529 68.6129 79.9621 68.8048 80.0542C69.3275 80.338 69.8578 80.6179 70.3994 80.8887C70.9413 81.1618 71.4304 81.484 71.8618 81.8518C72.2954 82.2227 72.649 82.6552 72.921 83.1575C73.1969 83.6568 73.3343 84.2691 73.3343 84.9947Z" fill="white"/>
<path d="M14.666 101.012V100.89L15.4731 100.536V94.897L14.666 94.5324V94.4213H17.5644V94.5324L16.7568 94.897V100.536L17.5644 100.89V101.012H14.666Z" fill="white"/>
<path d="M23.6193 100.807C23.6001 100.821 23.5817 100.827 23.5636 100.83C23.5449 100.833 23.5297 100.838 23.5178 100.844C23.1879 100.962 22.8835 101.053 22.6042 101.112C22.3263 101.171 22.0413 101.2 21.7473 101.2C21.3004 101.2 20.8897 101.13 20.5134 100.989C20.1377 100.848 19.8141 100.633 19.5455 100.344C19.2764 100.053 19.0666 99.6853 18.9131 99.2395C18.7605 98.792 18.6836 98.2603 18.6836 97.6421C18.6836 97.1174 18.7732 96.6476 18.9499 96.23C19.1268 95.8088 19.3651 95.451 19.6651 95.1558C19.9644 94.8587 20.3107 94.6326 20.7017 94.4717C21.0932 94.312 21.5056 94.2332 21.9407 94.2332C22.1722 94.2332 22.4122 94.2645 22.6601 94.3273C22.9078 94.39 23.1594 94.4647 23.4166 94.5526V96.2937H23.2973L22.9304 95.4035C22.8877 95.3792 22.8295 95.3509 22.7568 95.3206C22.683 95.2853 22.6002 95.259 22.5086 95.2288C22.417 95.2014 22.3187 95.177 22.2155 95.1558C22.1109 95.1335 22.0105 95.1225 21.913 95.1225C21.6922 95.1225 21.4734 95.1621 21.2566 95.2429C21.0392 95.3246 20.8442 95.4611 20.6695 95.6511C20.495 95.8442 20.3546 96.0977 20.248 96.4172C20.1408 96.7324 20.0874 97.1284 20.0874 97.5954C20.0874 98.0816 20.1332 98.4989 20.2242 98.8466C20.3167 99.1932 20.4399 99.475 20.5962 99.6944C20.7517 99.9115 20.9321 100.072 21.1373 100.174C21.342 100.278 21.5551 100.328 21.7745 100.328C21.9034 100.328 22.0196 100.324 22.123 100.313C22.2271 100.307 22.3277 100.291 22.4258 100.268C22.5247 100.246 22.6248 100.215 22.7285 100.174C22.8326 100.133 22.9522 100.082 23.0867 100.02L23.509 99.077H23.6193V100.807Z" fill="white"/>
<path d="M29.2703 101.012H24.8027V100.89L25.6095 100.536V94.897L24.8027 94.5324V94.4213H29.2884V96.0693H29.17L28.8384 95.264H26.894V97.2032H28.1048L28.4259 96.5465H28.5458V98.6726H28.4259L28.1048 98.0442H26.894V100.154H28.9218L29.4628 99.4226L29.5827 99.4681L29.2703 101.012Z" fill="white"/>
<path d="M37.4593 101.012V100.89L38.1838 100.536V98.0996H35.8814V100.536L36.5968 100.89V101.012H33.7909V100.89L34.5974 100.536V94.897L33.7363 94.5324V94.4213H36.6067V94.5324L35.8814 94.897V97.2487H38.1838V94.897L37.4593 94.5324V94.4213H40.2749V94.5324L39.4678 94.897V100.536L40.2749 100.89V101.012H37.4593Z" fill="white"/>
<path d="M45.2938 98.0349C45.3 97.8724 45.302 97.6903 45.2989 97.4882C45.2952 97.2853 45.2811 97.0749 45.2539 96.8587C45.2257 96.6455 45.1838 96.4352 45.1296 96.23C45.0744 96.0211 44.9933 95.839 44.8862 95.6813C44.7804 95.5207 44.6464 95.3913 44.4864 95.2884C44.3276 95.1914 44.1348 95.1408 43.9092 95.1408C43.6528 95.1408 43.4374 95.2055 43.263 95.339C43.0883 95.4681 42.9458 95.6389 42.8367 95.8492C42.7264 96.0592 42.6445 96.2919 42.593 96.5466C42.5404 96.8041 42.5122 97.0568 42.5062 97.3053C42.4997 97.467 42.4997 97.653 42.5062 97.8622C42.5122 98.0703 42.5294 98.2865 42.5568 98.509C42.584 98.7312 42.6269 98.9486 42.6846 99.1637C42.7431 99.3791 42.8234 99.5699 42.928 99.7359C43.0317 99.9004 43.1621 100.037 43.3181 100.141C43.4741 100.248 43.6621 100.301 43.8821 100.301C44.1876 100.301 44.4319 100.225 44.6151 100.072C44.8002 99.9196 44.9396 99.7288 45.038 99.5004C45.1352 99.2728 45.2008 99.0283 45.2353 98.7617C45.2686 98.4957 45.2881 98.2543 45.2938 98.0349ZM46.6637 97.7147C46.6637 98.2241 46.5919 98.6899 46.4573 99.1193C46.318 99.5448 46.1272 99.9125 45.8826 100.223C45.637 100.532 45.3469 100.772 45.01 100.943C44.6739 101.115 44.3064 101.2 43.9092 101.2C43.4329 101.2 43.0204 101.105 42.675 100.909C42.3298 100.716 42.0457 100.461 41.823 100.135C41.5988 99.8176 41.434 99.4458 41.3274 99.0232C41.2203 98.6009 41.166 98.1675 41.166 97.7147C41.166 97.2112 41.2339 96.7436 41.3684 96.3171C41.5027 95.8885 41.6921 95.5207 41.9377 95.2115C42.1817 94.9022 42.4729 94.6636 42.8087 94.4901C43.1448 94.317 43.5117 94.2334 43.9092 94.2334C44.3858 94.2334 44.7977 94.3284 45.1437 94.5183C45.4894 94.7122 45.7763 94.9669 45.9997 95.2841C46.2281 95.6098 46.3949 95.9807 46.502 96.4007C46.61 96.8222 46.6637 97.2598 46.6637 97.7147Z" fill="white"/>
<path d="M52.66 100.807C52.6408 100.821 52.6227 100.827 52.6043 100.83C52.5862 100.833 52.5701 100.838 52.56 100.844C52.2295 100.962 51.9245 101.053 51.6486 101.112C51.3696 101.171 51.0815 101.2 50.7895 101.2C50.3417 101.2 49.9304 101.13 49.5536 100.989C49.1799 100.848 48.8565 100.633 48.5893 100.344C48.3177 100.053 48.1074 99.6853 47.9539 99.2395C47.8004 98.792 47.7246 98.2603 47.7246 97.6421C47.7246 97.1174 47.8125 96.6476 47.9892 96.23C48.167 95.8088 48.4076 95.451 48.7067 95.1558C49.006 94.8587 49.3515 94.6326 49.7427 94.4717C50.1328 94.312 50.5469 94.2332 50.9806 94.2332C51.2118 94.2332 51.4555 94.2645 51.7031 94.3273C51.9496 94.39 52.2032 94.4647 52.4579 94.5526V96.2937H52.3386L51.9728 95.4035C51.9284 95.3792 51.8719 95.3509 51.7981 95.3206C51.7252 95.2853 51.6435 95.259 51.5505 95.2288C51.4595 95.2014 51.3616 95.177 51.2565 95.1558C51.1544 95.1335 51.0493 95.1225 50.9543 95.1225C50.7338 95.1225 50.5136 95.1621 50.2973 95.2429C50.0811 95.3246 49.8852 95.4611 49.7102 95.6511C49.5363 95.8442 49.397 96.0977 49.2879 96.4172C49.1827 96.7324 49.129 97.1284 49.129 97.5954C49.129 98.0816 49.1737 98.4989 49.2655 98.8466C49.3585 99.1932 49.4818 99.475 49.6364 99.6944C49.793 99.9115 49.9739 100.072 50.1792 100.174C50.3833 100.278 50.5964 100.328 50.8158 100.328C50.9441 100.328 51.0595 100.324 51.1666 100.313C51.2675 100.307 51.3715 100.291 51.4665 100.268C51.5646 100.246 51.6655 100.215 51.7698 100.174C51.8739 100.133 51.9932 100.082 52.1274 100.02L52.5509 99.077H52.66V100.807Z" fill="white"/>
<path d="M58.0908 101.012L55.8494 97.839V100.536L56.5668 100.89V101.012H53.7575V100.89L54.566 100.536V94.897L53.7402 94.5324V94.4213H56.5193V94.5324L55.8494 94.897V97.2196L57.8776 94.8315L57.2552 94.5324V94.4213H60.0998V94.5324L59.2812 94.897L57.0154 97.3974L59.3561 100.545L60.2816 100.89V101.012H58.0908Z" fill="white"/>
<path d="M65.8222 101.012H61.3574V100.89L62.1631 100.536V94.897L61.3574 94.5324V94.4213H65.8414V96.0693H65.7221L65.3908 95.264H63.4462V97.2032H64.6569L64.9783 96.5465H65.0965V98.6726H64.9783L64.6569 98.0442H63.4462V100.154H65.4745L66.0152 99.4226L66.1354 99.4681L65.8222 101.012Z" fill="white"/>
<path d="M72.5377 94.8972L70.821 98.3262V100.536L71.6292 100.89V101.012H68.7291V100.89L69.5466 100.536V98.3443L67.7578 94.8972L66.9434 94.5325V94.4212H69.9418V94.5325L69.2068 94.8972L70.2629 97.4063L71.2433 94.8972L70.5298 94.5325V94.4212H73.334V94.5325L72.5377 94.8972Z" fill="white"/>
</svg>
