<svg width="158" height="116" viewBox="0 0 158 116" fill="none" xmlns="http://www.w3.org/2000/svg">
<path d="M157.187 46.1666L157.11 45.9802C157.11 45.9802 142.323 13.754 140.323 10.561C137.318 19.7642 106.676 42.4877 69.9995 57.3969C47.8371 66.4104 27.0052 68.8725 22.532 64.7261C13.7148 56.5595 40.8045 35.1463 71.7658 18.4918C91.5223 7.86176 109.688 2.09484 114.694 0.535225L114.514 0C33.9918 18.7046 -6.00181 59.2925 0.729662 72.6001C7.21074 85.3989 48.0368 80.8663 87.6176 62.7851C103.555 55.4924 115.794 48.718 123.964 43.3922C125.314 42.5053 126.671 42.0758 127.994 44.3908C129.893 47.6787 133.612 56.4281 133.716 56.6679C137.246 64.4538 123.836 81.4659 93.6608 95.7769C65.7963 108.979 37.3234 113.767 24.7916 109.161C22.8866 108.466 21.0344 107.643 18.678 105.273C16.6667 103.262 13.681 97.9422 12.7234 96.287L12.0677 96.6299C15.3505 103.605 18.4993 109.275 19.8163 110.643C29.6797 120.864 66.9285 115.948 100.713 100.241C133.627 84.9266 163.337 59.3454 157.187 46.1666Z" fill="white"/>
</svg>
