<svg width="44" height="32" viewBox="0 0 44 32" fill="none" xmlns="http://www.w3.org/2000/svg">
<path d="M43.7736 12.7356L43.7522 12.6842C43.7522 12.6842 39.6344 3.79422 39.0773 2.91337C38.2405 5.45219 29.7074 11.7207 19.4935 15.8336C13.3217 18.3201 7.52044 18.9993 6.27474 17.8555C3.81932 15.6026 11.3633 9.69552 19.9854 5.10119C25.4872 2.16876 30.546 0.577888 31.94 0.147648L31.8901 0C9.46608 5.15988 -1.67139 16.3566 0.203197 20.0276C2.00805 23.5583 13.3773 22.308 24.3998 17.32C28.8382 15.3083 32.2464 13.4395 34.5217 11.9703C34.8975 11.7256 35.2755 11.6071 35.644 12.2457C36.1728 13.1528 37.2084 15.5664 37.2374 15.6325C38.2204 17.7804 34.4859 22.4734 26.0828 26.4212C18.323 30.0633 10.3939 31.3839 6.90399 30.1134C6.37349 29.9216 5.85768 29.6945 5.20147 29.041C4.64137 28.4861 3.8099 27.0185 3.54323 26.5619L3.36062 26.6565C4.27482 28.5806 5.15172 30.1448 5.51846 30.5223C8.26522 33.3419 18.6383 31.9855 28.0467 27.6527C37.2125 23.428 45.4862 16.3711 43.7736 12.7356Z" fill="#7F7F7F"/>
</svg>
