<svg width="704" height="934" viewBox="0 0 704 934" fill="none" xmlns="http://www.w3.org/2000/svg"><path d="M351.47 88.53a.75.75 0 001.06 0l4.773-4.773a.75.75 0 00-1.06-1.06L352 86.939l-4.243-4.242a.75.75 0 10-1.06 1.06l4.773 4.773zM352.75 64v-.75h-1.5V64h1.5zM352 88h.75V64h-1.5v24h.75zM132.47 393.53a.749.749 0 001.06 0l4.773-4.773a.749.749 0 10-1.06-1.06L133 391.939l-4.243-4.242a.749.749 0 10-1.06 1.06l4.773 4.773zm1.28-80.53v-.75h-1.5v.75h1.5zm-.75 80h.75v-80h-1.5v80h.75z" fill="#E60001"/><path d="M26 20C26 8.954 34.954 0 46 0h633v44c0 11.046-8.954 20-20 20H26V20z" fill="#FFC6C7"/><path d="M101.774 28.736l-.022-.052s-4.118-8.89-4.675-9.77c-.837 2.538-9.37 8.807-19.584 12.92-6.171 2.486-11.973 3.165-13.218 2.021-2.456-2.252 5.088-8.16 13.71-12.754 5.502-2.932 10.561-4.523 11.955-4.953L89.89 16C67.466 21.16 56.33 32.357 58.203 36.028c1.805 3.53 13.174 2.28 24.197-2.708 4.438-2.012 7.846-3.88 10.122-5.35.375-.244.753-.363 1.122.276.529.907 1.564 3.32 1.593 3.387.983 2.147-2.751 6.84-11.154 10.788-7.76 3.642-15.69 4.963-19.179 3.692-.53-.191-1.046-.419-1.702-1.072-.56-.555-1.392-2.022-1.659-2.48l-.182.096c.914 1.924 1.79 3.488 2.158 3.865 2.746 2.82 13.12 1.464 22.528-2.87 9.166-4.224 17.439-11.28 15.727-14.916z" fill="#E60001"/><path d="M126.088 23.6v4.68h3.624v2.4h-3.624v4.92h4.56V38h-7.2V21.2h7.2v2.4h-4.56zM140.492 38h-2.688c-.144-.432-.24-.696-.24-2.064v-2.64c0-1.56-.528-2.136-1.728-2.136h-.912V38h-2.64V21.2h3.984c2.736 0 3.912 1.272 3.912 3.864v1.32c0 1.728-.552 2.856-1.728 3.408 1.32.552 1.752 1.824 1.752 3.576v2.592c0 .816.024 1.416.288 2.04zm-4.296-14.4h-1.272v5.16h1.032c.984 0 1.584-.432 1.584-1.776v-1.656c0-1.2-.408-1.728-1.344-1.728zm5.408 1.632c0-2.688 1.32-4.224 3.888-4.224 2.568 0 3.888 1.536 3.888 4.224v.528h-2.496v-.696c0-1.2-.48-1.656-1.32-1.656-.84 0-1.32.456-1.32 1.656 0 3.456 5.16 4.104 5.16 8.904 0 2.688-1.344 4.224-3.936 4.224-2.592 0-3.936-1.536-3.936-4.224v-1.032h2.496v1.2c0 1.2.528 1.632 1.368 1.632.84 0 1.368-.432 1.368-1.632 0-3.456-5.16-4.104-5.16-8.904zm8.545-1.632v-2.4h8.16v2.4h-2.76V38h-2.64V23.6h-2.76zM165.496 38l-2.568-6.696-.816 1.536V38h-2.64V21.2h2.64v7.32l3.456-7.32h2.64l-3.672 7.488L168.208 38h-2.712zm6.173-12.936v9.072c0 1.2.528 1.656 1.368 1.656.84 0 1.368-.456 1.368-1.656v-9.072c0-1.2-.528-1.656-1.368-1.656-.84 0-1.368.456-1.368 1.656zm-2.64 8.904v-8.736c0-2.688 1.416-4.224 4.008-4.224s4.008 1.536 4.008 4.224v8.736c0 2.688-1.416 4.224-4.008 4.224s-4.008-1.536-4.008-4.224zM184.401 38l-3.288-12.168V38h-2.376V21.2h3.312l2.712 10.056V21.2h2.352V38h-2.712zm3.834-14.4v-2.4h8.16v2.4h-2.76V38h-2.64V23.6h-2.76zm14.265-2.4l2.688 16.8h-2.664l-.456-3.048h-3.24L198.372 38h-2.424l2.688-16.8h3.864zm-2.064 2.976l-1.272 8.496h2.544l-1.272-8.496zM212.441 38l-2.568-6.696-.816 1.536V38h-2.64V21.2h2.64v7.32l3.456-7.32h2.64l-3.672 7.488L215.153 38h-2.712zm3.146-14.4v-2.4h8.16v2.4h-2.76V38h-2.64V23.6h-2.76zm15.389-2.4h7.488v2.352L233.448 35.6h5.016V38h-7.728v-2.352l5.016-12.048h-4.776v-2.4zm8.93 0h2.64v12.96c0 1.2.528 1.632 1.368 1.632.84 0 1.368-.432 1.368-1.632V21.2h2.496v12.792c0 2.688-1.344 4.224-3.936 4.224-2.592 0-3.936-1.536-3.936-4.224V21.2zm13.331 0l1.944 11.928 1.8-11.928h3.672V38h-2.496V25.952L256.333 38h-2.496l-1.968-11.88V38h-2.304V21.2h3.672zm15.703 2.4v4.68h3.624v2.4h-3.624v4.92h4.56V38h-7.2V21.2h7.2v2.4h-4.56zm6.196 14.4V21.2h2.64V38h-2.64zm4.234-12.768c0-2.688 1.32-4.224 3.888-4.224 2.568 0 3.888 1.536 3.888 4.224v.528h-2.496v-.696c0-1.2-.48-1.656-1.32-1.656-.84 0-1.32.456-1.32 1.656 0 3.456 5.16 4.104 5.16 8.904 0 2.688-1.344 4.224-3.936 4.224-2.592 0-3.936-1.536-3.936-4.224v-1.032h2.496v1.2c0 1.2.528 1.632 1.368 1.632.84 0 1.368-.432 1.368-1.632 0-3.456-5.16-4.104-5.16-8.904zM291.569 38l6.624-16.8h2.28L293.849 38h-2.28zm18.855-14.4v4.68h3.624v2.4h-3.624v4.92h4.56V38h-7.2V21.2h7.2v2.4h-4.56zM316.62 38V21.2h2.64V38h-2.64zm4.234-12.768c0-2.688 1.32-4.224 3.888-4.224 2.568 0 3.888 1.536 3.888 4.224v.528h-2.496v-.696c0-1.2-.48-1.656-1.32-1.656-.84 0-1.32.456-1.32 1.656 0 3.456 5.16 4.104 5.16 8.904 0 2.688-1.344 4.224-3.936 4.224-2.592 0-3.936-1.536-3.936-4.224v-1.032h2.496v1.2c0 1.2.528 1.632 1.368 1.632.84 0 1.368-.432 1.368-1.632 0-3.456-5.16-4.104-5.16-8.904zm11.953 5.568V38h-2.64V21.2h2.64v7.2h3v-7.2h2.688V38h-2.688v-7.2h-3zm10.026-5.736v9.072c0 1.2.528 1.656 1.368 1.656.84 0 1.368-.456 1.368-1.656v-9.072c0-1.2-.528-1.656-1.368-1.656-.84 0-1.368.456-1.368 1.656zm-2.64 8.904v-8.736c0-2.688 1.416-4.224 4.008-4.224s4.008 1.536 4.008 4.224v8.736c0 2.688-1.416 4.224-4.008 4.224s-4.008-1.536-4.008-4.224zm14.892-2.232h2.496v2.232c0 2.688-1.344 4.224-3.936 4.224-2.592 0-3.936-1.536-3.936-4.224v-8.736c0-2.688 1.344-4.224 3.936-4.224 2.592 0 3.936 1.536 3.936 4.224v1.632h-2.496v-1.8c0-1.2-.528-1.656-1.368-1.656-.84 0-1.368.456-1.368 1.656v9.072c0 1.2.528 1.632 1.368 1.632.84 0 1.368-.432 1.368-1.632v-2.4zM365.207 38l-2.568-6.696-.816 1.536V38h-2.64V21.2h2.64v7.32l3.456-7.32h2.64l-3.672 7.488L367.919 38h-2.712zm6.553-14.4v4.68h3.624v2.4h-3.624v4.92h4.56V38h-7.2V21.2h7.2v2.4h-4.56zm8.668 14.4v-5.568L377.092 21.2h2.76l2.016 7.656 2.016-7.656h2.52l-3.336 11.232V38h-2.64z" fill="#000"/><path d="M630.39 32h12.239m0 0l-6.12-6.12m6.12 6.12l-6.12 6.12" stroke="#E60001" stroke-width="2" stroke-linecap="round" stroke-linejoin="round"/><path d="M351.47 481.53a.749.749 0 001.06 0l4.773-4.773a.749.749 0 10-1.06-1.06L352 479.939l-4.243-4.242a.749.749 0 10-1.06 1.06l4.773 4.773zm1.28-24.53v-.75h-1.5v.75h1.5zm-.75 24h.75v-24h-1.5v24h.75zM243.47 747.53a.749.749 0 001.06 0l4.773-4.773a.749.749 0 10-1.06-1.06L244 745.939l-4.243-4.242a.749.749 0 10-1.06 1.06l4.773 4.773zm1.28-32.53v-.75h-1.5v.75h1.5zm-.75 32h.75v-32h-1.5v32h.75z" fill="#E60001"/><path d="M459.47 747.53a.749.749 0 001.06 0l4.773-4.773a.749.749 0 10-1.06-1.06L460 745.939l-4.243-4.242a.749.749 0 10-1.06 1.06l4.773 4.773zm1.28-32.53v-.75h-1.5v.75h1.5zm-.75 32h.75v-32h-1.5v32h.75z" fill="#A5A5A5"/><path d="M351.47 553.53a.749.749 0 001.06 0l4.773-4.773a.749.749 0 10-1.06-1.06L352 551.939l-4.243-4.242a.749.749 0 10-1.06 1.06l4.773 4.773zm1.28-24.53v-.75h-1.5v.75h1.5zm-.75 24h.75v-24h-1.5v24h.75zM351.47 649.53a.749.749 0 001.06 0l4.773-4.773a.749.749 0 10-1.06-1.06L352 647.939l-4.243-4.242a.749.749 0 10-1.06 1.06l4.773 4.773zm1.28-24.53v-.75h-1.5v.75h1.5zm-.75 24h.75v-24h-1.5v24h.75zM26 413c0-11.046 8.954-20 20-20h633v44c0 11.046-8.954 20-20 20H26v-44z" fill="#E60001"/><path d="M101.774 421.736l-.022-.052s-4.118-8.89-4.675-9.771c-.837 2.539-9.37 8.808-19.584 12.921-6.171 2.486-11.973 3.165-13.218 2.021-2.456-2.252 5.088-8.159 13.71-12.754 5.502-2.932 10.561-4.523 11.955-4.953l-.05-.148c-22.424 5.16-33.561 16.357-31.687 20.028 1.805 3.53 13.174 2.28 24.197-2.708 4.438-2.012 7.846-3.881 10.122-5.35.375-.244.753-.363 1.122.276.529.907 1.564 3.32 1.593 3.387.983 2.147-2.751 6.84-11.154 10.788-7.76 3.642-15.69 4.963-19.179 3.692-.53-.191-1.046-.418-1.702-1.072-.56-.555-1.392-2.022-1.659-2.479l-.182.095c.914 1.924 1.79 3.488 2.158 3.865 2.746 2.82 13.12 1.464 22.528-2.869 9.166-4.225 17.439-11.282 15.727-14.917z" fill="#FF8F8F"/><path d="M128.886 414.2l2.688 16.8h-2.664l-.456-3.048h-3.24l-.456 3.048h-2.424l2.688-16.8h3.864zm-2.064 2.976l-1.272 8.496h2.544l-1.272-8.496zm9.63-2.976l1.944 11.928 1.8-11.928h3.672V431h-2.496v-12.048L139.548 431h-2.496l-1.968-11.88V431h-2.304v-16.8h3.672zm13.32 0c2.736 0 3.912 1.272 3.912 3.864v.6c0 1.728-.528 2.832-1.704 3.384 1.416.552 1.968 1.824 1.968 3.6v1.368c0 2.592-1.368 3.984-4.008 3.984h-4.152v-16.8h3.984zm-.168 9.24h-1.176v5.16h1.512c.888 0 1.368-.408 1.368-1.656v-1.464c0-1.56-.504-2.04-1.704-2.04zm.096-6.84h-1.272v4.44h1.032c.984 0 1.584-.432 1.584-1.776v-.936c0-1.2-.408-1.728-1.344-1.728zm5.838 14.4v-16.8h2.64V431h-2.64zm3.802-14.4v-2.4h8.16v2.4h-2.76V431h-2.64v-14.4h-2.76zm9.323 14.4v-16.8h2.64V431h-2.64zm6.994-12.936v9.072c0 1.2.528 1.656 1.368 1.656.84 0 1.368-.456 1.368-1.656v-9.072c0-1.2-.528-1.656-1.368-1.656-.84 0-1.368.456-1.368 1.656zm-2.64 8.904v-8.736c0-2.688 1.416-4.224 4.008-4.224s4.008 1.536 4.008 4.224v8.736c0 2.688-1.416 4.224-4.008 4.224s-4.008-1.536-4.008-4.224zM188.389 431l-3.288-12.168V431h-2.376v-16.8h3.312l2.712 10.056V414.2h2.352V431h-2.712zm7.993-12.768c0-2.688 1.32-4.224 3.888-4.224 2.568 0 3.888 1.536 3.888 4.224v.528h-2.496v-.696c0-1.2-.48-1.656-1.32-1.656-.84 0-1.32.456-1.32 1.656 0 3.456 5.16 4.104 5.16 8.904 0 2.688-1.344 4.224-3.936 4.224-2.592 0-3.936-1.536-3.936-4.224v-1.032h2.496v1.2c0 1.2.528 1.632 1.368 1.632.84 0 1.368-.432 1.368-1.632 0-3.456-5.16-4.104-5.16-8.904zm14.472 6.504h2.496v2.232c0 2.688-1.344 4.224-3.936 4.224-2.592 0-3.936-1.536-3.936-4.224v-8.736c0-2.688 1.344-4.224 3.936-4.224 2.592 0 3.936 1.536 3.936 4.224v1.632h-2.496v-1.8c0-1.2-.528-1.656-1.368-1.656-.84 0-1.368.456-1.368 1.656v9.072c0 1.2.528 1.632 1.368 1.632.84 0 1.368-.432 1.368-1.632v-2.4zm6.738-.936v7.2h-2.64v-16.8h2.64v7.2h3v-7.2h2.688V431h-2.688v-7.2h-3zm7.602 7.2v-16.8h2.64V431h-2.64zm7.211-14.4v4.68h3.624v2.4h-3.624v4.92h4.56v2.4h-7.2v-16.8h7.2v2.4h-4.56zm6.196 14.4v-16.8h4.176c2.64 0 3.936 1.464 3.936 4.152v8.496c0 2.688-1.296 4.152-3.936 4.152h-4.176zm4.128-14.4h-1.488v12h1.488c.84 0 1.344-.432 1.344-1.632v-8.736c0-1.2-.504-1.632-1.344-1.632zm5.333 1.632c0-2.688 1.32-4.224 3.888-4.224 2.568 0 3.888 1.536 3.888 4.224v.528h-2.496v-.696c0-1.2-.48-1.656-1.32-1.656-.84 0-1.32.456-1.32 1.656 0 3.456 5.16 4.104 5.16 8.904 0 2.688-1.344 4.224-3.936 4.224-2.592 0-3.936-1.536-3.936-4.224v-1.032h2.496v1.2c0 1.2.528 1.632 1.368 1.632.84 0 1.368-.432 1.368-1.632 0-3.456-5.16-4.104-5.16-8.904zM265.582 431h-2.688c-.144-.432-.24-.696-.24-2.064v-2.64c0-1.56-.528-2.136-1.728-2.136h-.912V431h-2.64v-16.8h3.984c2.736 0 3.912 1.272 3.912 3.864v1.32c0 1.728-.552 2.856-1.728 3.408 1.32.552 1.752 1.824 1.752 3.576v2.592c0 .816.024 1.416.288 2.04zm-4.296-14.4h-1.272v5.16h1.032c.984 0 1.584-.432 1.584-1.776v-1.656c0-1.2-.408-1.728-1.344-1.728zm5.744 14.4v-16.8h2.64V431h-2.64zm9.731-6.264h2.496v2.232c0 2.688-1.344 4.224-3.936 4.224-2.592 0-3.936-1.536-3.936-4.224v-8.736c0-2.688 1.344-4.224 3.936-4.224 2.592 0 3.936 1.536 3.936 4.224v1.632h-2.496v-1.8c0-1.2-.528-1.656-1.368-1.656-.84 0-1.368.456-1.368 1.656v9.072c0 1.2.528 1.632 1.368 1.632.84 0 1.368-.432 1.368-1.632v-2.4zm6.737-.936v7.2h-2.64v-16.8h2.64v7.2h3v-7.2h2.688V431h-2.688v-7.2h-3zm6.835-7.2v-2.4h8.16v2.4h-2.76V431h-2.64v-14.4h-2.76zm11.962 0v4.68h3.624v2.4h-3.624v4.92h4.56v2.4h-7.2v-16.8h7.2v2.4h-4.56zm14.404 14.4h-2.688c-.144-.432-.24-.696-.24-2.064v-2.64c0-1.56-.528-2.136-1.728-2.136h-.912V431h-2.64v-16.8h3.984c2.736 0 3.912 1.272 3.912 3.864v1.32c0 1.728-.552 2.856-1.728 3.408 1.32.552 1.752 1.824 1.752 3.576v2.592c0 .816.024 1.416.288 2.04zm-4.296-14.4h-1.272v5.16h1.032c.984 0 1.584-.432 1.584-1.776v-1.656c0-1.2-.408-1.728-1.344-1.728zm4.905 14.4l6.624-16.8h2.28l-6.624 16.8h-2.28zm9.98 0v-16.8h2.64V431h-2.64zm10.21 0l-3.288-12.168V431h-2.376v-16.8h3.312l2.712 10.056V414.2h2.352V431h-2.712zm8.161-16.8h7.488v2.352l-5.016 12.048h5.016v2.4h-7.728v-2.352l5.016-12.048h-4.776v-2.4zm8.931 0h2.64v12.96c0 1.2.528 1.632 1.368 1.632.84 0 1.368-.432 1.368-1.632V414.2h2.496v12.792c0 2.688-1.344 4.224-3.936 4.224-2.592 0-3.936-1.536-3.936-4.224V414.2zm20.225 16.8l-.96-8.952-.96 8.952h-3.624l-1.872-16.8h2.568l1.416 13.248 1.272-13.248h2.544l1.32 13.344 1.368-13.344h2.304l-1.872 16.8h-3.504zm9.348-14.4v4.68h3.624v2.4h-3.624v4.92h4.56v2.4h-7.2v-16.8h7.2v2.4h-4.56zm14.403 14.4h-2.688c-.144-.432-.24-.696-.24-2.064v-2.64c0-1.56-.528-2.136-1.728-2.136h-.912V431h-2.64v-16.8h3.984c2.736 0 3.912 1.272 3.912 3.864v1.32c0 1.728-.552 2.856-1.728 3.408 1.32.552 1.752 1.824 1.752 3.576v2.592c0 .816.024 1.416.288 2.04zm-4.296-14.4h-1.272v5.16h1.032c.984 0 1.584-.432 1.584-1.776v-1.656c0-1.2-.408-1.728-1.344-1.728zm5.745 14.4v-16.8h4.176c2.64 0 3.936 1.464 3.936 4.152v8.496c0 2.688-1.296 4.152-3.936 4.152h-4.176zm4.128-14.4h-1.488v12h1.488c.84 0 1.344-.432 1.344-1.632v-8.736c0-1.2-.504-1.632-1.344-1.632zm8.309 0v4.68h3.624v2.4h-3.624v4.92h4.56v2.4h-7.2v-16.8h7.2v2.4h-4.56zm11.836 14.4L421 418.832V431h-2.376v-16.8h3.312l2.712 10.056V414.2H427V431h-2.712z" fill="#fff"/><path d="M630.39 425h12.239m0 0l-6.12-6.12m6.12 6.12l-6.12 6.12" stroke="#FF8F8F" stroke-width="2" stroke-linecap="round" stroke-linejoin="round"/><path d="M26 671c0-11.046 8.954-20 20-20h633v44c0 11.046-8.954 20-20 20H26v-44z" fill="#E60001"/><path d="M101.774 679.736l-.022-.052s-4.118-8.89-4.675-9.771c-.837 2.539-9.37 8.808-19.584 12.921-6.171 2.486-11.973 3.165-13.218 2.021-2.456-2.252 5.088-8.159 13.71-12.754 5.502-2.932 10.561-4.523 11.955-4.953l-.05-.148c-22.424 5.16-33.561 16.357-31.687 20.028 1.805 3.53 13.174 2.28 24.197-2.708 4.438-2.012 7.846-3.881 10.122-5.35.375-.244.753-.363 1.122.276.529.907 1.564 3.32 1.593 3.387.983 2.147-2.751 6.84-11.154 10.788-7.76 3.642-15.69 4.963-19.179 3.692-.53-.191-1.046-.418-1.702-1.072-.56-.555-1.392-2.022-1.659-2.479l-.182.095c.914 1.924 1.79 3.488 2.158 3.865 2.746 2.82 13.12 1.464 22.528-2.869 9.166-4.225 17.439-11.282 15.727-14.917z" fill="#FF8F8F"/><path d="M129.073 689l-3.288-12.168V689h-2.376v-16.8h3.312l2.712 10.056V672.2h2.352V689h-2.712zm10.458-16.8l2.688 16.8h-2.664l-.456-3.048h-3.24l-.456 3.048h-2.424l2.688-16.8h3.864zm-2.064 2.976l-1.272 8.496h2.544l-1.272-8.496zm11.118 7.56h2.496v2.232c0 2.688-1.344 4.224-3.936 4.224-2.592 0-3.936-1.536-3.936-4.224v-8.736c0-2.688 1.344-4.224 3.936-4.224 2.592 0 3.936 1.536 3.936 4.224v1.632h-2.496v-1.8c0-1.2-.528-1.656-1.368-1.656-.84 0-1.368.456-1.368 1.656v9.072c0 1.2.528 1.632 1.368 1.632.84 0 1.368-.432 1.368-1.632v-2.4zm6.738-.936v7.2h-2.64v-16.8h2.64v7.2h3v-7.2h2.688V689h-2.688v-7.2h-3zm14.418 7.2l-.96-8.952-.96 8.952h-3.624l-1.872-16.8h2.568l1.416 13.248 1.272-13.248h2.544l1.32 13.344 1.368-13.344h2.304l-1.872 16.8h-3.504zm6.587-16.8h2.64v12.96c0 1.2.528 1.632 1.368 1.632.84 0 1.368-.432 1.368-1.632V672.2h2.496v12.792c0 2.688-1.344 4.224-3.936 4.224-2.592 0-3.936-1.536-3.936-4.224V672.2zm14.843 10.536h2.496v2.232c0 2.688-1.344 4.224-3.936 4.224-2.592 0-3.936-1.536-3.936-4.224v-8.736c0-2.688 1.344-4.224 3.936-4.224 2.592 0 3.936 1.536 3.936 4.224v1.632h-2.496v-1.8c0-1.2-.528-1.656-1.368-1.656-.84 0-1.368.456-1.368 1.656v9.072c0 1.2.528 1.632 1.368 1.632.84 0 1.368-.432 1.368-1.632v-2.4zm6.738-.936v7.2h-2.64v-16.8h2.64v7.2h3v-7.2h2.688V689h-2.688v-7.2h-3zm7.266-5.568c0-2.688 1.32-4.224 3.888-4.224 2.568 0 3.888 1.536 3.888 4.224v.528h-2.496v-.696c0-1.2-.48-1.656-1.32-1.656-.84 0-1.32.456-1.32 1.656 0 3.456 5.16 4.104 5.16 8.904 0 2.688-1.344 4.224-3.936 4.224-2.592 0-3.936-1.536-3.936-4.224v-1.032h2.496v1.2c0 1.2.528 1.632 1.368 1.632.84 0 1.368-.432 1.368-1.632 0-3.456-5.16-4.104-5.16-8.904z" fill="#fff"/><path d="M630.39 683h12.239m0 0l-6.12-6.12m6.12 6.12l-6.12 6.12" stroke="#FF8F8F" stroke-width="2" stroke-linecap="round" stroke-linejoin="round"/><path d="M230.567 345.8l1.792 11.2h-1.776l-.304-2.032h-2.16l-.304 2.032h-1.616l1.792-11.2h2.576zm-1.376 1.984l-.848 5.664h1.696l-.848-5.664zm7.748 9.216l-2.192-8.112V357h-1.584v-11.2h2.208l1.808 6.704V345.8h1.568V357h-1.808zm4.828-9.6v3.376h2.272v1.6h-2.272V357h-1.76v-11.2h4.656v1.6h-2.896zm9.212 9.6h-1.792c-.096-.288-.16-.464-.16-1.376v-1.76c0-1.04-.352-1.424-1.152-1.424h-.608V357h-1.76v-11.2h2.656c1.824 0 2.608.848 2.608 2.576v.88c0 1.152-.368 1.904-1.152 2.272.88.368 1.168 1.216 1.168 2.384v1.728c0 .544.016.944.192 1.36zm-2.864-9.6h-.848v3.44h.688c.656 0 1.056-.288 1.056-1.184v-1.104c0-.8-.272-1.152-.896-1.152zm7.734-1.6l1.792 11.2h-1.776l-.304-2.032h-2.16l-.304 2.032h-1.616l1.792-11.2h2.576zm-1.376 1.984l-.848 5.664h1.696l-.848-5.664zm6.612 4.576v-1.6h2.464v3.552c0 1.792-.896 2.816-2.624 2.816-1.728 0-2.624-1.024-2.624-2.816v-5.824c0-1.792.896-2.816 2.624-2.816 1.728 0 2.624 1.024 2.624 2.816v1.088h-1.664v-1.2c0-.8-.352-1.104-.912-1.104s-.912.304-.912 1.104v6.048c0 .8.352 1.088.912 1.088s.912-.288.912-1.088v-2.064h-.8zm5.354-4.96v3.12h2.416v1.6h-2.416v3.28h3.04v1.6h-4.8v-11.2h4.8v1.6h-3.04zm6.615 9.6v-11.2h2.784c1.76 0 2.624.976 2.624 2.768v5.664c0 1.792-.864 2.768-2.624 2.768h-2.784zm2.752-9.6h-.992v8h.992c.56 0 .896-.288.896-1.088v-5.824c0-.8-.336-1.088-.896-1.088zm3.699-1.6h1.76v8.64c0 .8.352 1.088.912 1.088s.912-.288.912-1.088v-8.64h1.664v8.528c0 1.792-.896 2.816-2.624 2.816-1.728 0-2.624-1.024-2.624-2.816V345.8zm11.927 11.2h-1.792c-.096-.288-.16-.464-.16-1.376v-1.76c0-1.04-.352-1.424-1.152-1.424h-.608V357h-1.76v-11.2h2.656c1.824 0 2.608.848 2.608 2.576v.88c0 1.152-.368 1.904-1.152 2.272.88.368 1.168 1.216 1.168 2.384v1.728c0 .544.016.944.192 1.36zm-2.864-9.6h-.848v3.44h.688c.656 0 1.056-.288 1.056-1.184v-1.104c0-.8-.272-1.152-.896-1.152zm7.27 5.424h1.664v1.488c0 1.792-.896 2.816-2.624 2.816-1.728 0-2.624-1.024-2.624-2.816v-5.824c0-1.792.896-2.816 2.624-2.816 1.728 0 2.624 1.024 2.624 2.816v1.088h-1.664v-1.2c0-.8-.352-1.104-.912-1.104s-.912.304-.912 1.104v6.048c0 .8.352 1.088.912 1.088s.912-.288.912-1.088v-1.6zm4.492-.624v4.8h-1.76v-11.2h1.76v4.8h2v-4.8h1.792V357h-1.792v-4.8h-2zm7.328-3.712c0-1.792.88-2.816 2.592-2.816 1.712 0 2.592 1.024 2.592 2.816v.352h-1.664v-.464c0-.8-.32-1.104-.88-1.104s-.88.304-.88 1.104c0 2.304 3.44 2.736 3.44 5.936 0 1.792-.896 2.816-2.624 2.816-1.728 0-2.624-1.024-2.624-2.816v-.688h1.664v.8c0 .8.352 1.088.912 1.088s.912-.288.912-1.088c0-2.304-3.44-2.736-3.44-5.936zM319.339 357h-1.792c-.096-.288-.16-.464-.16-1.376v-1.76c0-1.04-.352-1.424-1.152-1.424h-.608V357h-1.76v-11.2h2.656c1.824 0 2.608.848 2.608 2.576v.88c0 1.152-.368 1.904-1.152 2.272.88.368 1.168 1.216 1.168 2.384v1.728c0 .544.016.944.192 1.36zm-2.864-9.6h-.848v3.44h.688c.656 0 1.056-.288 1.056-1.184v-1.104c0-.8-.272-1.152-.896-1.152zm3.749 4.8v-1.6h3.2v1.6h-3.2zm5.548-6.4l1.344 9.136 1.344-9.136h1.616l-1.728 11.2h-2.624l-1.728-11.2h1.776zm6.886 1.6v3.12h2.416v1.6h-2.416v3.28h3.04v1.6h-4.8v-11.2h4.8v1.6h-3.04zm9.602 9.6h-1.792c-.096-.288-.16-.464-.16-1.376v-1.76c0-1.04-.352-1.424-1.152-1.424h-.608V357h-1.76v-11.2h2.656c1.824 0 2.608.848 2.608 2.576v.88c0 1.152-.368 1.904-1.152 2.272.88.368 1.168 1.216 1.168 2.384v1.728c0 .544.016.944.192 1.36zm-2.864-9.6h-.848v3.44h.688c.656 0 1.056-.288 1.056-1.184v-1.104c0-.8-.272-1.152-.896-1.152zm7.734-1.6l1.792 11.2h-1.776l-.304-2.032h-2.16l-.304 2.032h-1.616l1.792-11.2h2.576zm-1.376 1.984l-.848 5.664h1.696l-.848-5.664zm7.748 9.216l-2.192-8.112V357h-1.584v-11.2h2.208l1.808 6.704V345.8h1.568V357h-1.808zm2.556-9.6v-1.6h5.44v1.6h-1.84v9.6h-1.76v-9.6h-1.84zm10.759 9.6l-.64-5.968-.64 5.968h-2.416l-1.248-11.2h1.712l.944 8.832.848-8.832h1.696l.88 8.896.912-8.896h1.536l-1.248 11.2h-2.336zm6.087-8.624v6.048c0 .8.352 1.104.912 1.104s.912-.304.912-1.104v-6.048c0-.8-.352-1.104-.912-1.104s-.912.304-.912 1.104zm-1.76 5.936v-5.824c0-1.792.944-2.816 2.672-2.816 1.728 0 2.672 1.024 2.672 2.816v5.824c0 1.792-.944 2.816-2.672 2.816-1.728 0-2.672-1.024-2.672-2.816zm11.96 2.688h-1.792c-.096-.288-.16-.464-.16-1.376v-1.76c0-1.04-.352-1.424-1.152-1.424h-.608V357h-1.76v-11.2h2.656c1.824 0 2.608.848 2.608 2.576v.88c0 1.152-.368 1.904-1.152 2.272.88.368 1.168 1.216 1.168 2.384v1.728c0 .544.016.944.192 1.36zm-2.864-9.6h-.848v3.44h.688c.656 0 1.056-.288 1.056-1.184v-1.104c0-.8-.272-1.152-.896-1.152zm3.318 0v-1.6h5.44v1.6h-1.84v9.6h-1.76v-9.6h-1.84zm6.215 9.6v-11.2h1.76v9.6h2.896v1.6h-4.656zm5.422 0v-11.2h1.76V357h-1.76zm6.487-4.176h1.664v1.488c0 1.792-.896 2.816-2.624 2.816-1.728 0-2.624-1.024-2.624-2.816v-5.824c0-1.792.896-2.816 2.624-2.816 1.728 0 2.624 1.024 2.624 2.816v1.088h-1.664v-1.2c0-.8-.352-1.104-.912-1.104s-.912.304-.912 1.104v6.048c0 .8.352 1.088.912 1.088s.912-.288.912-1.088v-1.6zm4.491-.624v4.8h-1.76v-11.2h1.76v4.8h2v-4.8h1.792V357h-1.792v-4.8h-2zm6.829-4.8v3.12h2.416v1.6h-2.416v3.28h3.04v1.6h-4.8v-11.2h4.8v1.6h-3.04zm3.57 9.6l4.416-11.2h1.52l-4.416 11.2h-1.52zm12.126 0h-1.792c-.096-.288-.16-.464-.16-1.376v-1.76c0-1.04-.352-1.424-1.152-1.424h-.608V357h-1.76v-11.2h2.656c1.824 0 2.608.848 2.608 2.576v.88c0 1.152-.368 1.904-1.152 2.272.88.368 1.168 1.216 1.168 2.384v1.728c0 .544.016.944.192 1.36zm-2.864-9.6h-.848v3.44h.688c.656 0 1.056-.288 1.056-1.184v-1.104c0-.8-.272-1.152-.896-1.152zm9.754 5.424h1.664v1.488c0 1.792-.896 2.816-2.624 2.816-1.728 0-2.624-1.024-2.624-2.816v-5.824c0-1.792.896-2.816 2.624-2.816 1.728 0 2.624 1.024 2.624 2.816v1.088h-1.664v-1.2c0-.8-.352-1.104-.912-1.104s-.912.304-.912 1.104v6.048c0 .8.352 1.088.912 1.088s.912-.288.912-1.088v-1.6zM438.32 357v-11.2h1.76v9.6h2.896v1.6h-4.656zm5.342-11.2h1.76v8.64c0 .8.352 1.088.912 1.088s.912-.288.912-1.088v-8.64h1.664v8.528c0 1.792-.896 2.816-2.624 2.816-1.728 0-2.624-1.024-2.624-2.816V345.8zm9.111 0c1.824 0 2.608.848 2.608 2.576v.4c0 1.152-.352 1.888-1.136 2.256.944.368 1.312 1.216 1.312 2.4v.912c0 1.728-.912 2.656-2.672 2.656h-2.768v-11.2h2.656zm-.112 6.16h-.784v3.44h1.008c.592 0 .912-.272.912-1.104v-.976c0-1.04-.336-1.36-1.136-1.36zm.064-4.56h-.848v2.96h.688c.656 0 1.056-.288 1.056-1.184v-.624c0-.8-.272-1.152-.896-1.152zM525.353 339.4v3.376h2.272v1.6h-2.272V349h-1.76v-11.2h4.656v1.6h-2.896zm9.212 9.6h-1.792c-.096-.288-.16-.464-.16-1.376v-1.76c0-1.04-.352-1.424-1.152-1.424h-.608V349h-1.76v-11.2h2.656c1.824 0 2.608.848 2.608 2.576v.88c0 1.152-.368 1.904-1.152 2.272.88.368 1.168 1.216 1.168 2.384v1.728c0 .544.016.944.192 1.36zm-2.864-9.6h-.848v3.44h.688c.656 0 1.056-.288 1.056-1.184v-1.104c0-.8-.272-1.152-.896-1.152zm5.59 0v3.12h2.416v1.6h-2.416v3.28h3.04v1.6h-4.8v-11.2h4.8v1.6h-3.04zm4.13 9.6v-11.2h1.76V349h-1.76zm7.591 0l-.64-5.968-.64 5.968h-2.416l-1.248-11.2h1.712l.944 8.832.848-8.832h1.696l.88 8.896.912-8.896h1.536l-1.248 11.2h-2.336zm4.472 0v-11.2h1.76V349h-1.76zm3.047 0v-11.2h1.76v9.6h2.896v1.6h-4.656zm5.422 0v-11.2h1.76v9.6h2.896v1.6h-4.656zm5.421 0v-11.2h1.76V349h-1.76zm5.687-4.64v-1.6h2.464v3.552c0 1.792-.896 2.816-2.624 2.816-1.728 0-2.624-1.024-2.624-2.816v-5.824c0-1.792.896-2.816 2.624-2.816 1.728 0 2.624 1.024 2.624 2.816v1.088h-1.664v-1.2c0-.8-.352-1.104-.912-1.104s-.912.304-.912 1.104v6.048c0 .8.352 1.088.912 1.088s.912-.288.912-1.088v-2.064h-.8zm5.355-4.96v3.12h2.416v1.6h-2.416v3.28h3.04v1.6h-4.8v-11.2h4.8v1.6h-3.04zm3.906 1.088c0-1.792.88-2.816 2.592-2.816 1.712 0 2.592 1.024 2.592 2.816v.352h-1.664v-.464c0-.8-.32-1.104-.88-1.104s-.88.304-.88 1.104c0 2.304 3.44 2.736 3.44 5.936 0 1.792-.896 2.816-2.624 2.816-1.728 0-2.624-1.024-2.624-2.816v-.688h1.664v.8c0 .8.352 1.088.912 1.088s.912-.288.912-1.088c0-2.304-3.44-2.736-3.44-5.936zM532.312 365v-11.2h1.76V365h-1.76zm6.807 0l-2.192-8.112V365h-1.584v-11.2h2.208l1.808 6.704V353.8h1.568V365h-1.808zm2.556-9.6v-1.6h5.44v1.6h-1.84v9.6h-1.76v-9.6h-1.84zm7.975 0v3.12h2.416v1.6h-2.416v3.28h3.04v1.6h-4.8v-11.2h4.8v1.6h-3.04zm9.603 9.6h-1.792c-.096-.288-.16-.464-.16-1.376v-1.76c0-1.04-.352-1.424-1.152-1.424h-.608V365h-1.76v-11.2h2.656c1.824 0 2.608.848 2.608 2.576v.88c0 1.152-.368 1.904-1.152 2.272.88.368 1.168 1.216 1.168 2.384v1.728c0 .544.016.944.192 1.36zm-2.864-9.6h-.848v3.44h.688c.656 0 1.056-.288 1.056-1.184v-1.104c0-.8-.272-1.152-.896-1.152zm5.589 0v3.12h2.416v1.6h-2.416v3.28h3.04v1.6h-4.8v-11.2h4.8v1.6h-3.04zm3.907 1.088c0-1.792.88-2.816 2.592-2.816 1.712 0 2.592 1.024 2.592 2.816v.352h-1.664v-.464c0-.8-.32-1.104-.88-1.104s-.88.304-.88 1.104c0 2.304 3.44 2.736 3.44 5.936 0 1.792-.896 2.816-2.624 2.816-1.728 0-2.624-1.024-2.624-2.816v-.688h1.664v.8c0 .8.352 1.088.912 1.088s.912-.288.912-1.088c0-2.304-3.44-2.736-3.44-5.936zm5.984 0c0-1.792.88-2.816 2.592-2.816 1.712 0 2.592 1.024 2.592 2.816v.352h-1.664v-.464c0-.8-.32-1.104-.88-1.104s-.88.304-.88 1.104c0 2.304 3.44 2.736 3.44 5.936 0 1.792-.896 2.816-2.624 2.816-1.728 0-2.624-1.024-2.624-2.816v-.688h1.664v.8c0 .8.352 1.088.912 1.088s.912-.288.912-1.088c0-2.304-3.44-2.736-3.44-5.936zm7.969-1.088v3.12h2.416v1.6h-2.416v3.28h3.04v1.6h-4.8v-11.2h4.8v1.6h-3.04z" fill="#000"/><path d="M677.507 88v.5h.993v1.007h.5v3.014h-.5v3.015h.5v3.016h-.5v3.014h.5v3.015h-.5v3.015h.5v3.014h-.5v3.015h.5v3.015h-.5v3.014h.5v3.015h-.5v3.015h.5v3.014h-.5v3.015h.5v3.015h-.5v3.014h.5v3.015h-.5v3.014h.5v3.016h-.5v3.015h.5v3.014h-.5v3.015h.5v3.015h-.5v3.014h.5v3.015h-.5v3.015h.5v3.014h-.5v3.015h.5v3.015h-.5v3.014h.5v3.015h-.5v3.015h.5v3.014h-.5v3.015h.5v3.015h-.5v3.015h.5v3.015h-.5v3.014h.5v3.015h-.5v3.015h.5v3.014h-.5v3.015h.5v3.015h-.5v3.014h.5v3.015h-.5v3.015h.5v3.014h-.5v3.015h.5v3.015h-.5v3.014h.5v3.016h-.5v3.014h.5v3.015h-.5v3.015h.5v3.014h-.5v3.015h.5v3.015h-.5v3.014h.5v3.015h-.5v3.015h.5v3.014h-.5v3.015h.5v3.015h-.5v3.014h.5v3.015h-.5v3.015h.5v3.014h-.5V293c0 .516-.02 1.027-.06 1.532l.498.037a19.901 19.901 0 01-.488 3.101l-.484-.115a19.458 19.458 0 01-.945 2.909l.46.19a19.918 19.918 0 01-1.426 2.796l-.426-.261c-.536.873-1.139 1.7-1.801 2.475l.379.324a20.215 20.215 0 01-2.219 2.219l-.324-.379a19.605 19.605 0 01-2.475 1.801l.261.426a19.918 19.918 0 01-2.796 1.426l-.19-.46c-.935.387-1.907.705-2.909.945l.115.484a19.901 19.901 0 01-3.101.488l-.037-.498c-.505.04-1.016.06-1.532.06h-1.494v.5h-2.985v-.5h-2.987v.5h-2.985v-.5h-2.987v.5h-2.985v-.5h-2.986v.5h-2.986v-.5h-2.986v.5h-2.985v-.5h-2.987v.5h-2.985v-.5h-2.986v.5h-2.986v-.5h-2.986v.5h-2.985v-.5h-2.987v.5h-2.985v-.5h-2.986v.5h-2.986v-.5h-2.986v.5h-2.985v-.5h-2.987v.5h-2.985v-.5h-2.986v.5h-2.986v-.5h-2.986v.5h-2.985v-.5h-2.987v.5h-2.985v-.5h-2.986v.5h-2.986v-.5h-2.986v.5h-2.985v-.5h-2.987v.5h-2.985v-.5h-2.986v.5h-2.986v-.5h-2.986v.5h-2.985v-.5h-2.987v.5h-2.985v-.5h-2.986v.5h-2.986v-.5h-2.986v.5h-2.985v-.5h-2.987v.5h-2.985v-.5h-2.986v.5H511.2v-.5h-2.986v.5h-2.985v-.5h-2.987v.5h-2.985v-.5h-2.986v.5h-2.986v-.5h-2.986v.5h-2.986v-.5h-2.986v.5h-2.985v-.5h-2.987v.5h-2.985v-.5h-2.986v.5h-2.986v-.5h-2.986v.5h-2.985v-.5h-2.987v.5h-2.985v-.5h-2.986v.5h-2.986v-.5h-2.986v.5h-2.985v-.5h-2.987v.5h-2.985v-.5h-2.986v.5h-2.986v-.5h-2.986v.5h-2.985v-.5h-2.987v.5h-2.985v-.5h-2.986v.5h-2.986v-.5h-2.986v.5h-2.985v-.5h-2.987v.5h-2.985v-.5h-2.986v.5h-2.986v-.5h-2.986v.5h-2.985v-.5h-2.987v.5h-2.985v-.5h-2.986v.5h-2.986v-.5h-2.986v.5h-2.985v-.5h-2.987v.5h-2.985v-.5h-2.986v.5h-2.986v-.5h-2.986v.5h-2.985v-.5h-2.987v.5h-2.985v-.5h-2.986v.5h-2.986v-.5h-2.986v.5h-2.986v-.5h-2.986v.5h-2.985v-.5h-2.987v.5h-2.985v-.5h-2.986v.5h-2.986v-.5h-2.986v.5h-2.985v-.5h-2.987v.5h-2.985v-.5h-2.986v.5h-2.986v-.5h-2.986v.5h-2.985v-.5h-2.987v.5h-2.985v-.5h-2.986v.5h-2.986v-.5h-2.986v.5h-2.985v-.5h-2.987v.5h-2.985v-.5h-2.986v.5h-2.986v-.5h-2.986v.5h-2.985v-.5h-2.987v.5h-2.985v-.5h-2.986v.5h-2.986v-.5h-2.986v.5h-2.985v-.5h-2.987v.5h-2.985v-.5h-2.986v.5h-2.986v-.5h-2.986v.5h-2.986v-.5h-2.986v.5h-2.986v-.5h-2.985v.5h-2.987v-.5h-2.985v.5h-2.986v-.5h-2.986v.5h-2.986v-.5h-2.985v.5H194.7v-.5h-2.985v.5h-2.986v-.5h-2.986v.5h-2.986v-.5h-2.986v.5h-2.986v-.5H173.8v.5h-2.987v-.5h-2.985v.5h-2.986v-.5h-2.986v.5h-2.986v-.5h-2.985v.5h-2.987v-.5h-2.985v.5h-2.986v-.5h-2.986v.5h-2.986v-.5h-2.985v.5h-2.987v-.5h-2.985v.5h-2.986v-.5h-2.986v.5h-2.986v-.5h-2.985v.5h-2.987v-.5h-2.985v.5h-2.986v-.5h-2.987v.5h-2.985v-.5h-2.986v.5h-2.986v-.5h-2.986v.5h-2.985v-.5h-2.987v.5H87.21v-.5h-2.986v.5h-2.986v-.5h-2.986v.5h-2.985v-.5H72.28v.5h-2.985v-.5h-2.986v.5h-2.986v-.5h-2.986v.5h-2.985v-.5h-2.987v.5H51.38v-.5h-2.986v.5h-2.986v-.5h-2.986v.5h-2.985v-.5H36.45v.5h-2.985v-.5h-2.987v.5h-2.985v-.5H26.5v-1.007H26v-3.014h.5v-3.015H26v-3.016h.5v-3.014H26v-3.015h.5v-3.015H26v-3.014h.5v-3.015H26v-3.015h.5v-3.014H26v-3.015h.5v-3.015H26v-3.014h.5v-3.015H26v-3.015h.5v-3.014H26v-3.015h.5v-3.014H26v-3.016h.5v-3.015H26v-3.014h.5v-3.015H26v-3.015h.5v-3.014H26v-3.015h.5v-3.015H26v-3.014h.5v-3.015H26v-3.015h.5v-3.014H26v-3.015h.5v-3.015H26v-3.014h.5v-3.015H26v-3.015h.5v-3.015H26v-3.015h.5v-3.014H26v-3.015h.5v-3.015H26v-3.014h.5v-3.015H26v-3.015h.5v-3.014H26v-3.015h.5v-3.015H26v-3.014h.5v-3.015H26v-3.015h.5v-3.014H26v-3.016h.5v-3.014H26v-3.015h.5v-3.015H26v-3.014h.5v-3.015H26v-3.015h.5v-3.014H26v-3.015h.5v-3.015H26v-3.014h.5v-3.015H26v-3.015h.5v-3.014H26v-3.015h.5v-3.015H26v-3.014h.5V108c0-.516.02-1.027.06-1.532l-.5-.038c.083-1.059.248-2.095.489-3.101l.485.116c.24-1.002.558-1.974.946-2.909l-.462-.191a19.93 19.93 0 011.426-2.796l.427.261c.536-.872 1.139-1.7 1.8-2.474l-.379-.325a20.122 20.122 0 012.219-2.219l.325.38a19.562 19.562 0 012.474-1.8l-.261-.428a19.942 19.942 0 012.796-1.426l.191.462a19.347 19.347 0 012.91-.946l-.117-.485a19.975 19.975 0 013.1-.489l.039.5c.505-.04 1.016-.06 1.532-.06h1.494V88h2.986v.5h2.986V88h2.985v.5h2.986V88h2.986v.5h2.986V88h2.985v.5h2.987V88h2.985v.5h2.987V88h2.985v.5h2.986V88h2.986v.5h2.986V88h2.985v.5h2.987V88h2.985v.5h2.986V88h2.986v.5h2.986V88h2.985v.5h2.987V88h2.985v.5h2.986V88h2.986v.5h2.986V88h2.985v.5h2.987V88h2.985v.5h2.986V88h2.986v.5h2.986V88h2.985v.5h2.987V88h2.985v.5h2.986V88h2.986v.5h2.986V88h2.985v.5h2.987V88h2.985v.5h2.986V88h2.986v.5h2.986V88h2.985v.5h2.987V88h2.985v.5h2.986V88h2.986v.5h2.986V88h2.985v.5h2.987V88h2.985v.5h2.986V88h2.986v.5h2.986V88h2.986v.5h2.986V88h2.985v.5h2.987V88h2.985v.5h2.986V88h2.986v.5h2.986V88h2.985v.5h2.987V88h2.985v.5h2.986V88h2.986v.5h2.986V88h2.985v.5h2.987V88h2.985v.5h2.986V88h2.986v.5h2.986V88h2.985v.5h2.987V88h2.985v.5h2.986V88h2.986v.5h2.986V88h2.985v.5h2.987V88h2.985v.5h2.986V88h2.986v.5h2.986V88h2.985v.5h2.987V88h2.985v.5h2.986V88h2.986v.5h2.986V88h2.985v.5h2.987V88h2.985v.5h2.986V88h2.986v.5h2.986V88h2.985v.5h2.987V88h2.985v.5h2.986V88h2.986v.5h2.986V88h2.986v.5h2.986V88h2.985v.5h2.987V88h2.985v.5h2.986V88h2.986v.5h2.986V88h2.985v.5h2.987V88h2.985v.5h2.986V88h2.986v.5h2.986V88h2.985v.5h2.987V88h2.985v.5h2.986V88h2.986v.5h2.986V88h2.985v.5h2.987V88h2.985v.5h2.986V88h2.986v.5h2.986V88h2.985v.5h2.987V88h2.985v.5h2.986V88h2.986v.5h2.986V88h2.985v.5h2.987V88h2.985v.5h2.986V88h2.986v.5h2.986V88h2.986v.5h2.986V88h2.986v.5h2.985V88h2.987v.5h2.985V88h2.986v.5h2.986V88h2.986v.5h2.985V88h2.987v.5h2.985V88h2.986v.5h2.986V88h2.986v.5h2.986V88h2.986v.5h2.985V88h2.987v.5h2.985V88h2.986v.5h2.986V88h2.986v.5h2.985V88h2.987v.5h2.985V88h2.986v.5h2.986V88h2.986v.5h2.985V88h2.987v.5h2.985V88h2.986v.5h2.986V88h2.986v.5h2.985V88h2.987v.5h2.985V88h2.986v.5h2.987V88h2.985v.5h2.986V88h2.986v.5h2.986V88h2.985v.5h2.987V88h2.985v.5h2.986V88h2.986v.5h2.986V88h2.985v.5h2.987V88h2.985v.5h2.986V88h2.986v.5h2.986V88h2.985v.5h2.987V88h2.985v.5h2.986V88h2.986v.5h2.986V88h2.985v.5h2.987V88h2.985v.5h2.986V88h2.986z" stroke="#FF5756" stroke-dasharray="3 3"/><path d="M242 128c0-11.046 8.954-20 20-20h180v164.982c0 11.045-8.954 20-20 20H242V128z" fill="#E60001"/><path d="M363.774 152.736l-.022-.052s-4.118-8.89-4.675-9.771c-.836 2.539-9.37 8.808-19.583 12.921-6.172 2.486-11.974 3.165-13.219 2.021-2.456-2.252 5.088-8.159 13.71-12.754 5.502-2.932 10.561-4.523 11.955-4.953l-.05-.148c-22.424 5.16-33.561 16.357-31.687 20.028 1.805 3.53 13.174 2.28 24.197-2.708 4.438-2.012 7.846-3.881 10.122-5.35.375-.244.754-.363 1.122.276.529.907 1.564 3.32 1.593 3.387.983 2.147-2.751 6.84-11.154 10.788-7.76 3.642-15.689 4.963-19.179 3.692-.531-.191-1.046-.418-1.703-1.072-.56-.555-1.391-2.022-1.658-2.479l-.182.095c.914 1.924 1.791 3.488 2.157 3.865 2.747 2.82 13.12 1.464 22.529-2.869 9.165-4.225 17.439-11.282 15.727-14.917z" fill="#FF8F8F"/><path d="M303.073 210l-3.288-12.168V210h-2.376v-16.8h3.312l2.712 10.056V193.2h2.352V210h-2.712zm10.458-16.8l2.688 16.8h-2.664l-.456-3.048h-3.24l-.456 3.048h-2.424l2.688-16.8h3.864zm-2.064 2.976l-1.272 8.496h2.544l-1.272-8.496zm11.118 7.56h2.496v2.232c0 2.688-1.344 4.224-3.936 4.224-2.592 0-3.936-1.536-3.936-4.224v-8.736c0-2.688 1.344-4.224 3.936-4.224 2.592 0 3.936 1.536 3.936 4.224v1.632h-2.496v-1.8c0-1.2-.528-1.656-1.368-1.656-.84 0-1.368.456-1.368 1.656v9.072c0 1.2.528 1.632 1.368 1.632.84 0 1.368-.432 1.368-1.632v-2.4zm6.738-.936v7.2h-2.64v-16.8h2.64v7.2h3v-7.2h2.688V210h-2.688v-7.2h-3zm14.418 7.2l-.96-8.952-.96 8.952h-3.624l-1.872-16.8h2.568l1.416 13.248 1.272-13.248h2.544l1.32 13.344 1.368-13.344h2.304l-1.872 16.8h-3.504zm6.587-16.8h2.64v12.96c0 1.2.528 1.632 1.368 1.632.84 0 1.368-.432 1.368-1.632V193.2h2.496v12.792c0 2.688-1.344 4.224-3.936 4.224-2.592 0-3.936-1.536-3.936-4.224V193.2zm14.843 10.536h2.496v2.232c0 2.688-1.344 4.224-3.936 4.224-2.592 0-3.936-1.536-3.936-4.224v-8.736c0-2.688 1.344-4.224 3.936-4.224 2.592 0 3.936 1.536 3.936 4.224v1.632h-2.496v-1.8c0-1.2-.528-1.656-1.368-1.656-.84 0-1.368.456-1.368 1.656v9.072c0 1.2.528 1.632 1.368 1.632.84 0 1.368-.432 1.368-1.632v-2.4zm6.738-.936v7.2h-2.64v-16.8h2.64v7.2h3v-7.2h2.688V210h-2.688v-7.2h-3zm7.266-5.568c0-2.688 1.32-4.224 3.888-4.224 2.568 0 3.888 1.536 3.888 4.224v.528h-2.496v-.696c0-1.2-.48-1.656-1.32-1.656-.84 0-1.32.456-1.32 1.656 0 3.456 5.16 4.104 5.16 8.904 0 2.688-1.344 4.224-3.936 4.224-2.592 0-3.936-1.536-3.936-4.224v-1.032h2.496v1.2c0 1.2.528 1.632 1.368 1.632.84 0 1.368-.432 1.368-1.632 0-3.456-5.16-4.104-5.16-8.904z" fill="#fff"/><path d="M335.88 250.491h12.24m0 0l-6.12-6.12m6.12 6.12L342 256.61" stroke="#FF8F8F" stroke-width="2" stroke-linecap="round" stroke-linejoin="round"/><path d="M458 128c0-11.046 8.954-20 20-20h180v164.982c0 11.045-8.954 20-20 20H458V128z" fill="#D8D8D8"/><path d="M579.774 152.736l-.022-.052s-4.118-8.89-4.675-9.771c-.836 2.539-9.37 8.808-19.583 12.921-6.172 2.486-11.974 3.165-13.219 2.021-2.456-2.252 5.088-8.159 13.71-12.754 5.502-2.932 10.561-4.523 11.955-4.953l-.05-.148c-22.424 5.16-33.561 16.357-31.687 20.028 1.805 3.53 13.174 2.28 24.197-2.708 4.438-2.012 7.846-3.881 10.122-5.35.375-.244.754-.363 1.122.276.529.907 1.564 3.32 1.593 3.387.983 2.147-2.751 6.84-11.154 10.788-7.76 3.642-15.689 4.963-19.179 3.692-.531-.191-1.046-.418-1.703-1.072-.56-.555-1.391-2.022-1.658-2.479l-.182.095c.914 1.924 1.791 3.488 2.157 3.865 2.747 2.82 13.12 1.464 22.529-2.869 9.165-4.225 17.439-11.282 15.727-14.917z" fill="#7F7F7F"/><path d="M509.846 193.2c2.736 0 3.912 1.272 3.912 3.864v.6c0 1.728-.528 2.832-1.704 3.384 1.416.552 1.968 1.824 1.968 3.6v1.368c0 2.592-1.368 3.984-4.008 3.984h-4.152v-16.8h3.984zm-.168 9.24h-1.176v5.16h1.512c.888 0 1.368-.408 1.368-1.656v-1.464c0-1.56-.504-2.04-1.704-2.04zm.096-6.84h-1.272v4.44h1.032c.984 0 1.584-.432 1.584-1.776v-.936c0-1.2-.408-1.728-1.344-1.728zM523.82 210h-2.688c-.144-.432-.24-.696-.24-2.064v-2.64c0-1.56-.528-2.136-1.728-2.136h-.912V210h-2.64v-16.8h3.984c2.736 0 3.912 1.272 3.912 3.864v1.32c0 1.728-.552 2.856-1.728 3.408 1.32.552 1.752 1.824 1.752 3.576v2.592c0 .816.024 1.416.288 2.04zm-4.296-14.4h-1.272v5.16h1.032c.984 0 1.584-.432 1.584-1.776v-1.656c0-1.2-.408-1.728-1.344-1.728zm8.385 0v4.68h3.624v2.4h-3.624v4.92h4.56v2.4h-7.2v-16.8h7.2v2.4h-4.56zm6.196 14.4v-16.8h2.64V210h-2.64zm3.802-14.4v-2.4h8.16v2.4h-2.76V210h-2.64v-14.4h-2.76zm11.963 0v4.68h3.624v2.4h-3.624v4.92h4.56v2.4h-7.2v-16.8h7.2v2.4h-4.56zm11.835 14.4l-3.288-12.168V210h-2.376v-16.8h3.312l2.712 10.056V193.2h2.352V210h-2.712zm4.267-12.768c0-2.688 1.32-4.224 3.888-4.224 2.568 0 3.888 1.536 3.888 4.224v.528h-2.496v-.696c0-1.2-.48-1.656-1.32-1.656-.84 0-1.32.456-1.32 1.656 0 3.456 5.16 4.104 5.16 8.904 0 2.688-1.344 4.224-3.936 4.224-2.592 0-3.936-1.536-3.936-4.224v-1.032h2.496v1.2c0 1.2.528 1.632 1.368 1.632.84 0 1.368-.432 1.368-1.632 0-3.456-5.16-4.104-5.16-8.904zm13.2-4.032c2.64 0 3.936 1.464 3.936 4.152v2.184c0 2.688-1.296 4.152-3.936 4.152h-1.248V210h-2.64v-16.8h3.888zm0 2.4h-1.248v5.688h1.248c.84 0 1.296-.384 1.296-1.584v-2.52c0-1.2-.456-1.584-1.296-1.584zm7.583 1.464v9.072c0 1.2.528 1.656 1.368 1.656.84 0 1.368-.456 1.368-1.656v-9.072c0-1.2-.528-1.656-1.368-1.656-.84 0-1.368.456-1.368 1.656zm-2.64 8.904v-8.736c0-2.688 1.416-4.224 4.008-4.224s4.008 1.536 4.008 4.224v8.736c0 2.688-1.416 4.224-4.008 4.224s-4.008-1.536-4.008-4.224zm17.94 4.032h-2.688c-.144-.432-.24-.696-.24-2.064v-2.64c0-1.56-.528-2.136-1.728-2.136h-.912V210h-2.64v-16.8h3.984c2.736 0 3.912 1.272 3.912 3.864v1.32c0 1.728-.552 2.856-1.728 3.408 1.32.552 1.752 1.824 1.752 3.576v2.592c0 .816.024 1.416.288 2.04zm-4.296-14.4h-1.272v5.16h1.032c.984 0 1.584-.432 1.584-1.776v-1.656c0-1.2-.408-1.728-1.344-1.728zm4.976 0v-2.4h8.16v2.4h-2.76V210h-2.64v-14.4h-2.76z" fill="#000"/><path d="M551.88 250.491h12.24m0 0l-6.12-6.12m6.12 6.12L558 256.61" stroke="#A5A5A5" stroke-width="2" stroke-linecap="round" stroke-linejoin="round"/><path d="M52.816 113.2l2.688 16.8H52.84l-.456-3.048h-3.24L48.688 130h-2.424l2.688-16.8h3.864zm-2.064 2.976l-1.272 8.496h2.544l-1.272-8.496zM62.757 130l-2.568-6.696-.816 1.536V130h-2.64v-16.8h2.64v7.32l3.456-7.32h2.64l-3.672 7.488L65.47 130h-2.712zm3.146-14.4v-2.4h8.16v2.4h-2.76V130h-2.64v-14.4h-2.76zm9.323 14.4v-16.8h2.64V130h-2.64zm6.538-16.8l2.016 13.704 2.016-13.704h2.424L85.628 130h-3.936L79.1 113.2h2.664zm7.334 9.6v-2.4h4.8v2.4h-4.8zm6.253-5.568c0-2.688 1.32-4.224 3.888-4.224 2.568 0 3.888 1.536 3.888 4.224v.528h-2.496v-.696c0-1.2-.48-1.656-1.32-1.656-.84 0-1.32.456-1.32 1.656 0 3.456 5.16 4.104 5.16 8.904 0 2.688-1.344 4.224-3.936 4.224-2.592 0-3.936-1.536-3.936-4.224v-1.032h2.496v1.2c0 1.2.528 1.632 1.368 1.632.84 0 1.368-.432 1.368-1.632 0-3.456-5.16-4.104-5.16-8.904zm13.2-4.032c2.64 0 3.936 1.464 3.936 4.152v2.184c0 2.688-1.296 4.152-3.936 4.152h-1.248V130h-2.64v-16.8h3.888zm0 2.4h-1.248v5.688h1.248c.84 0 1.296-.384 1.296-1.584v-2.52c0-1.2-.456-1.584-1.296-1.584zm5.159 14.4v-16.8h2.64V130h-2.64zm7.21-14.4v4.68h3.624v2.4h-3.624v4.92h4.56v2.4h-7.2v-16.8h7.2v2.4h-4.56zm6.196 14.4v-16.8h2.64v14.4h4.344v2.4h-6.984zm10.773-14.4v4.68h3.624v2.4h-3.624v4.92h4.56v2.4h-7.2v-16.8h7.2v2.4h-4.56zm14.404 14.4h-2.688c-.144-.432-.24-.696-.24-2.064v-2.64c0-1.56-.528-2.136-1.728-2.136h-.912V130h-2.64v-16.8h3.984c2.736 0 3.912 1.272 3.912 3.864v1.32c0 1.728-.552 2.856-1.728 3.408 1.32.552 1.752 1.824 1.752 3.576v2.592c0 .816.024 1.416.288 2.04zm-4.296-14.4h-1.272v5.16h1.032c.984 0 1.584-.432 1.584-1.776v-1.656c0-1.2-.408-1.728-1.344-1.728zm4.904 14.4l6.624-16.8h2.28l-6.624 16.8h-2.28zm9.981 0v-16.8h2.64V130h-2.64zm10.21 0l-3.288-12.168V130h-2.376v-16.8h3.312l2.712 10.056V113.2h2.352V130h-2.712zm13.261-12.936v9.072c0 1.2.528 1.656 1.368 1.656.84 0 1.368-.456 1.368-1.656v-9.072c0-1.2-.528-1.656-1.368-1.656-.84 0-1.368.456-1.368 1.656zm-2.64 8.904v-8.736c0-2.688 1.416-4.224 4.008-4.224s4.008 1.536 4.008 4.224v8.736c0 2.688-1.416 4.224-4.008 4.224s-4.008-1.536-4.008-4.224zm9.731 4.032v-16.8h4.176c2.64 0 3.936 1.464 3.936 4.152v8.496c0 2.688-1.296 4.152-3.936 4.152h-4.176zm4.128-14.4h-1.488v12h1.488c.84 0 1.344-.432 1.344-1.632v-8.736c0-1.2-.504-1.632-1.344-1.632zm5.435 11.856h2.544V130h-2.544v-2.544zM49.6 139.6v4.68h3.624v2.4H49.6v4.92h4.56v2.4h-7.2v-16.8h7.2v2.4H49.6zm8.836 7.2v7.2h-2.64v-16.8h2.64v7.2h3v-7.2h2.688V154h-2.688v-7.2h-3zm10.242-7.2v4.68h3.624v2.4h-3.624v4.92h4.56v2.4h-7.2v-16.8h7.2v2.4h-4.56zm9.844-2.4l1.944 11.928 1.8-11.928h3.672V154h-2.496v-12.048L81.618 154h-2.496l-1.968-11.88V154H74.85v-16.8h3.672zm15.192 0l2.688 16.8h-2.664l-.456-3.048h-3.24L89.586 154h-2.424l2.688-16.8h3.864zm-2.064 2.976l-1.272 8.496h2.544l-1.272-8.496zM97.632 154v-16.8h2.64v14.4h4.344v2.4h-6.984zm8.133 0v-16.8h2.64V154h-2.64zm8.53-6.96v-2.4h3.696v5.328c0 2.688-1.344 4.224-3.936 4.224-2.592 0-3.936-1.536-3.936-4.224v-8.736c0-2.688 1.344-4.224 3.936-4.224 2.592 0 3.936 1.536 3.936 4.224v1.632h-2.496v-1.8c0-1.2-.528-1.656-1.368-1.656-.84 0-1.368.456-1.368 1.656v9.072c0 1.2.528 1.632 1.368 1.632.84 0 1.368-.432 1.368-1.632v-3.096h-1.2zm8.032-7.44v4.68h3.624v2.4h-3.624v4.92h4.56v2.4h-7.2v-16.8h7.2v2.4h-4.56zm5.356 14.4l6.624-16.8h2.28l-6.624 16.8h-2.28zm18.188 0h-2.688c-.144-.432-.24-.696-.24-2.064v-2.64c0-1.56-.528-2.136-1.728-2.136h-.912V154h-2.64v-16.8h3.984c2.736 0 3.912 1.272 3.912 3.864v1.32c0 1.728-.552 2.856-1.728 3.408 1.32.552 1.752 1.824 1.752 3.576v2.592c0 .816.024 1.416.288 2.04zm-4.296-14.4h-1.272v5.16h1.032c.984 0 1.584-.432 1.584-1.776v-1.656c0-1.2-.408-1.728-1.344-1.728z" fill="#000"/><path d="M143 769c0-11.046 8.954-20 20-20h180v164.982c0 11.045-8.954 20-20 20H143V769z" fill="#E60001"/><path d="M264.774 793.736l-.022-.052s-4.118-8.89-4.675-9.771c-.836 2.539-9.37 8.808-19.583 12.921-6.172 2.486-11.974 3.165-13.219 2.021-2.456-2.252 5.088-8.159 13.71-12.754 5.502-2.932 10.561-4.523 11.955-4.953l-.05-.148c-22.424 5.16-33.561 16.357-31.687 20.028 1.805 3.53 13.174 2.28 24.197-2.708 4.438-2.012 7.846-3.881 10.122-5.35.375-.244.754-.363 1.122.276.529.907 1.564 3.32 1.593 3.387.983 2.147-2.751 6.84-11.154 10.788-7.76 3.642-15.689 4.963-19.179 3.692-.531-.191-1.046-.418-1.703-1.072-.56-.555-1.391-2.022-1.658-2.479l-.182.095c.914 1.924 1.791 3.488 2.157 3.865 2.747 2.82 13.12 1.464 22.529-2.869 9.165-4.225 17.439-11.282 15.727-14.917z" fill="#FF8F8F"/><path d="M182.483 851v-16.8h2.64v14.4h4.344v2.4h-6.984zm10.773-14.4v4.68h3.624v2.4h-3.624v4.92h4.56v2.4h-7.2v-16.8h7.2v2.4h-4.56zm6.196 14.4v-16.8h2.64V851h-2.64zm4.235-12.768c0-2.688 1.32-4.224 3.888-4.224 2.568 0 3.888 1.536 3.888 4.224v.528h-2.496v-.696c0-1.2-.48-1.656-1.32-1.656-.84 0-1.32.456-1.32 1.656 0 3.456 5.16 4.104 5.16 8.904 0 2.688-1.344 4.224-3.936 4.224-2.592 0-3.936-1.536-3.936-4.224v-1.032h2.496v1.2c0 1.2.528 1.632 1.368 1.632.84 0 1.368-.432 1.368-1.632 0-3.456-5.16-4.104-5.16-8.904zm8.544-1.632v-2.4h8.16v2.4h-2.76V851h-2.64v-14.4h-2.76zm9.203-2.4h2.64v12.96c0 1.2.528 1.632 1.368 1.632.84 0 1.368-.432 1.368-1.632V834.2h2.496v12.792c0 2.688-1.344 4.224-3.936 4.224-2.592 0-3.936-1.536-3.936-4.224V834.2zm15.322 16.8l-3.288-12.168V851h-2.376v-16.8h3.312l2.712 10.056V834.2h2.352V851h-2.712zm8.562-6.96v-2.4h3.696v5.328c0 2.688-1.344 4.224-3.936 4.224-2.592 0-3.936-1.536-3.936-4.224v-8.736c0-2.688 1.344-4.224 3.936-4.224 2.592 0 3.936 1.536 3.936 4.224v1.632h-2.496v-1.8c0-1.2-.528-1.656-1.368-1.656-.84 0-1.368.456-1.368 1.656v9.072c0 1.2.528 1.632 1.368 1.632.84 0 1.368-.432 1.368-1.632v-3.096h-1.2zm5.056-5.808c0-2.688 1.32-4.224 3.888-4.224 2.568 0 3.888 1.536 3.888 4.224v.528h-2.496v-.696c0-1.2-.48-1.656-1.32-1.656-.84 0-1.32.456-1.32 1.656 0 3.456 5.16 4.104 5.16 8.904 0 2.688-1.344 4.224-3.936 4.224-2.592 0-3.936-1.536-3.936-4.224v-1.032h2.496v1.2c0 1.2.528 1.632 1.368 1.632.84 0 1.368-.432 1.368-1.632 0-3.456-5.16-4.104-5.16-8.904zm8.977 0c0-2.688 1.32-4.224 3.888-4.224 2.568 0 3.888 1.536 3.888 4.224v.528h-2.496v-.696c0-1.2-.48-1.656-1.32-1.656-.84 0-1.32.456-1.32 1.656 0 3.456 5.16 4.104 5.16 8.904 0 2.688-1.344 4.224-3.936 4.224-2.592 0-3.936-1.536-3.936-4.224v-1.032h2.496v1.2c0 1.2.528 1.632 1.368 1.632.84 0 1.368-.432 1.368-1.632 0-3.456-5.16-4.104-5.16-8.904zm13.2-4.032c2.64 0 3.936 1.464 3.936 4.152v2.184c0 2.688-1.296 4.152-3.936 4.152h-1.248V851h-2.64v-16.8h3.888zm0 2.4h-1.248v5.688h1.248c.84 0 1.296-.384 1.296-1.584v-2.52c0-1.2-.456-1.584-1.296-1.584zm7.583 1.464v9.072c0 1.2.528 1.656 1.368 1.656.84 0 1.368-.456 1.368-1.656v-9.072c0-1.2-.528-1.656-1.368-1.656-.84 0-1.368.456-1.368 1.656zm-2.64 8.904v-8.736c0-2.688 1.416-4.224 4.008-4.224s4.008 1.536 4.008 4.224v8.736c0 2.688-1.416 4.224-4.008 4.224s-4.008-1.536-4.008-4.224zm17.94 4.032h-2.688c-.144-.432-.24-.696-.24-2.064v-2.64c0-1.56-.528-2.136-1.728-2.136h-.912V851h-2.64v-16.8h3.984c2.736 0 3.912 1.272 3.912 3.864v1.32c0 1.728-.552 2.856-1.728 3.408 1.32.552 1.752 1.824 1.752 3.576v2.592c0 .816.024 1.416.288 2.04zm-4.296-14.4h-1.272v5.16h1.032c.984 0 1.584-.432 1.584-1.776v-1.656c0-1.2-.408-1.728-1.344-1.728zm4.976 0v-2.4h8.16v2.4h-2.76V851h-2.64v-14.4h-2.76z" fill="#fff"/><path d="M236.88 891.491h12.24m0 0l-6.12-6.12m6.12 6.12L243 897.61" stroke="#FF8F8F" stroke-width="2" stroke-linecap="round" stroke-linejoin="round"/><path d="M359 769c0-11.046 8.954-20 20-20h180v164.982c0 11.045-8.954 20-20 20H359V769z" fill="#D8D8D8"/><path d="M480.774 793.736l-.022-.052s-4.118-8.89-4.675-9.771c-.836 2.539-9.37 8.808-19.583 12.921-6.172 2.486-11.974 3.165-13.219 2.021-2.456-2.252 5.088-8.159 13.71-12.754 5.502-2.932 10.561-4.523 11.955-4.953l-.05-.148c-22.424 5.16-33.561 16.357-31.687 20.028 1.805 3.53 13.174 2.28 24.197-2.708 4.438-2.012 7.846-3.881 10.122-5.35.375-.244.754-.363 1.122.276.529.907 1.564 3.32 1.593 3.387.983 2.147-2.751 6.84-11.154 10.788-7.76 3.642-15.689 4.963-19.179 3.692-.531-.191-1.046-.418-1.703-1.072-.56-.555-1.391-2.022-1.658-2.479l-.182.095c.914 1.924 1.791 3.488 2.157 3.865 2.747 2.82 13.12 1.464 22.529-2.869 9.165-4.225 17.439-11.282 15.727-14.917z" fill="#7F7F7F"/><path d="M410.846 834.2c2.736 0 3.912 1.272 3.912 3.864v.6c0 1.728-.528 2.832-1.704 3.384 1.416.552 1.968 1.824 1.968 3.6v1.368c0 2.592-1.368 3.984-4.008 3.984h-4.152v-16.8h3.984zm-.168 9.24h-1.176v5.16h1.512c.888 0 1.368-.408 1.368-1.656v-1.464c0-1.56-.504-2.04-1.704-2.04zm.096-6.84h-1.272v4.44h1.032c.984 0 1.584-.432 1.584-1.776v-.936c0-1.2-.408-1.728-1.344-1.728zM424.82 851h-2.688c-.144-.432-.24-.696-.24-2.064v-2.64c0-1.56-.528-2.136-1.728-2.136h-.912V851h-2.64v-16.8h3.984c2.736 0 3.912 1.272 3.912 3.864v1.32c0 1.728-.552 2.856-1.728 3.408 1.32.552 1.752 1.824 1.752 3.576v2.592c0 .816.024 1.416.288 2.04zm-4.296-14.4h-1.272v5.16h1.032c.984 0 1.584-.432 1.584-1.776v-1.656c0-1.2-.408-1.728-1.344-1.728zm8.385 0v4.68h3.624v2.4h-3.624v4.92h4.56v2.4h-7.2v-16.8h7.2v2.4h-4.56zm6.196 14.4v-16.8h2.64V851h-2.64zm3.802-14.4v-2.4h8.16v2.4h-2.76V851h-2.64v-14.4h-2.76zm11.963 0v4.68h3.624v2.4h-3.624v4.92h4.56v2.4h-7.2v-16.8h7.2v2.4h-4.56zm11.835 14.4l-3.288-12.168V851h-2.376v-16.8h3.312l2.712 10.056V834.2h2.352V851h-2.712zm4.267-12.768c0-2.688 1.32-4.224 3.888-4.224 2.568 0 3.888 1.536 3.888 4.224v.528h-2.496v-.696c0-1.2-.48-1.656-1.32-1.656-.84 0-1.32.456-1.32 1.656 0 3.456 5.16 4.104 5.16 8.904 0 2.688-1.344 4.224-3.936 4.224-2.592 0-3.936-1.536-3.936-4.224v-1.032h2.496v1.2c0 1.2.528 1.632 1.368 1.632.84 0 1.368-.432 1.368-1.632 0-3.456-5.16-4.104-5.16-8.904zm13.2-4.032c2.64 0 3.936 1.464 3.936 4.152v2.184c0 2.688-1.296 4.152-3.936 4.152h-1.248V851h-2.64v-16.8h3.888zm0 2.4h-1.248v5.688h1.248c.84 0 1.296-.384 1.296-1.584v-2.52c0-1.2-.456-1.584-1.296-1.584zm7.583 1.464v9.072c0 1.2.528 1.656 1.368 1.656.84 0 1.368-.456 1.368-1.656v-9.072c0-1.2-.528-1.656-1.368-1.656-.84 0-1.368.456-1.368 1.656zm-2.64 8.904v-8.736c0-2.688 1.416-4.224 4.008-4.224s4.008 1.536 4.008 4.224v8.736c0 2.688-1.416 4.224-4.008 4.224s-4.008-1.536-4.008-4.224zm17.94 4.032h-2.688c-.144-.432-.24-.696-.24-2.064v-2.64c0-1.56-.528-2.136-1.728-2.136h-.912V851h-2.64v-16.8h3.984c2.736 0 3.912 1.272 3.912 3.864v1.32c0 1.728-.552 2.856-1.728 3.408 1.32.552 1.752 1.824 1.752 3.576v2.592c0 .816.024 1.416.288 2.04zm-4.296-14.4h-1.272v5.16h1.032c.984 0 1.584-.432 1.584-1.776v-1.656c0-1.2-.408-1.728-1.344-1.728zm4.976 0v-2.4h8.16v2.4h-2.76V851h-2.64v-14.4h-2.76z" fill="#000"/><path d="M452.88 891.491h12.24m0 0l-6.12-6.12m6.12 6.12L459 897.61" stroke="#A5A5A5" stroke-width="2" stroke-linecap="round" stroke-linejoin="round"/><path d="M199.182 576.04v-2.4h3.696v5.328c0 2.688-1.344 4.224-3.936 4.224-2.592 0-3.936-1.536-3.936-4.224v-8.736c0-2.688 1.344-4.224 3.936-4.224 2.592 0 3.936 1.536 3.936 4.224v1.632h-2.496v-1.8c0-1.2-.528-1.656-1.368-1.656-.84 0-1.368.456-1.368 1.656v9.072c0 1.2.528 1.632 1.368 1.632.84 0 1.368-.432 1.368-1.632v-3.096h-1.2zm8.031-7.44v4.68h3.624v2.4h-3.624v4.92h4.56v2.4h-7.2v-16.8h7.2v2.4h-4.56zm5.86 1.632c0-2.688 1.32-4.224 3.888-4.224 2.568 0 3.888 1.536 3.888 4.224v.528h-2.496v-.696c0-1.2-.48-1.656-1.32-1.656-.84 0-1.32.456-1.32 1.656 0 3.456 5.16 4.104 5.16 8.904 0 2.688-1.344 4.224-3.936 4.224-2.592 0-3.936-1.536-3.936-4.224v-1.032h2.496v1.2c0 1.2.528 1.632 1.368 1.632.84 0 1.368-.432 1.368-1.632 0-3.456-5.16-4.104-5.16-8.904zm15.169-4.032l2.688 16.8h-2.664l-.456-3.048h-3.24l-.456 3.048h-2.424l2.688-16.8h3.864zm-2.064 2.976l-1.272 8.496h2.544l-1.272-8.496zm9.629-2.976l1.944 11.928 1.8-11.928h3.672V583h-2.496v-12.048L238.903 583h-2.496l-1.968-11.88V583h-2.304v-16.8h3.672zm8.569 2.4v-2.4h8.16v2.4h-2.76V583h-2.64v-14.4h-2.76zm11.962 7.2v7.2h-2.64v-16.8h2.64v7.2h3v-7.2h2.688V583h-2.688v-7.2h-3zm10.242-7.2v4.68h3.624v2.4h-3.624v4.92h4.56v2.4h-7.2v-16.8h7.2v2.4h-4.56zm6.196 14.4v-16.8h2.64V583h-2.64zm3.803-14.4v-2.4h8.16v2.4h-2.76V583h-2.64v-14.4h-2.76zm9.322 14.4v-16.8h2.64v14.4h4.344v2.4h-6.984zm8.133 0v-16.8h2.64V583h-2.64zm9.731-6.264h2.496v2.232c0 2.688-1.344 4.224-3.936 4.224-2.592 0-3.936-1.536-3.936-4.224v-8.736c0-2.688 1.344-4.224 3.936-4.224 2.592 0 3.936 1.536 3.936 4.224v1.632h-2.496v-1.8c0-1.2-.528-1.656-1.368-1.656-.84 0-1.368.456-1.368 1.656v9.072c0 1.2.528 1.632 1.368 1.632.84 0 1.368-.432 1.368-1.632v-2.4zm6.737-.936v7.2h-2.64v-16.8h2.64v7.2h3v-7.2h2.688V583h-2.688v-7.2h-3zm10.243-7.2v4.68h3.624v2.4h-3.624v4.92h4.56v2.4h-7.2v-16.8h7.2v2.4h-4.56zm5.859 1.632c0-2.688 1.32-4.224 3.888-4.224 2.568 0 3.888 1.536 3.888 4.224v.528h-2.496v-.696c0-1.2-.48-1.656-1.32-1.656-.84 0-1.32.456-1.32 1.656 0 3.456 5.16 4.104 5.16 8.904 0 2.688-1.344 4.224-3.936 4.224-2.592 0-3.936-1.536-3.936-4.224v-1.032h2.496v1.2c0 1.2.528 1.632 1.368 1.632.84 0 1.368-.432 1.368-1.632 0-3.456-5.16-4.104-5.16-8.904zm21.403-4.032l2.688 16.8h-2.664l-.456-3.048h-3.24l-.456 3.048h-2.424l2.688-16.8h3.864zm-2.064 2.976l-1.272 8.496h2.544l-1.272-8.496zm5.862-2.976h2.64v12.96c0 1.2.528 1.632 1.368 1.632.84 0 1.368-.432 1.368-1.632V566.2h2.496v12.792c0 2.688-1.344 4.224-3.936 4.224-2.592 0-3.936-1.536-3.936-4.224V566.2zm9.346 4.032c0-2.688 1.32-4.224 3.888-4.224 2.568 0 3.888 1.536 3.888 4.224v.528h-2.496v-.696c0-1.2-.48-1.656-1.32-1.656-.84 0-1.32.456-1.32 1.656 0 3.456 5.16 4.104 5.16 8.904 0 2.688-1.344 4.224-3.936 4.224-2.592 0-3.936-1.536-3.936-4.224v-1.032h2.496v1.2c0 1.2.528 1.632 1.368 1.632.84 0 1.368-.432 1.368-1.632 0-3.456-5.16-4.104-5.16-8.904zm13.297-4.032c2.736 0 3.912 1.272 3.912 3.864v.6c0 1.728-.528 2.832-1.704 3.384 1.416.552 1.968 1.824 1.968 3.6v1.368c0 2.592-1.368 3.984-4.008 3.984h-4.152v-16.8h3.984zm-.168 9.24h-1.176v5.16h1.512c.888 0 1.368-.408 1.368-1.656v-1.464c0-1.56-.504-2.04-1.704-2.04zm.096-6.84h-1.272v4.44h1.032c.984 0 1.584-.432 1.584-1.776v-.936c0-1.2-.408-1.728-1.344-1.728zm5.838 14.4v-16.8h2.64V583h-2.64zm4.57 0v-16.8h2.64v14.4h4.344v2.4h-6.984zm8.133 0v-16.8h4.176c2.64 0 3.936 1.464 3.936 4.152v8.496c0 2.688-1.296 4.152-3.936 4.152h-4.176zm4.128-14.4h-1.488v12h1.488c.84 0 1.344-.432 1.344-1.632v-8.736c0-1.2-.504-1.632-1.344-1.632zm5.549-2.4h2.64v12.96c0 1.2.528 1.632 1.368 1.632.84 0 1.368-.432 1.368-1.632V566.2h2.496v12.792c0 2.688-1.344 4.224-3.936 4.224-2.592 0-3.936-1.536-3.936-4.224V566.2zm15.322 16.8l-3.288-12.168V583h-2.376v-16.8h3.312l2.712 10.056V566.2h2.352V583h-2.712zm8.563-6.96v-2.4h3.696v5.328c0 2.688-1.344 4.224-3.936 4.224-2.592 0-3.936-1.536-3.936-4.224v-8.736c0-2.688 1.344-4.224 3.936-4.224 2.592 0 3.936 1.536 3.936 4.224v1.632h-2.496v-1.8c0-1.2-.528-1.656-1.368-1.656-.84 0-1.368.456-1.368 1.656v9.072c0 1.2.528 1.632 1.368 1.632.84 0 1.368-.432 1.368-1.632v-3.096h-1.2zm5.055-5.808c0-2.688 1.32-4.224 3.888-4.224 2.568 0 3.888 1.536 3.888 4.224v.528h-2.496v-.696c0-1.2-.48-1.656-1.32-1.656-.84 0-1.32.456-1.32 1.656 0 3.456 5.16 4.104 5.16 8.904 0 2.688-1.344 4.224-3.936 4.224-2.592 0-3.936-1.536-3.936-4.224v-1.032h2.496v1.2c0 1.2.528 1.632 1.368 1.632.84 0 1.368-.432 1.368-1.632 0-3.456-5.16-4.104-5.16-8.904zM446.871 583l-2.568-6.696-.816 1.536V583h-2.64v-16.8h2.64v7.32l3.456-7.32h2.64l-3.672 7.488 3.672 9.312h-2.712zm6.173-12.936v9.072c0 1.2.528 1.656 1.368 1.656.84 0 1.368-.456 1.368-1.656v-9.072c0-1.2-.528-1.656-1.368-1.656-.84 0-1.368.456-1.368 1.656zm-2.64 8.904v-8.736c0-2.688 1.416-4.224 4.008-4.224s4.008 1.536 4.008 4.224v8.736c0 2.688-1.416 4.224-4.008 4.224s-4.008-1.536-4.008-4.224zM465.776 583l-3.288-12.168V583h-2.376v-16.8h3.312l2.712 10.056V566.2h2.352V583h-2.712zm4.434-16.8h7.488v2.352l-5.016 12.048h5.016v2.4h-7.728v-2.352l5.016-12.048h-4.776v-2.4zm11.691 2.4v4.68h3.624v2.4h-3.624v4.92h4.56v2.4h-7.2v-16.8h7.2v2.4h-4.56zm10.084-2.4c2.64 0 3.936 1.464 3.936 4.152v2.184c0 2.688-1.296 4.152-3.936 4.152h-1.248V583h-2.64v-16.8h3.888zm0 2.4h-1.248v5.688h1.248c.84 0 1.296-.384 1.296-1.584v-2.52c0-1.2-.456-1.584-1.296-1.584zm4.391 0v-2.4h8.16v2.4h-2.76V583h-2.64v-14.4h-2.76z" fill="#000"/><path d="M304.437 590.2h.816v2.16h-.648c-.84 0-1.224.312-1.224 1.512v9.456c0 1.2.384 1.512 1.224 1.512h.648V607h-.816c-2.64 0-3.696-.984-3.696-3.672v-9.456c0-2.688 1.056-3.672 3.696-3.672zm9.046 16.8l-.96-8.952-.96 8.952h-3.624l-1.872-16.8h2.568l1.416 13.248 1.272-13.248h2.544l1.32 13.344 1.368-13.344h2.304l-1.872 16.8h-3.504zm10.355-16.8l1.944 11.928 1.8-11.928h3.672V607h-2.496v-12.048L326.934 607h-2.496l-1.968-11.88V607h-2.304v-16.8h3.672zm9.217 9.6v-2.4h4.8v2.4h-4.8zm6.589 7.2v-16.8h2.64v14.4h4.344v2.4h-6.984zm10.772-14.4v4.68h3.624v2.4h-3.624v4.92h4.56v2.4h-7.2v-16.8h7.2v2.4h-4.56zm10.156 7.44v-2.4h3.696v5.328c0 2.688-1.344 4.224-3.936 4.224-2.592 0-3.936-1.536-3.936-4.224v-8.736c0-2.688 1.344-4.224 3.936-4.224 2.592 0 3.936 1.536 3.936 4.224v1.632h-2.496v-1.8c0-1.2-.528-1.656-1.368-1.656-.84 0-1.368.456-1.368 1.656v9.072c0 1.2.528 1.632 1.368 1.632.84 0 1.368-.432 1.368-1.632v-3.096h-1.2zm11.224-9.84l2.688 16.8h-2.664l-.456-3.048h-3.24l-.456 3.048h-2.424l2.688-16.8h3.864zm-2.064 2.976l-1.272 8.496h2.544l-1.272-8.496zm11.118 7.56h2.496v2.232c0 2.688-1.344 4.224-3.936 4.224-2.592 0-3.936-1.536-3.936-4.224v-8.736c0-2.688 1.344-4.224 3.936-4.224 2.592 0 3.936 1.536 3.936 4.224v1.632h-2.496v-1.8c0-1.2-.528-1.656-1.368-1.656-.84 0-1.368.456-1.368 1.656v9.072c0 1.2.528 1.632 1.368 1.632.84 0 1.368-.432 1.368-1.632v-2.4zm6.312 6.264v-5.568l-3.336-11.232h2.76l2.016 7.656 2.016-7.656h2.52l-3.336 11.232V607h-2.64zm6.585-16.8h.816c2.64 0 3.696.984 3.696 3.672v9.456c0 2.688-1.056 3.672-3.696 3.672h-.816v-2.16h.648c.84 0 1.224-.312 1.224-1.512v-9.456c0-1.2-.384-1.512-1.224-1.512h-.648v-2.16z" fill="#E60001"/><path d="M275.488 511H272.8c-.144-.432-.24-.696-.24-2.064v-2.64c0-1.56-.528-2.136-1.728-2.136h-.912V511h-2.64v-16.8h3.984c2.736 0 3.912 1.272 3.912 3.864v1.32c0 1.728-.552 2.856-1.728 3.408 1.32.552 1.752 1.824 1.752 3.576v2.592c0 .816.024 1.416.288 2.04zm-4.296-14.4h-1.272v5.16h1.032c.984 0 1.584-.432 1.584-1.776v-1.656c0-1.2-.408-1.728-1.344-1.728zm8.385 0v4.68h3.624v2.4h-3.624v4.92h4.56v2.4h-7.2v-16.8h7.2v2.4h-4.56zm10.156 7.44v-2.4h3.696v5.328c0 2.688-1.344 4.224-3.936 4.224-2.592 0-3.936-1.536-3.936-4.224v-8.736c0-2.688 1.344-4.224 3.936-4.224 2.592 0 3.936 1.536 3.936 4.224v1.632h-2.496v-1.8c0-1.2-.528-1.656-1.368-1.656-.84 0-1.368.456-1.368 1.656v9.072c0 1.2.528 1.632 1.368 1.632.84 0 1.368-.432 1.368-1.632v-3.096h-1.2zm5.391 6.96v-16.8h2.64V511h-2.64zm6.994-12.936v9.072c0 1.2.528 1.656 1.368 1.656.84 0 1.368-.456 1.368-1.656v-9.072c0-1.2-.528-1.656-1.368-1.656-.84 0-1.368.456-1.368 1.656zm-2.64 8.904v-8.736c0-2.688 1.416-4.224 4.008-4.224s4.008 1.536 4.008 4.224v8.736c0 2.688-1.416 4.224-4.008 4.224s-4.008-1.536-4.008-4.224zM314.85 511l-3.288-12.168V511h-2.376v-16.8h3.312l2.712 10.056V494.2h2.352V511h-2.712zm10.458-16.8l2.688 16.8h-2.664l-.456-3.048h-3.24L321.18 511h-2.424l2.688-16.8h3.864zm-2.064 2.976l-1.272 8.496h2.544l-1.272-8.496zM329.226 511v-16.8h2.64v14.4h4.344v2.4h-6.984zm10.772-14.4v4.68h3.624v2.4h-3.624v4.92h4.56v2.4h-7.2v-16.8h7.2v2.4h-4.56zm15.779-2.4l2.688 16.8h-2.664l-.456-3.048h-3.24l-.456 3.048h-2.424l2.688-16.8h3.864zm-2.064 2.976l-1.272 8.496h2.544l-1.272-8.496zm5.861-2.976h2.64v12.96c0 1.2.528 1.632 1.368 1.632.84 0 1.368-.432 1.368-1.632V494.2h2.496v12.792c0 2.688-1.344 4.224-3.936 4.224-2.592 0-3.936-1.536-3.936-4.224V494.2zm9.347 4.032c0-2.688 1.32-4.224 3.888-4.224 2.568 0 3.888 1.536 3.888 4.224v.528h-2.496v-.696c0-1.2-.48-1.656-1.32-1.656-.84 0-1.32.456-1.32 1.656 0 3.456 5.16 4.104 5.16 8.904 0 2.688-1.344 4.224-3.936 4.224-2.592 0-3.936-1.536-3.936-4.224v-1.032h2.496v1.2c0 1.2.528 1.632 1.368 1.632.84 0 1.368-.432 1.368-1.632 0-3.456-5.16-4.104-5.16-8.904zm13.296-4.032c2.736 0 3.912 1.272 3.912 3.864v.6c0 1.728-.528 2.832-1.704 3.384 1.416.552 1.968 1.824 1.968 3.6v1.368c0 2.592-1.368 3.984-4.008 3.984h-4.152v-16.8h3.984zm-.168 9.24h-1.176v5.16h1.512c.888 0 1.368-.408 1.368-1.656v-1.464c0-1.56-.504-2.04-1.704-2.04zm.096-6.84h-1.272v4.44h1.032c.984 0 1.584-.432 1.584-1.776v-.936c0-1.2-.408-1.728-1.344-1.728zm5.838 14.4v-16.8h2.64V511h-2.64zm4.571 0v-16.8h2.64v14.4h4.344v2.4h-6.984zm8.133 0v-16.8h4.176c2.64 0 3.936 1.464 3.936 4.152v8.496c0 2.688-1.296 4.152-3.936 4.152h-4.176zm4.128-14.4h-1.488v12h1.488c.84 0 1.344-.432 1.344-1.632v-8.736c0-1.2-.504-1.632-1.344-1.632zm5.548-2.4h2.64v12.96c0 1.2.528 1.632 1.368 1.632.84 0 1.368-.432 1.368-1.632V494.2h2.496v12.792c0 2.688-1.344 4.224-3.936 4.224-2.592 0-3.936-1.536-3.936-4.224V494.2zm15.323 16.8l-3.288-12.168V511h-2.376v-16.8h3.312l2.712 10.056V494.2h2.352V511h-2.712zm8.562-6.96v-2.4h3.696v5.328c0 2.688-1.344 4.224-3.936 4.224-2.592 0-3.936-1.536-3.936-4.224v-8.736c0-2.688 1.344-4.224 3.936-4.224 2.592 0 3.936 1.536 3.936 4.224v1.632h-2.496v-1.8c0-1.2-.528-1.656-1.368-1.656-.84 0-1.368.456-1.368 1.656v9.072c0 1.2.528 1.632 1.368 1.632.84 0 1.368-.432 1.368-1.632v-3.096h-1.2z" fill="#000"/><path d="M134 642.833a2.667 2.667 0 100 5.334 2.667 2.667 0 000-5.334zm0-182.5a2.667 2.667 0 100 5.334 2.667 2.667 0 000-5.334zm-.5 4.188v.5h1v-.5h-1zm1 3.041v-.5l-1 .001v.5l.5-.001h.5zm-1 3.042v.5h1v-.5h-1zm1 3.042v-.5h-1v.5h1zm-1 3.042v.5h1v-.5h-1zm1 3.041v-.5h-1v.5h1zm-1 3.042v.5h1v-.5h-1zm1 3.041v-.5l-1 .001v.5h.5l.5-.001zm-1 3.042v.5h1v-.5h-1zm1 3.042v-.5h-1v.5h1zm-1 3.041v.5h1v-.5h-1zm1 3.042v-.5h-1v.5h1zm-1 3.042v.5h1v-.5h-1zm1 3.041v-.5l-1 .001v.5h.5l.5-.001zm-1 3.042v.5h1v-.5h-1zm1 3.042v-.5h-1v.5h1zm-1 3.042v.5h1v-.5h-1zm1 3.041v-.5h-1v.5h1zm-1 3.042v.5h1v-.5h-1zm1 3.042v-.5h-1v.5h1zm-1 3.041v.5h1v-.5h-1zm1 3.042v-.5h-1v.5h1zm-1 3.042v.5h1v-.5h-1zm1 3.041v-.5h-1v.5h1zm-1 3.042v.5h1v-.5h-1zm1 3.041v-.5l-1 .001v.5h.5l.5-.001zm-1 3.042v.5h1v-.5h-1zm1 3.042v-.5h-1v.5h1zm-1 3.041v.5h1v-.5h-1zm1 3.042v-.5h-1v.5h1zm-1 3.042v.5h1v-.5h-1zm1 3.041v-.5h-1v.5h1zm-1 3.042v.5h1v-.5h-1zm1 3.042v-.5h-1v.5h1zm-1 3.041v.5h1v-.5h-1zm1 3.042v-.5h-1v.5h1zm-1 3.042v.5h1v-.5h-1zm1 3.041v-.5h-1v.5h1zm-1 3.042v.5h1v-.5h-1zm1 3.042v-.5h-1v.5h1zm-1 3.041v.5h1v-.5h-1zm1 3.042v-.5h-1v.5h1zm-1 3.042v.5h1v-.5h-1zm1 3.041v-.5h-1v.5h1zm-1 3.042v.5h1v-.5h-1zm1 3.042v-.5h-1v.5h1zm-1 3.041v.5h1v-.5h-1zm1 3.042v-.5h-1v.5h1zm-1 3.042v.5h1v-.5h-1zm1 3.041v-.5l-1 .001v.5h.5l.5-.001zm-1 3.042v.5h1v-.5h-1zm1 3.042v-.5h-1v.5h1zm-1 3.042v.5h1v-.5h-1zm1 3.041v-.5h-1v.5h1zm-1 3.042v.5h1v-.5h-1zm1 3.042v-.5h-1v.5h1zm-1 3.041v.5h1v-.5h-1zm1 3.042v-.5h-1v.5h1zm-1 3.042v.5h1v-.5h-1zm1 3.041v-.5h-1v.5h1zM134 463h-.5v1.521h1V463h-.5zm0 4.562l-.5.001v3.041h1v-3.042h-.5zm0 6.084h-.5v3.042h1v-3.042h-.5zm0 6.083h-.5v3.042h1v-3.042h-.5zm0 6.084h-.5v3.041h1v-3.042l-.5.001zm0 6.083h-.5v3.041h1v-3.041h-.5zm0 6.083h-.5v3.042h1v-3.042h-.5zm0 6.084h-.5v3.041h1v-3.042l-.5.001zm0 6.083h-.5v3.042h1v-3.042h-.5zm0 6.083h-.5v3.042h1v-3.042h-.5zm0 6.084h-.5v3.041h1v-3.041h-.5zm0 6.083h-.5v3.042h1v-3.042h-.5zm0 6.083h-.5v3.042h1v-3.042h-.5zm0 6.084h-.5v3.041h1v-3.042l-.5.001zm0 6.083h-.5v3.041h1v-3.041h-.5zm0 6.083h-.5v3.042h1v-3.042h-.5zm0 6.083h-.5v3.042h1v-3.042h-.5zm0 6.084h-.5v3.041h1v-3.041h-.5zm0 6.083h-.5v3.042h1v-3.042h-.5zm0 6.083h-.5v3.042h1v-3.042h-.5zm0 6.084h-.5v3.041h1v-3.041h-.5zm0 6.083h-.5v3.042h1v-3.042h-.5zm0 6.083h-.5v3.042h1v-3.042h-.5zm0 6.084h-.5v3.041h1v-3.041h-.5zm0 6.083h-.5v3.042h1v-3.042h-.5zm0 6.084h-.5v3.041h1v-3.042l-.5.001zm0 6.083h-.5v3.042h1v-3.042h-.5zm0 6.083h-.5v3.042h1v-3.042h-.5zm0 6.084h-.5v3.041h1v-3.041h-.5zm0 6.083h-.5v3.042h1v-3.042h-.5zm0 6.083h-.5v1.521h1v-1.521h-.5z" fill="#FF5756"/><path d="M107.232 582.235c-2.688 0-4.224-1.32-4.224-3.888 0-2.568 1.536-3.888 4.224-3.888h.528v2.496h-.696c-1.2 0-1.656.48-1.656 1.32 0 .84.456 1.32 1.656 1.32 3.456 0 4.104-5.16 8.904-5.16 2.688 0 4.224 1.344 4.224 3.936 0 2.592-1.536 3.936-4.224 3.936h-1.032v-2.496h1.2c1.2 0 1.632-.528 1.632-1.368 0-.84-.432-1.368-1.632-1.368-3.456 0-4.104 5.16-8.904 5.16zM120 564.715v2.688c-.432.144-.696.24-2.064.24h-2.64c-1.56 0-2.136.528-2.136 1.728v.912H120v2.64h-16.8v-3.984c0-2.736 1.272-3.912 3.864-3.912h1.32c1.728 0 2.856.552 3.408 1.728.552-1.32 1.824-1.752 3.576-1.752h2.592c.816 0 1.416-.024 2.04-.288zm-14.4 4.296v1.272h5.16v-1.032c0-.984-.432-1.584-1.776-1.584h-1.656c-1.2 0-1.728.408-1.728 1.344zm7.2-5.624h-2.4v-4.8h2.4v4.8zm7.2-13.311l-8.952.96 8.952.96v3.624l-16.8 1.872v-2.568l13.248-1.416-13.248-1.272v-2.544l13.344-1.32-13.344-1.368V544.7l16.8 1.872v3.504zm-14.4-9.348h4.68v-3.624h2.4v3.624h4.92v-4.56h2.4v7.2h-16.8v-7.2h2.4v4.56zm7.44-10.156h-2.4v-3.696h5.328c2.688 0 4.224 1.344 4.224 3.936 0 2.592-1.536 3.936-4.224 3.936h-8.736c-2.688 0-4.224-1.344-4.224-3.936 0-2.592 1.536-3.936 4.224-3.936h1.632v2.496h-1.8c-1.2 0-1.656.528-1.656 1.368 0 .84.456 1.368 1.656 1.368h9.072c1.2 0 1.632-.528 1.632-1.368 0-.84-.432-1.368-1.632-1.368h-3.096v1.2z" fill="#000"/></svg>