<svg width="256" height="32" viewBox="0 0 256 32" fill="none" xmlns="http://www.w3.org/2000/svg"><g clip-path="url(#clip0_3014_668)" fill="#ED1D24"><path d="M68.535 18.313c0 .677-.132 1.279-.396 1.809-.263.527-.63.975-1.095 1.34a5.097 5.097 0 01-1.667.843 7.144 7.144 0 01-2.1.296c-.745 0-1.45-.089-2.121-.264-.67-.177-1.371-.347-2.1-.51V17.48h.264l.872 2.031c.326.258.728.52 1.207.782.48.265 1.12.404 1.92.417.338 0 .646-.057.933-.172.284-.115.534-.266.752-.458.216-.189.385-.406.506-.65.122-.244.182-.487.182-.73 0-.448-.12-.835-.364-1.16a3.693 3.693 0 00-.883-.842 6.428 6.428 0 00-1.116-.61c-.4-.17-.749-.335-1.046-.496a10.68 10.68 0 01-1.22-.712 5.832 5.832 0 01-1.014-.874 3.664 3.664 0 01-.7-1.117 3.787 3.787 0 01-.254-1.424c0-.54.122-1.046.367-1.513.242-.467.571-.87.984-1.21a4.677 4.677 0 011.44-.792 5.24 5.24 0 011.717-.284c.406 0 .77.018 1.096.052.326.033.639.085.944.151.303.068.616.147.932.234.32.088.661.187 1.026.295V12.4h-.264l-.912-2.012c-.285-.285-.664-.524-1.14-.721-.471-.196-1.068-.261-1.783-.193a2.252 2.252 0 00-.661.182c-.21.095-.397.217-.558.367-.162.15-.29.32-.386.518a1.395 1.395 0 00-.142.62c0 .23.064.446.192.65.13.203.29.385.487.548.197.163.41.312.641.447.23.136.447.252.647.345.556.3 1.123.59 1.697.875a7.739 7.739 0 011.553 1.005c.46.386.835.84 1.125 1.361.292.522.438 1.16.438 1.92zM88.374 9.007l-3.207 13.268h-2.68L79.97 12.89l-2.921 9.386h-2.68l-2.7-13.268-1.849-.792v-.243h6.477v.243l-1.543.792 1.217 9.325 3.066-10.36h2.171l2.782 10.402 1.704-9.367-1.583-.792v-.243h6.091v.243l-1.827.792zM92.017 22.275v-.264l1.785-.772V9.007l-1.785-.792v-.243h6.415v.243l-1.787.792V21.24l1.787.772v.264h-6.415zM109.916 18.313c0 .677-.132 1.279-.397 1.809a3.885 3.885 0 01-1.095 1.34 5.063 5.063 0 01-1.665.843 7.16 7.16 0 01-2.1.296 8.347 8.347 0 01-2.122-.264 55.01 55.01 0 00-2.101-.51V17.48h.264l.872 2.031c.324.258.728.52 1.207.782.482.265 1.12.404 1.919.417.339 0 .65-.057.934-.172.285-.115.535-.266.752-.458a2.12 2.12 0 00.507-.65c.123-.244.184-.487.184-.73 0-.448-.124-.835-.368-1.16a3.656 3.656 0 00-.882-.842 6.324 6.324 0 00-1.116-.61c-.4-.17-.749-.335-1.044-.496-.435-.218-.84-.453-1.218-.712a5.568 5.568 0 01-1.016-.874 3.658 3.658 0 01-.7-1.117 3.754 3.754 0 01-.254-1.424c0-.54.123-1.046.366-1.513.242-.467.569-.87.983-1.21a4.651 4.651 0 011.443-.792 5.222 5.222 0 011.716-.284c.402 0 .769.018 1.094.052.325.033.639.085.943.151.307.068.618.147.935.234.317.088.659.187 1.025.295V12.4h-.263l-.914-2.012c-.284-.285-.664-.524-1.138-.721-.473-.196-1.069-.261-1.786-.193-.229.027-.45.088-.659.182a2.053 2.053 0 00-.557.367c-.163.15-.294.32-.387.518a1.414 1.414 0 00-.142.62c0 .23.064.446.194.65.126.203.29.385.487.548.194.163.408.312.638.447.231.136.448.252.651.345.553.3 1.119.59 1.694.875a7.632 7.632 0 011.552 1.005c.461.386.836.84 1.128 1.361.291.522.436 1.16.436 1.92zM121.364 18.313c0 .677-.13 1.279-.394 1.809-.263.527-.63.975-1.095 1.34a5.123 5.123 0 01-1.665.843 7.175 7.175 0 01-2.103.296 8.312 8.312 0 01-2.119-.264 57.905 57.905 0 00-2.101-.51V17.48h.263l.873 2.031c.325.258.727.52 1.208.782.479.265 1.119.404 1.917.417.339 0 .65-.057.935-.172a2.61 2.61 0 00.75-.458c.218-.189.387-.406.508-.65a1.62 1.62 0 00.182-.73c0-.448-.121-.835-.364-1.16a3.72 3.72 0 00-.884-.842 6.324 6.324 0 00-1.116-.61c-.4-.17-.748-.335-1.046-.496a10.672 10.672 0 01-1.218-.712 5.806 5.806 0 01-1.015-.874 3.677 3.677 0 01-.7-1.117 3.773 3.773 0 01-.254-1.424c0-.54.121-1.046.366-1.513.243-.467.572-.87.985-1.21a4.688 4.688 0 011.439-.792 5.248 5.248 0 011.716-.284c.408 0 .772.018 1.096.052.326.033.641.085.946.151.302.068.614.147.932.234.319.088.66.187 1.025.295V12.4h-.265l-.911-2.012c-.285-.285-.663-.524-1.136-.721-.476-.196-1.07-.261-1.787-.193-.232.027-.45.088-.66.182a2.08 2.08 0 00-.559.367c-.163.15-.29.32-.387.518-.094.196-.14.402-.14.62 0 .23.064.446.191.65.131.203.292.385.488.548.197.163.409.312.641.447.229.136.445.252.648.345.555.3 1.12.59 1.696.875a7.78 7.78 0 011.553 1.005c.459.386.835.84 1.125 1.361.292.522.436 1.16.436 1.92zM129.892 22.275v-.264l1.787-.772V9.007l-1.787-.792v-.243h6.415v.243l-1.787.792V21.24l1.787.772v.264h-6.415zM148.492 21.827a.312.312 0 01-.123.051.348.348 0 00-.102.032c-.73.256-1.404.45-2.019.578a9.254 9.254 0 01-1.899.193c-.988 0-1.896-.152-2.729-.456a5.498 5.498 0 01-2.141-1.403c-.598-.629-1.063-1.428-1.403-2.398-.339-.968-.507-2.122-.507-3.463 0-1.138.196-2.16.588-3.068a7.204 7.204 0 011.586-2.327 6.964 6.964 0 012.292-1.483 7.347 7.347 0 012.741-.519c.515 0 1.047.07 1.593.204.55.135 1.108.298 1.678.488v3.78h-.266l-.812-1.932a4.305 4.305 0 00-.385-.182 5.923 5.923 0 00-.551-.194c-.2-.06-.417-.114-.646-.162a3.403 3.403 0 00-.672-.07c-.487 0-.971.087-1.451.263a3.35 3.35 0 00-1.299.883c-.386.414-.696.966-.934 1.657-.236.69-.355 1.546-.355 2.561 0 1.056.101 1.96.304 2.711.204.751.477 1.365.821 1.839.347.475.747.823 1.199 1.046.455.224.925.336 1.411.336.285 0 .542-.01.772-.03.229-.022.45-.055.668-.102.218-.047.441-.115.672-.204.23-.087.493-.2.79-.334l.935-2.054h.244v3.76zM160.412 22.275h-9.884v-.264l1.786-.772V9.007l-1.786-.792v-.243h9.926v3.576h-.264l-.731-1.748h-4.303v4.206h2.68l.71-1.423h.262v4.612h-.262l-.71-1.36h-2.68v4.57h4.486l1.197-1.584.264.102-.691 3.352zM178.296 22.275v-.264l1.605-.772v-5.283h-5.096v5.283l1.583.772v.264h-6.211v-.264l1.787-.772V9.007l-1.908-.792v-.243h6.353v.243l-1.604.792v5.1h5.096v-5.1l-1.605-.792v-.243h6.233v.243l-1.787.792V21.24l1.787.772v.264h-6.233zM194.997 15.816c.014-.354.016-.75.011-1.19-.008-.44-.044-.894-.104-1.361a9.781 9.781 0 00-.272-1.372 3.84 3.84 0 00-.539-1.19 2.897 2.897 0 00-.882-.842c-.352-.217-.778-.325-1.28-.325-.568 0-1.043.142-1.43.427a3.247 3.247 0 00-.942 1.107c-.244.454-.424.96-.542 1.513a9.498 9.498 0 00-.192 1.646c-.013.354-.013.756 0 1.21.014.455.05.92.114 1.4.061.482.153.956.284 1.422.128.469.305.881.537 1.24.231.36.516.654.864.885.344.23.76.345 1.247.345.676 0 1.217-.167 1.625-.498a3.28 3.28 0 00.933-1.24 5.84 5.84 0 00.436-1.604c.074-.575.118-1.101.132-1.573zm3.023-.693c0 1.099-.151 2.11-.452 3.038-.308.927-.731 1.726-1.271 2.397a5.821 5.821 0 01-1.929 1.565 5.389 5.389 0 01-2.437.558c-1.054 0-1.964-.21-2.731-.63a5.573 5.573 0 01-1.887-1.675c-.493-.698-.858-1.504-1.097-2.419a11.29 11.29 0 01-.355-2.834c0-1.096.15-2.11.447-3.037.3-.928.716-1.728 1.26-2.399a5.778 5.778 0 011.929-1.563 5.338 5.338 0 012.434-.56c1.057 0 1.966.208 2.73.62a5.544 5.544 0 011.898 1.666c.504.699.87 1.505 1.108 2.419.234.914.353 1.866.353 2.854zM210.859 21.827a.286.286 0 01-.122.051.353.353 0 00-.1.032c-.733.256-1.405.45-2.02.578a9.257 9.257 0 01-1.9.193c-.986 0-1.898-.152-2.727-.456a5.534 5.534 0 01-2.145-1.403c-.594-.629-1.062-1.428-1.401-2.398-.337-.968-.506-2.122-.506-3.463 0-1.138.198-2.16.587-3.068a7.22 7.22 0 011.586-2.327 6.985 6.985 0 012.292-1.483 7.355 7.355 0 012.741-.519c.515 0 1.046.07 1.595.204.548.135 1.105.298 1.673.488v3.78h-.264l-.811-1.932a3.971 3.971 0 00-.386-.182 5.65 5.65 0 00-.548-.194 7.896 7.896 0 00-.65-.162 3.381 3.381 0 00-.669-.07 4.18 4.18 0 00-1.451.263c-.481.176-.914.47-1.301.883-.384.414-.697.966-.932 1.657-.239.69-.357 1.546-.357 2.561 0 1.056.102 1.96.306 2.711.202.751.477 1.365.825 1.839.341.475.739.823 1.195 1.046.451.224.922.336 1.412.336.282 0 .539-.01.768-.03a5.35 5.35 0 00.673-.102c.216-.047.438-.115.669-.204.229-.087.494-.2.792-.334l.933-2.054h.243v3.76zM222.538 22.275l-4.954-6.886v5.85l1.586.772v.264h-6.214v-.264l1.786-.772V9.007l-1.827-.792v-.243h6.152v.243l-1.483.792v5.04l4.487-5.182-1.38-.65v-.243h6.292v.243l-1.804.792-5.015 5.426 5.176 6.826 2.05.752v.264h-4.852zM239.191 22.275h-9.884v-.264l1.785-.772V9.007l-1.785-.792v-.243h9.925v3.576h-.263l-.732-1.748h-4.302v4.206h2.68l.709-1.423h.264v4.612h-.264l-.709-1.36h-2.68v4.57h4.485l1.197-1.584.266.102-.692 3.352zM253.825 9.007l-3.797 7.437v4.795l1.788.772v.264h-6.415v-.264l1.804-.772v-4.755l-3.957-7.477-1.807-.792v-.243h6.64v.243l-1.625.792 2.335 5.445 2.172-5.445-1.584-.792v-.243h6.212v.243l-1.766.792zM42.302 12.416l-.021-.05s-3.98-8.663-4.518-9.521c-.809 2.474-9.055 8.582-18.925 12.59-5.965 2.423-11.57 3.084-12.774 1.97C3.69 15.21 10.98 9.453 19.314 4.975 24.63 2.12 29.518.57 30.865.15l-.049-.144C9.147 5.034-1.615 15.944.197 19.522c1.744 3.44 12.73 2.22 23.382-2.639 4.29-1.96 7.584-3.782 9.781-5.213.364-.239.73-.354 1.085.269.512.883 1.512 3.235 1.54 3.3.95 2.092-2.658 6.665-10.78 10.512-7.498 3.55-15.161 4.836-18.534 3.597-.512-.186-1.01-.407-1.644-1.044-.542-.54-1.345-1.971-1.603-2.415l-.176.09c.883 1.876 1.73 3.4 2.085 3.768 2.655 2.747 12.679 1.426 21.77-2.796 8.857-4.117 16.854-10.993 15.199-14.535z"/></g><defs><clipPath id="clip0_3014_668"><path fill="#fff" d="M0 0h255.59v31.19H0z"/></clipPath></defs></svg>