<svg width="21" height="21" viewBox="0 0 21 21" fill="none" xmlns="http://www.w3.org/2000/svg"><path d="M18.36 7.868V2.623m0 0h-5.246m5.245 0l-7.868 7.868M8.743 2.623H6.819c-1.468 0-2.203 0-2.764.286A2.623 2.623 0 002.91 4.055c-.286.56-.286 1.295-.286 2.764v7.343c0 1.47 0 2.204.286 2.765.251.493.653.895 1.146 1.146.561.286 1.296.286 2.764.286h7.344c1.469 0 2.203 0 2.764-.286a2.623 2.623 0 001.146-1.146c.286-.561.286-1.296.286-2.764v-1.924" stroke="#FF8F8F" stroke-width="2" stroke-linecap="round" stroke-linejoin="round"/></svg>