<svg width="88" height="132" viewBox="0 0 88 132" fill="none" xmlns="http://www.w3.org/2000/svg"><path d="M88 123.2c0 4.861-3.94 8.8-8.8 8.8H8.8a8.8 8.8 0 01-8.8-8.8V8.8A8.8 8.8 0 018.8 0h70.4A8.8 8.8 0 0188 8.8v114.4z" fill="#fff"/><path d="M85.067 123.2a5.867 5.867 0 01-5.866 5.867h-70.4a5.867 5.867 0 01-5.867-5.867V8.8A5.867 5.867 0 018.8 2.932h70.401a5.866 5.866 0 015.867 5.866V123.2z" fill="#E60001"/><path d="M76.66 30.996l-.032-.078s-6.177-13.446-7.012-14.778C68.36 19.98 55.56 29.46 40.24 35.682c-9.257 3.76-17.96 4.788-19.828 3.058-3.683-3.408 7.633-12.342 20.566-19.291 8.253-4.436 15.841-6.842 17.932-7.493l-.075-.223C25.2 19.538 8.493 36.473 11.305 42.025c2.707 5.34 19.761 3.45 36.295-4.095 6.657-3.043 11.77-5.87 15.182-8.092.564-.37 1.131-.549 1.684.417.793 1.372 2.347 5.023 2.39 5.123 1.475 3.248-4.127 10.346-16.732 16.318-11.64 5.508-23.533 7.506-28.768 5.584-.796-.29-1.57-.633-2.554-1.622-.84-.84-2.087-3.059-2.487-3.75l-.274.143c1.371 2.91 2.687 5.277 3.237 5.848 4.12 4.264 19.68 2.213 33.792-4.34 13.749-6.39 26.16-17.064 23.59-22.563zM48.4 107.985l27.868.364-.001.37-27.866.363h-8.8l-27.867-.363v-.37l27.866-.365 8.8.001zM23.59 84.995c0 .65-.125 1.225-.374 1.73-.246.506-.59.934-1.031 1.285-.44.35-.961.62-1.567.807a6.634 6.634 0 01-1.978.284c-.7 0-1.367-.086-1.997-.255-.63-.17-1.29-.332-1.977-.485v-4.164h.25l.82 1.944a7.95 7.95 0 001.136.75c.453.253 1.055.387 1.807.4.318 0 .612-.057.878-.165.268-.11.504-.258.708-.442.204-.18.363-.388.477-.62a1.57 1.57 0 00.173-.7c0-.428-.116-.797-.343-1.108a3.617 3.617 0 00-.833-.81 5.993 5.993 0 00-1.05-.582c-.377-.162-.705-.32-.985-.478a9.766 9.766 0 01-1.146-.68 5.213 5.213 0 01-.956-.836c-.28-.31-.5-.669-.66-1.07a3.655 3.655 0 01-.238-1.362c0-.518.115-1.001.344-1.448.23-.449.538-.834.927-1.158a4.34 4.34 0 011.357-.759 4.785 4.785 0 011.615-.273c.382 0 .725.016 1.032.049.306.03.602.081.888.145.287.066.58.14.879.227.299.082.622.175.965.28v3.834h-.25l-.859-1.929c-.267-.273-.624-.5-1.07-.689-.446-.19-1.007-.25-1.68-.184a2.025 2.025 0 00-.622.175c-.198.09-.373.207-.526.348a1.634 1.634 0 00-.363.497c-.09.188-.134.386-.134.593 0 .223.06.427.182.622.122.196.274.37.457.526.186.157.387.3.604.43.216.129.421.238.61.33a52.93 52.93 0 001.596.835 7.35 7.35 0 011.462.963c.434.37.788.803 1.061 1.305.274.5.411 1.112.411 1.838zM41.63 76.084l-3.019 12.703h-2.523L33.72 79.8l-2.752 8.988h-2.522l-2.542-12.703-1.739-.76v-.23h6.096v.23l-1.452.76 1.146 8.928 2.886-9.919h2.044l2.619 9.958 1.605-8.967-1.49-.76v-.23h5.732v.23l-1.72.76zM44.822 88.787v-.252l1.684-.74V76.084l-1.684-.76v-.23h6.04v.23l-1.683.76v11.71l1.683.74v.253h-6.04zM62.173 84.995c0 .65-.125 1.225-.375 1.73a3.714 3.714 0 01-1.03 1.285c-.439.35-.962.62-1.567.807a6.637 6.637 0 01-1.978.284c-.7 0-1.366-.086-1.995-.255a47.87 47.87 0 00-1.98-.485v-4.164h.248l.822 1.944c.305.248.685.497 1.136.75.455.253 1.054.387 1.807.4a2.325 2.325 0 001.586-.607 1.99 1.99 0 00.477-.62c.116-.234.172-.467.172-.7 0-.428-.113-.797-.344-1.108a3.492 3.492 0 00-.83-.81 5.972 5.972 0 00-1.05-.582c-.377-.162-.705-.32-.984-.478a9.551 9.551 0 01-1.147-.68 5.169 5.169 0 01-.955-.836 3.54 3.54 0 01-.661-1.07 3.64 3.64 0 01-.238-1.362c0-.518.114-1.001.343-1.448a3.7 3.7 0 01.926-1.158c.39-.325.841-.576 1.358-.759a4.8 4.8 0 011.614-.273c.384 0 .726.016 1.035.049.304.03.6.081.887.145.287.066.58.14.88.227.297.082.618.175.962.28v3.834h-.246l-.861-1.929c-.27-.273-.624-.5-1.069-.689-.447-.19-1.007-.25-1.682-.184a2.028 2.028 0 00-.622.175c-.197.09-.374.207-.524.348a1.59 1.59 0 00-.364.497c-.09.188-.133.386-.133.593 0 .223.06.427.18.622.12.196.273.37.46.526.184.157.383.3.602.43.216.129.42.238.61.33.522.284 1.054.564 1.596.835a7.36 7.36 0 011.46.963c.435.37.788.803 1.061 1.305.277.5.413 1.112.413 1.838zM73.334 84.995c0 .65-.124 1.225-.374 1.73a3.722 3.722 0 01-1.03 1.285c-.44.35-.962.62-1.567.807a6.64 6.64 0 01-1.979.284 7.686 7.686 0 01-1.995-.255c-.632-.17-1.29-.332-1.979-.485v-4.164h.249l.822 1.944a7.97 7.97 0 001.134.75c.454.253 1.055.387 1.808.4a2.327 2.327 0 001.584-.607c.207-.18.364-.388.48-.62.114-.234.17-.467.17-.7 0-.428-.113-.797-.342-1.108a3.591 3.591 0 00-.83-.81 5.982 5.982 0 00-1.052-.582 9.933 9.933 0 01-.983-.478 9.318 9.318 0 01-1.147-.68 5.184 5.184 0 01-.956-.836c-.282-.31-.5-.669-.66-1.07-.162-.402-.239-.856-.239-1.362 0-.518.115-1.001.344-1.448.228-.449.54-.834.926-1.158.39-.325.84-.576 1.357-.759a4.808 4.808 0 011.614-.273c.385 0 .73.016 1.033.049.306.03.603.081.889.145.287.066.58.14.88.227.297.082.618.175.966.28v3.834h-.25l-.86-1.929c-.267-.273-.625-.5-1.07-.689-.448-.19-1.007-.25-1.682-.184a2.027 2.027 0 00-.62.175c-.197.09-.375.207-.525.348a1.587 1.587 0 00-.364.497 1.343 1.343 0 00-.136.593c0 .223.062.427.184.622.12.196.273.37.458.526.186.157.383.3.6.43.22.129.42.238.613.33a53.24 53.24 0 001.594.835 7.332 7.332 0 011.463.963c.433.37.787.803 1.059 1.305.276.5.413 1.112.413 1.838zM14.666 101.012v-.122l.807-.354v-5.639l-.807-.365v-.11h2.898v.11l-.807.365v5.639l.807.354v.122h-2.898zM23.62 100.807a.126.126 0 01-.056.023.157.157 0 00-.046.014 7.12 7.12 0 01-.914.268 4.11 4.11 0 01-.857.088c-.447 0-.857-.07-1.234-.211a2.504 2.504 0 01-.968-.645c-.269-.291-.478-.659-.632-1.104-.152-.448-.23-.98-.23-1.598 0-.525.09-.994.267-1.412.177-.421.415-.779.715-1.074.3-.297.646-.523 1.037-.684.391-.16.804-.239 1.239-.239.231 0 .471.031.72.094.247.063.498.138.756.226v1.74h-.12l-.367-.89a1.621 1.621 0 00-.173-.082c-.074-.036-.157-.062-.248-.092a3.448 3.448 0 00-.294-.073 1.447 1.447 0 00-.302-.034c-.22 0-.44.04-.656.12a1.524 1.524 0 00-.588.41 2.13 2.13 0 00-.421.765c-.107.315-.16.711-.16 1.178 0 .487.045.904.136 1.252.093.346.216.628.372.847.156.218.336.378.541.48.205.104.418.154.637.154a3.348 3.348 0 00.652-.06c.099-.022.199-.053.303-.094.104-.041.223-.092.358-.154l.422-.943h.11v1.73zM29.27 101.012h-4.467v-.122l.806-.354v-5.639l-.806-.365v-.11h4.485v1.647h-.118l-.332-.805h-1.944v1.94h1.21l.322-.657h.12v2.126h-.12l-.321-.629h-1.211v2.11h2.028l.54-.731.12.045-.312 1.544zM37.46 101.012v-.122l.724-.354V98.1H35.88v2.436l.716.354v.122H33.79v-.122l.806-.354v-5.639l-.86-.365v-.11h2.87v.11l-.726.365v2.352h2.303v-2.352l-.725-.365v-.11h2.816v.11l-.807.365v5.639l.807.354v.122h-2.816zM45.294 98.035c.006-.163.008-.345.005-.547a5.065 5.065 0 00-.17-1.258 1.772 1.772 0 00-.243-.549c-.106-.16-.24-.29-.4-.393a1.089 1.089 0 00-.577-.147 1.03 1.03 0 00-.646.198c-.175.13-.317.3-.426.51-.11.21-.193.443-.244.698-.053.257-.08.51-.087.758a7.922 7.922 0 00.05 1.204c.028.222.07.44.129.655.058.215.138.406.243.572.104.164.234.301.39.405.156.107.344.16.564.16.306 0 .55-.076.733-.229.185-.152.325-.343.423-.572a2.77 2.77 0 00.197-.738 7.44 7.44 0 00.059-.727zm1.37-.32c0 .51-.072.975-.207 1.404-.139.426-.33.793-.574 1.104a2.623 2.623 0 01-.873.72 2.382 2.382 0 01-1.1.257c-.477 0-.89-.095-1.235-.291a2.477 2.477 0 01-.852-.774 3.313 3.313 0 01-.496-1.112 5.286 5.286 0 01-.161-1.308c0-.504.068-.971.202-1.398a3.38 3.38 0 01.57-1.105c.244-.31.535-.548.87-.722a2.366 2.366 0 011.101-.257c.477 0 .889.095 1.235.285.345.194.632.449.856.766.228.326.395.697.502 1.117.108.421.162.859.162 1.314zM52.66 100.807a.124.124 0 01-.056.023 7.288 7.288 0 01-.956.282 4.153 4.153 0 01-.859.088c-.447 0-.859-.07-1.235-.211a2.496 2.496 0 01-.965-.645c-.271-.291-.482-.659-.635-1.104-.154-.448-.23-.98-.23-1.598 0-.525.089-.994.265-1.412.178-.421.419-.779.718-1.074.299-.297.645-.523 1.036-.684a3.24 3.24 0 011.238-.239c.23 0 .474.031.722.094.247.063.5.138.755.226v1.74h-.12l-.365-.89a1.714 1.714 0 00-.175-.082c-.073-.036-.154-.062-.248-.092a3.248 3.248 0 00-.293-.073 1.444 1.444 0 00-.303-.034c-.22 0-.44.04-.657.12a1.536 1.536 0 00-.587.41 2.178 2.178 0 00-.422.765c-.105.315-.159.711-.159 1.178 0 .487.045.904.137 1.252.093.346.216.628.37.847.157.218.338.378.543.48.204.104.417.154.637.154.128 0 .243-.004.35-.015a2.062 2.062 0 00.603-.139c.105-.041.224-.092.358-.154l.424-.943h.109v1.73zM58.09 101.012l-2.24-3.173v2.697l.717.354v.122h-2.81v-.122l.809-.354v-5.639l-.826-.365v-.11h2.78v.11l-.67.365v2.323l2.028-2.388-.623-.3v-.11H60.1v.11l-.819.365-2.266 2.5 2.341 3.148.926.345v.122H58.09zM65.822 101.012h-4.465v-.122l.806-.354v-5.639l-.806-.365v-.11h4.484v1.647h-.119l-.331-.805h-1.945v1.94h1.21l.322-.657h.119v2.126h-.119l-.321-.629h-1.21v2.11h2.028l.54-.731.12.045-.313 1.544zM72.538 94.897l-1.717 3.43v2.209l.808.354v.122h-2.9v-.122l.818-.354v-2.192l-1.79-3.447-.814-.365v-.11h2.999v.11l-.735.365 1.056 2.51.98-2.51-.713-.365v-.11h2.804v.11l-.796.365z" fill="#fff"/></svg>