<svg width="158" height="116" viewBox="0 0 158 116" fill="none" xmlns="http://www.w3.org/2000/svg"><path d="M157.187 46.167l-.077-.187s-14.787-32.226-16.787-35.419c-3.005 9.203-33.647 31.927-70.324 46.836-22.162 9.013-42.994 11.476-47.467 7.33-8.817-8.168 18.272-29.58 49.234-46.235C91.522 7.862 109.688 2.095 114.694.535l-.18-.535C33.992 18.705-6.002 59.292.73 72.6c6.48 12.799 47.307 8.266 86.888-9.815 15.937-7.293 28.176-14.067 36.346-19.393 1.35-.887 2.707-1.316 4.03.999 1.899 3.288 5.618 12.037 5.722 12.277 3.53 7.786-9.88 24.798-40.055 39.109-27.865 13.202-56.338 17.99-68.87 13.384-1.904-.695-3.757-1.518-6.113-3.888-2.011-2.011-4.997-7.33-5.955-8.986l-.655.343c3.283 6.975 6.431 12.645 7.748 14.013 9.864 10.221 47.112 5.305 80.897-10.402 32.914-15.314 62.624-40.896 56.474-54.074z" fill="#fff"/></svg>