<svg width="44" height="32" viewBox="0 0 44 32" fill="none" xmlns="http://www.w3.org/2000/svg"><path d="M43.774 12.736l-.022-.052s-4.118-8.89-4.675-9.77c-.837 2.538-9.37 8.807-19.583 12.92-6.172 2.486-11.974 3.165-13.22 2.021-2.455-2.252 5.09-8.16 13.711-12.754C25.487 2.17 30.546.578 31.94.148L31.89 0C9.466 5.16-1.67 16.357.203 20.028c1.805 3.53 13.174 2.28 24.197-2.708 4.438-2.012 7.846-3.88 10.122-5.35.376-.244.754-.363 1.122.276.529.907 1.564 3.32 1.593 3.386.983 2.148-2.751 6.841-11.154 10.79-7.76 3.641-15.69 4.962-19.179 3.691-.53-.191-1.046-.418-1.703-1.072-.56-.555-1.391-2.023-1.658-2.48l-.182.096c.914 1.924 1.79 3.488 2.157 3.865 2.747 2.82 13.12 1.463 22.529-2.87 9.165-4.224 17.44-11.28 15.727-14.916z" fill="#FF8F8F"/></svg>